<?xml version="1.0" encoding="UTF-8" standalone="no"?>
<svg
   width="16"
   height="16"
   version="1.1"
   id="svg2"
   sodipodi:docname="audio-volume-low-symbolic.svg"
   inkscape:version="1.4.1 (93de688d07, 2025-03-30)"
   xmlns:inkscape="http://www.inkscape.org/namespaces/inkscape"
   xmlns:sodipodi="http://sodipodi.sourceforge.net/DTD/sodipodi-0.dtd"
   xmlns="http://www.w3.org/2000/svg"
   xmlns:svg="http://www.w3.org/2000/svg"
   xmlns:rdf="http://www.w3.org/1999/02/22-rdf-syntax-ns#"
   xmlns:cc="http://creativecommons.org/ns#"
   xmlns:dc="http://purl.org/dc/elements/1.1/">
  <defs
     id="defs2">
    <style
       id="current-color-scheme"
       type="text/css">
          .ColorScheme-Text {
          color:#181612;
          }
          .ColorScheme-Background{
          color:#d4d0c8;
          }
          .ColorScheme-Highlight{
          color:#3a6ea5;
          }
          .ColorScheme-ViewText {
          color:#181612;
          }
          .ColorScheme-ViewBackground{
          color:#ffffff;
          }
          .ColorScheme-ViewHover {
          color:#a3c6ee;
          }
          .ColorScheme-ViewFocus{
          color:#fafafa;
          }
          .ColorScheme-ButtonText {
          color:#181612;
          }
          .ColorScheme-ButtonBackground{
          color:#d4d0c8;
          }
          .ColorScheme-ButtonHover {
          color:#84827d;
          }
          .ColorScheme-ButtonFocus{
          color:#363e41;
          }
      </style>
  </defs>
  <sodipodi:namedview
     id="namedview2"
     pagecolor="#ffffff"
     bordercolor="#111111"
     borderopacity="1"
     inkscape:showpageshadow="0"
     inkscape:pageopacity="0"
     inkscape:pagecheckerboard="1"
     inkscape:deskcolor="#d1d1d1"
     inkscape:zoom="12.860505"
     inkscape:cx="-6.5705042"
     inkscape:cy="16.329064"
     inkscape:current-layer="svg2" />
  <metadata
     id="metadata1">
    <rdf:RDF>
      <cc:Work
         rdf:about="">
        <dc:format>image/svg+xml</dc:format>
        <dc:type
           rdf:resource="http://purl.org/dc/dcmitype/StillImage" />
        <dc:title />
      </cc:Work>
    </rdf:RDF>
  </metadata>
  <g
     fill="#363636"
     stroke-linecap="round"
     stroke-linejoin="round"
     stroke-width="2.47037"
     style="paint-order:stroke fill markers"
     aria-label=""
     id="g1"
     transform="matrix(0.81,0,0,0.81,0.95052725,1.52)">
    <path
       d="m 8.8328,5.1704 c 0.37518,0.37518 0.66438,0.80768 0.86761,1.2975 0.20323,0.48982 0.30484,1.0005 0.30484,1.532 0,0.53151 -0.10161,1.0422 -0.30484,1.532 -0.20323,0.48982 -0.49243,0.92232 -0.86761,1.2975 L 8.12933,10.12593 C 8.41072,9.84454 8.62697,9.52147 8.77808,9.15671 8.92919,8.78674 9.00475,8.40114 9.00475,7.99991 9.00475,7.59867 8.929193,7.21567 8.77808,6.85091 8.62697,6.48094 8.41072,6.15526 8.12933,5.87387 Z M 5.292,1.997 H 6.00328 V 14.003 H 5.292 L 2.2905,11.0015 H 3e-4 V 4.9986 H 2.2905 Z M 5.0028,3.7088 2.7126,5.999 H 1.0008 v 4.0019 h 1.7118 l 2.2902,2.2902 z"
       fill="currentColor"
       class="ColorScheme-Text"
       stroke-width="2.47037"
       id="path1" />
  </g>
  <path
     d="m 12.273792,2.270262 c 0.379874,0.3798738 0.715432,0.7914105 1.006668,1.234602 0.295456,0.4431834 0.544482,0.909549 0.747079,1.399194 0.202597,0.4853925 0.354545,0.98982 0.455844,1.513161 0.105519,0.5191614 0.158282,1.046763 0.158282,1.582821 0,0.5360418 -0.05277,1.065717 -0.158282,1.589139 -0.101299,0.519161 -0.253247,1.023516 -0.455844,1.513161 -0.202597,0.485393 -0.451623,0.949725 -0.747079,1.392876 -0.291236,0.443183 -0.626786,0.854712 -1.006668,1.234602 l -0.569811,-0.569811 c 0.341885,-0.341885 0.643667,-0.71122 0.905337,-1.107999 0.265915,-0.400974 0.489613,-0.820935 0.67111,-1.259874 0.181496,-0.438939 0.31867,-0.8927007 0.411528,-1.3612047 0.09708,-0.4727322 0.145622,-0.949725 0.145622,-1.430865 0,-0.4811724 -0.04855,-0.956043 -0.145622,-1.424547 C 13.599098,6.1027851 13.461924,5.6469333 13.280428,5.2079943 13.098931,4.769031 12.875233,4.3511763 12.609318,3.9544383 12.347632,3.553464 12.04585,3.1820223 11.703981,2.8401213 Z M 10.55805,3.986004 c 0.265915,0.2659149 0.500167,0.5550282 0.702764,0.867348 0.206817,0.3081159 0.379874,0.6331203 0.519161,0.974997 0.143508,0.3418848 0.251141,0.6964218 0.322891,1.063611 0.07597,0.3672135 0.113959,0.7365411 0.113959,1.107999 0,0.3756537 -0.03799,0.7470873 -0.113959,1.114317 -0.07176,0.3629853 -0.179383,0.7154163 -0.322891,1.057293 -0.139287,0.341885 -0.312344,0.668987 -0.519161,0.981315 -0.202597,0.308116 -0.436849,0.595131 -0.702764,0.86103 L 9.9819128,11.437777 c 0.4558442,-0.455843 0.8061692,-0.981315 1.0509752,-1.5765028 0.249026,-0.5951313 0.37354,-1.215567 0.37354,-1.86138 0,-0.645813 -0.124514,-1.266273 -0.37354,-1.86138 -0.244806,-0.5951313 -0.595131,-1.120635 -1.0509752,-1.576503 z"
     fill="currentColor"
     class="ColorScheme-Text"
     opacity="0.35"
     stroke-width="1.8009"
     style="paint-order:stroke fill markers"
     id="path2" />
</svg>
