/* XPM */
static char * title_2_active_xpm[] = {
"5 23 7 1",
" 	c None",
".	c #989898",
"+	c #FFFF50",
"@	c #FFCA00",
"#	c #FFFFFF",
"$	c #D8D8D8",
"%	c #888888",
".....",
"+++++",
"@@@@@",
"@@@@@",
"@@@@@",
"@@@@@",
"@@@@@",
"@@@@@",
"@@@@@",
"@@@@@",
"@@@@@",
"@@@@@",
"@@@@@",
"@@@@@",
"@@@@@",
"@@@@@",
"@@@@@",
"@@@@@",
"@@@@@",
"@@@@@",
"#####",
"$$$$$",
"%%%%%"};
