/* XPM */
static char * menu_pressed_xpm[] = {
"14 25 7 1",
" 	c None",
".	c #5E5E5E",
"+	c #929292",
"@	c #ADADAD",
"#	c #B7B7B7",
"$	c #D5D5D5",
"%	c #767676",
"              ",
"              ",
"              ",
"              ",
"              ",
"              ",
"              ",
"              ",
"  ..........  ",
"  .++++++++.  ",
"   .+@@@@+.   ",
"    .+##$.    ",
"     .+$.     ",
"  ..........  ",
"  .++++$$$+.  ",
"  .%@@@@@%%.  ",
"  ..........  ",
"              ",
"              ",
"              ",
"              ",
"              ",
"              ",
"              ",
"              "};
