/* XPM */
static char * close_active_xpm[] = {
"20 24 145 2",
"  	c None",
". 	c #939393",
"+ 	c #FFFFFF",
"@ 	c #CECECE",
"# 	c #968385",
"$ 	c #6D4243",
"% 	c #561A1C",
"& 	c #591F21",
"* 	c #A79E9F",
"= 	c #541618",
"- 	c #5D181A",
"; 	c #722E2F",
"> 	c #86494A",
", 	c #854849",
"' 	c #722D2E",
") 	c #5C1719",
"! 	c #530C0F",
"~ 	c #701719",
"{ 	c #9E3638",
"] 	c #CD8082",
"^ 	c #F3DBDC",
"/ 	c #F2D9D9",
"( 	c #CC7C7E",
"_ 	c #9E3436",
": 	c #A79F9F",
"< 	c #5B1B1D",
"[ 	c #791618",
"} 	c #AF2225",
"| 	c #CC3336",
"1 	c #DF6668",
"2 	c #F1B5B6",
"3 	c #F0B3B3",
"4 	c #DE6364",
"5 	c #CB3234",
"6 	c #AF2124",
"7 	c #998687",
"8 	c #6A1417",
"9 	c #B52123",
"0 	c #D12224",
"a 	c #DF2628",
"b 	c #E83A3C",
"c 	c #EF6666",
"d 	c #EF6465",
"e 	c #E8393A",
"f 	c #DF2627",
"g 	c #8A4D4F",
"h 	c #991E21",
"i 	c #D22325",
"j 	c #E52426",
"k 	c #EF2627",
"l 	c #F4292A",
"m 	c #F63132",
"n 	c #E52526",
"o 	c #8B2A2D",
"p 	c #B12325",
"q 	c #E32B2C",
"r 	c #F22E2F",
"s 	c #F83233",
"t 	c #FB3737",
"u 	c #FB3A3B",
"v 	c #FB3B3B",
"w 	c #FB3838",
"x 	c #F83434",
"y 	c #F23030",
"z 	c #E32C2D",
"A 	c #B12426",
"B 	c #8C2A2D",
"C 	c #8E2F31",
"D 	c #B82B2C",
"E 	c #EF3839",
"F 	c #F93F40",
"G 	c #FC4848",
"H 	c #FD5353",
"I 	c #FD5C5C",
"J 	c #FD5D5D",
"K 	c #FD5555",
"L 	c #FC4B4B",
"M 	c #F94242",
"N 	c #EF3A3B",
"O 	c #B92D2E",
"P 	c #8F3032",
"Q 	c #9D5C5E",
"R 	c #AD3031",
"S 	c #F44849",
"T 	c #FB5354",
"U 	c #FD6262",
"V 	c #FD7272",
"W 	c #FD7F7F",
"X 	c #FE8080",
"Y 	c #FD7575",
"Z 	c #FD6565",
"` 	c #FB5757",
" .	c #F44B4B",
"..	c #AE3334",
"+.	c #9E5E5F",
"@.	c #B59C9D",
"#.	c #913132",
"$.	c #EF5858",
"%.	c #FC6868",
"&.	c #FD7979",
"*.	c #FD8B8B",
"=.	c #FE9999",
"-.	c #FD8D8E",
";.	c #FD7C7C",
">.	c #FC6B6B",
",.	c #EF5B5C",
"'.	c #933334",
").	c #93494A",
"!.	c #B95656",
"~.	c #FA7979",
"{.	c #FD9C9C",
"].	c #FEA7A7",
"^.	c #FEA8A8",
"/.	c #FD9E9E",
"(.	c #FD8E8E",
"_.	c #FA7C7C",
":.	c #BA595A",
"<.	c #954B4D",
"[.	c #9A5656",
"}.	c #C77778",
"|.	c #F79595",
"1.	c #FDA4A4",
"2.	c #FDADAD",
"3.	c #FDAEAE",
"4.	c #FDA6A6",
"5.	c #F89798",
"6.	c #C87B7B",
"7.	c #9C595A",
"8.	c #A2696A",
"9.	c #BB8686",
"0.	c #D69999",
"a.	c #E4A4A4",
"b.	c #E4A5A5",
"c.	c #D69B9B",
"d.	c #BC8888",
"e.	c #A46C6D",
"f.	c #CFCECF",
"g.	c #BCA9A9",
"h.	c #AF8687",
"i.	c #B18081",
"j.	c #B38384",
"k.	c #AF8788",
"l.	c #BDA9A9",
"m.	c #D2D2D2",
"n.	c #D1D1D1",
". . . . . . . . . . . . . . . . . . . . ",
"+ + + + + + + + + + + + + + + + + + + + ",
"@ @ @ @ @ @ @ @ @ @ @ @ @ @ @ @ @ @ @ @ ",
"@ @ @ @ @ @ @ @ @ @ @ @ @ @ @ @ @ @ @ @ ",
"@ @ @ @ @ @ @ @ @ @ @ @ @ @ @ @ @ @ @ @ ",
"@ @ @ @ @ @ @ # $ % & $ # @ @ @ @ @ @ @ ",
"@ @ @ @ @ * = - ; > , ' ) = * @ @ @ @ @ ",
"@ @ @ @ * ! ~ { ] ^ / ( _ ~ ! : @ @ @ @ ",
"@ @ @ @ < [ } | 1 2 3 4 5 6 [ < @ @ @ @ ",
"@ @ @ 7 8 9 0 a b c d e f 0 9 8 7 @ @ @ ",
"@ @ @ g h i j k l m m l k n i h g @ @ @ ",
"@ @ @ o p q r s t u v w x y z A B @ @ @ ",
"@ @ @ C D E F G H I J K L M N O P @ @ @ ",
"@ @ @ Q R S T U V W X Y Z `  ...+.@ @ @ ",
"@ @ @ @.#.$.%.&.*.=.=.-.;.>.,.'.@.@ @ @ ",
"@ @ @ @ ).!.~.*.{.].^./.(._.:.<.@ @ @ @ ",
"@ @ @ @ @ [.}.|.1.2.3.4.5.6.7.@ @ @ @ @ ",
"@ @ @ @ @ @ 8.9.0.a.b.c.d.e.@ @ @ @ @ @ ",
"@ @ @ @ @ @ f.g.h.i.j.k.l.f.@ @ @ @ @ @ ",
"@ @ @ @ @ @ @ @ @ m.n.@ @ @ @ @ @ @ @ @ ",
"@ @ @ @ @ @ @ @ @ @ @ @ @ @ @ @ @ @ @ @ ",
"@ @ @ @ @ @ @ @ @ @ @ @ @ @ @ @ @ @ @ @ ",
"@ @ @ @ @ @ @ @ @ @ @ @ @ @ @ @ @ @ @ @ ",
"@ @ @ @ @ @ @ @ @ @ @ @ @ @ @ @ @ @ @ @ "};
