/* XPM */
static char * close_prelight_xpm[] = {
"20 24 141 2",
"  	c None",
". 	c #939393",
"+ 	c #FFFFFF",
"@ 	c #CECECE",
"# 	c #978485",
"$ 	c #6D4244",
"% 	c #561A1C",
"& 	c #591F21",
"* 	c #A8A0A0",
"= 	c #541618",
"- 	c #5D181A",
"; 	c #722E2F",
"> 	c #86494A",
", 	c #854849",
"' 	c #722D2E",
") 	c #5C1719",
"! 	c #A89F9F",
"~ 	c #530C0F",
"{ 	c #701719",
"] 	c #9E3638",
"^ 	c #CD8082",
"/ 	c #F3DBDC",
"( 	c #F2D9D9",
"_ 	c #CC7C7E",
": 	c #9E3436",
"< 	c #A79F9F",
"[ 	c #5B1B1D",
"} 	c #791618",
"| 	c #AD2325",
"1 	c #B23031",
"2 	c #DF6668",
"3 	c #F1B5B6",
"4 	c #F0B3B3",
"5 	c #DE6364",
"6 	c #B12E30",
"7 	c #AD2224",
"8 	c #9A8788",
"9 	c #6A1417",
"0 	c #B52123",
"a 	c #B52526",
"b 	c #8B2828",
"c 	c #B23131",
"d 	c #EF6566",
"e 	c #EF6465",
"f 	c #8A4E4F",
"g 	c #991E21",
"h 	c #D22325",
"i 	c #E52426",
"j 	c #B52728",
"k 	c #8D2828",
"l 	c #B82C2D",
"m 	c #E52526",
"n 	c #8B2A2D",
"o 	c #B12325",
"p 	c #E32B2C",
"q 	c #F22E2F",
"r 	c #F83233",
"s 	c #BA2F2F",
"t 	c #8E2A2A",
"u 	c #BA3030",
"v 	c #F83434",
"w 	c #F23030",
"x 	c #E32C2D",
"y 	c #B12426",
"z 	c #8C2A2D",
"A 	c #8E2F31",
"B 	c #B82B2C",
"C 	c #EF3839",
"D 	c #F93F40",
"E 	c #FC4848",
"F 	c #BB3C3C",
"G 	c #8E2D2D",
"H 	c #BB3D3D",
"I 	c #FC4A4A",
"J 	c #F94242",
"K 	c #EF3A3B",
"L 	c #B92D2E",
"M 	c #8F3032",
"N 	c #9D5C5E",
"O 	c #AD3031",
"P 	c #F44849",
"Q 	c #FB5354",
"R 	c #BB4343",
"S 	c #8E2F2F",
"T 	c #BC5050",
"U 	c #BC5151",
"V 	c #8E3030",
"W 	c #BB4444",
"X 	c #FB5757",
"Y 	c #F44B4B",
"Z 	c #AE3334",
"` 	c #9E5E5F",
" .	c #B59C9D",
"..	c #913132",
"+.	c #EF5858",
"@.	c #D15152",
"#.	c #BC5656",
"$.	c #FE9898",
"%.	c #FE9999",
"&.	c #BC5757",
"*.	c #D15454",
"=.	c #EF5B5C",
"-.	c #933334",
";.	c #93494A",
">.	c #B95656",
",.	c #F37575",
"'.	c #D16868",
").	c #FD9C9C",
"!.	c #FEA7A7",
"~.	c #FEA8A8",
"{.	c #FD9E9E",
"].	c #D26A6A",
"^.	c #F47878",
"/.	c #BA595A",
"(.	c #954B4D",
"_.	c #9A5656",
":.	c #C77778",
"<.	c #F79595",
"[.	c #FDA4A4",
"}.	c #FDADAD",
"|.	c #FDAEAE",
"1.	c #FDA6A6",
"2.	c #F89798",
"3.	c #C87B7B",
"4.	c #9C595A",
"5.	c #A2696A",
"6.	c #BB8686",
"7.	c #D69999",
"8.	c #E4A4A4",
"9.	c #E4A5A5",
"0.	c #D69B9B",
"a.	c #BC8888",
"b.	c #A46C6D",
"c.	c #BCA8A8",
"d.	c #AF8687",
"e.	c #B18081",
"f.	c #B38384",
"g.	c #AF8788",
"h.	c #BDA8A8",
"i.	c #D2D2D2",
"j.	c #D1D1D1",
". . . . . . . . . . . . . . . . . . . . ",
"+ + + + + + + + + + + + + + + + + + + + ",
"@ @ @ @ @ @ @ @ @ @ @ @ @ @ @ @ @ @ @ @ ",
"@ @ @ @ @ @ @ @ @ @ @ @ @ @ @ @ @ @ @ @ ",
"@ @ @ @ @ @ @ @ @ @ @ @ @ @ @ @ @ @ @ @ ",
"@ @ @ @ @ @ @ # $ % & $ # @ @ @ @ @ @ @ ",
"@ @ @ @ @ * = - ; > , ' ) = ! @ @ @ @ @ ",
"@ @ @ @ * ~ { ] ^ / ( _ : { ~ < @ @ @ @ ",
"@ @ @ @ [ } | 1 2 3 4 5 6 7 } [ @ @ @ @ ",
"@ @ @ 8 9 0 a b c d e 1 b a 0 9 8 @ @ @ ",
"@ @ @ f g h i j k l l k j m h g f @ @ @ ",
"@ @ @ n o p q r s t t u v w x y z @ @ @ ",
"@ @ @ A B C D E F G G H I J K L M @ @ @ ",
"@ @ @ N O P Q R S T U V W X Y Z ` @ @ @ ",
"@ @ @  ...+.@.V #.$.%.&.V *.=.-. .@ @ @ ",
"@ @ @ @ ;.>.,.'.).!.~.{.].^./.(.@ @ @ @ ",
"@ @ @ @ @ _.:.<.[.}.|.1.2.3.4.@ @ @ @ @ ",
"@ @ @ @ @ @ 5.6.7.8.9.0.a.b.@ @ @ @ @ @ ",
"@ @ @ @ @ @ @ c.d.e.f.g.h.@ @ @ @ @ @ @ ",
"@ @ @ @ @ @ @ @ @ i.j.@ @ @ @ @ @ @ @ @ ",
"@ @ @ @ @ @ @ @ @ @ @ @ @ @ @ @ @ @ @ @ ",
"@ @ @ @ @ @ @ @ @ @ @ @ @ @ @ @ @ @ @ @ ",
"@ @ @ @ @ @ @ @ @ @ @ @ @ @ @ @ @ @ @ @ ",
"@ @ @ @ @ @ @ @ @ @ @ @ @ @ @ @ @ @ @ @ "};
