/* XPM */
static char * hide_active_xpm[] = {
"20 24 137 2",
"  	c None",
". 	c #939393",
"+ 	c #FFFFFF",
"@ 	c #CECECE",
"# 	c #978482",
"$ 	c #6F423F",
"% 	c #571915",
"& 	c #5A1E1A",
"* 	c #A89F9E",
"= 	c #601E16",
"- 	c #6A2217",
"; 	c #7F3D2E",
"> 	c #90594D",
", 	c #905A4E",
"' 	c #803E30",
") 	c #6A2318",
"! 	c #601D15",
"~ 	c #A99F9E",
"{ 	c #64170A",
"] 	c #893015",
"^ 	c #BB5F36",
"/ 	c #DC9F7C",
"( 	c #F4E4D3",
"_ 	c #F4E6D6",
": 	c #DDA280",
"< 	c #BB6038",
"[ 	c #893115",
"} 	c #6E2618",
"| 	c #983915",
"1 	c #CF652A",
"2 	c #DD7D3F",
"3 	c #E6A26F",
"4 	c #F3D6BB",
"5 	c #F3D8BD",
"6 	c #E7A472",
"7 	c #DE7E40",
"8 	c #CF652B",
"9 	c #9F8A85",
"0 	c #842F12",
"a 	c #D8712F",
"b 	c #E08037",
"c 	c #E58D41",
"d 	c #EA9F57",
"e 	c #EFB97F",
"f 	c #EFBA81",
"g 	c #EAA058",
"h 	c #E58D42",
"i 	c #E08038",
"j 	c #9C5E46",
"k 	c #B75A23",
"l 	c #E2873C",
"m 	c #E99745",
"n 	c #EEA44C",
"o 	c #F2AD54",
"p 	c #F4B45D",
"q 	c #F4B45E",
"r 	c #EEA44D",
"s 	c #9D5E46",
"t 	c #A95123",
"u 	c #CD7633",
"v 	c #EA9C49",
"w 	c #F1AD53",
"x 	c #F6B85A",
"y 	c #F8C05E",
"z 	c #FAC361",
"A 	c #F9C360",
"B 	c #F9BF5E",
"C 	c #A65727",
"D 	c #CF833B",
"E 	c #F1AE55",
"F 	c #F7BE5E",
"G 	c #FAC864",
"H 	c #FCCF68",
"I 	c #FCD46A",
"J 	c #FCD068",
"K 	c #FAC964",
"L 	c #D0833B",
"M 	c #A87350",
"N 	c #C3813A",
"O 	c #F5BC5E",
"P 	c #FACA67",
"Q 	c #FCD36C",
"R 	c #FDDB6F",
"S 	c #FDE071",
"T 	c #FDD46C",
"U 	c #FACB67",
"V 	c #C3813B",
"W 	c #A97350",
"X 	c #B7A294",
"Y 	c #A56C2E",
"Z 	c #F5C363",
"` 	c #FCD36D",
" .	c #FDDB71",
"..	c #FDE173",
"+.	c #FEE675",
"@.	c #FEE774",
"#.	c #FDE273",
"$.	c #FDDC71",
"%.	c #FCD46D",
"&.	c #F4C464",
"*.	c #A56C2F",
"=.	c #B7A394",
"-.	c #9B6834",
";.	c #C59B4B",
">.	c #FCD871",
",.	c #FDE074",
"'.	c #FFE676",
").	c #FEE775",
"!.	c #FFE875",
"~.	c #FDE174",
"{.	c #FCD971",
"].	c #C69C4C",
"^.	c #9C6934",
"/.	c #9A7132",
"(.	c #CDAD56",
"_.	c #FBE074",
":.	c #FEE676",
"<.	c #FEE776",
"[.	c #CEAF57",
"}.	c #9C7333",
"|.	c #9E7C42",
"1.	c #BC9F4D",
"2.	c #DEC463",
"3.	c #EED56C",
"4.	c #EED66D",
"5.	c #DFC563",
"6.	c #BFA24E",
"7.	c #A07F43",
"8.	c #CFCECE",
"9.	c #B6AA9C",
"0.	c #AA8F64",
"a.	c #B08E49",
"b.	c #B1914D",
"c.	c #AA9065",
"d.	c #B7AA9C",
"e.	c #D2D2D2",
"f.	c #D1D1D1",
". . . . . . . . . . . . . . . . . . . . ",
"+ + + + + + + + + + + + + + + + + + + + ",
"@ @ @ @ @ @ @ @ @ @ @ @ @ @ @ @ @ @ @ @ ",
"@ @ @ @ @ @ @ @ @ @ @ @ @ @ @ @ @ @ @ @ ",
"@ @ @ @ @ @ @ @ @ @ @ @ @ @ @ @ @ @ @ @ ",
"@ @ @ @ @ @ @ # $ % & $ # @ @ @ @ @ @ @ ",
"@ @ @ @ @ * = - ; > , ' ) ! * @ @ @ @ @ ",
"@ @ @ @ ~ { ] ^ / ( _ : < [ { ~ @ @ @ @ ",
"@ @ @ @ } | 1 2 3 4 5 6 7 8 | } @ @ @ @ ",
"@ @ @ 9 0 a b c d e f g h i a 0 9 @ @ @ ",
"@ @ @ j k l m n o p q o r m l k s @ @ @ ",
"@ @ @ t u v w x y z A B x w v u t @ @ @ ",
"@ @ @ C D E F G H I I J K F E L C @ @ @ ",
"@ @ @ M N O P Q R S S R T U O V W @ @ @ ",
"@ @ @ X Y Z `  ...+.@.#.$.%.&.*.=.@ @ @ ",
"@ @ @ @ -.;.>.,.'.).!.'.~.{.].^.@ @ @ @ ",
"@ @ @ @ @ /.(._.:.).<.:._.[.}.@ @ @ @ @ ",
"@ @ @ @ @ @ |.1.2.3.4.5.6.7.@ @ @ @ @ @ ",
"@ @ @ @ @ @ 8.9.0.a.b.c.d.8.@ @ @ @ @ @ ",
"@ @ @ @ @ @ @ @ @ e.f.@ @ @ @ @ @ @ @ @ ",
"@ @ @ @ @ @ @ @ @ @ @ @ @ @ @ @ @ @ @ @ ",
"@ @ @ @ @ @ @ @ @ @ @ @ @ @ @ @ @ @ @ @ ",
"@ @ @ @ @ @ @ @ @ @ @ @ @ @ @ @ @ @ @ @ ",
"@ @ @ @ @ @ @ @ @ @ @ @ @ @ @ @ @ @ @ @ "};
