/* XPM */
static char * hide_prelight_xpm[] = {
"20 24 136 2",
"  	c None",
". 	c #939393",
"+ 	c #FFFFFF",
"@ 	c #CECECE",
"# 	c #988583",
"$ 	c #70433F",
"% 	c #571915",
"& 	c #5A1E1A",
"* 	c #A9A09F",
"= 	c #611E16",
"- 	c #6A2217",
"; 	c #7F3D2E",
"> 	c #90594D",
", 	c #905A4E",
"' 	c #803E30",
") 	c #6A2318",
"! 	c #601D15",
"~ 	c #AAA19F",
"{ 	c #64170A",
"] 	c #893015",
"^ 	c #BB5F36",
"/ 	c #DC9F7C",
"( 	c #F4E4D3",
"_ 	c #F4E6D6",
": 	c #DDA280",
"< 	c #BB6038",
"[ 	c #893115",
"} 	c #6E2618",
"| 	c #983915",
"1 	c #CF652A",
"2 	c #DD7D3F",
"3 	c #E6A26F",
"4 	c #F3D6BB",
"5 	c #F3D8BD",
"6 	c #E7A472",
"7 	c #DE7E40",
"8 	c #CF662A",
"9 	c #A08A86",
"0 	c #842F12",
"a 	c #D8712F",
"b 	c #E08037",
"c 	c #E58D41",
"d 	c #EA9F57",
"e 	c #EFB97F",
"f 	c #EFBA81",
"g 	c #EAA058",
"h 	c #E58D42",
"i 	c #E08038",
"j 	c #9C5E46",
"k 	c #B75A23",
"l 	c #E2873C",
"m 	c #E49344",
"n 	c #E79D49",
"o 	c #EAA650",
"p 	c #ECAC59",
"q 	c #ECAD5A",
"r 	c #EAA651",
"s 	c #E79D4A",
"t 	c #9D5E46",
"u 	c #A95123",
"v 	c #CD7633",
"w 	c #EA9C49",
"x 	c #98552B",
"y 	c #803F21",
"z 	c #814022",
"A 	c #814122",
"B 	c #A65727",
"C 	c #CF833B",
"D 	c #F1AE55",
"E 	c #995B2F",
"F 	c #814223",
"G 	c #814324",
"H 	c #814424",
"I 	c #9A5B2F",
"J 	c #D0833B",
"K 	c #A87350",
"L 	c #C3813A",
"M 	c #F5BC5E",
"N 	c #D8A453",
"O 	c #D0A052",
"P 	c #D1A554",
"Q 	c #D1A956",
"R 	c #D0A956",
"S 	c #D1A555",
"T 	c #D0A053",
"U 	c #D8A454",
"V 	c #C3813B",
"W 	c #A97350",
"X 	c #B7A294",
"Y 	c #A56C2E",
"Z 	c #F5C363",
"` 	c #FCD36D",
" .	c #FDDB71",
"..	c #FDE173",
"+.	c #FEE675",
"@.	c #FEE774",
"#.	c #FDE273",
"$.	c #FDDC71",
"%.	c #FCD46D",
"&.	c #F4C464",
"*.	c #A56C2F",
"=.	c #B7A394",
"-.	c #9B6834",
";.	c #C59B4B",
">.	c #FCD871",
",.	c #FDE074",
"'.	c #FFE676",
").	c #FEE775",
"!.	c #FFE875",
"~.	c #FDE174",
"{.	c #FCD971",
"].	c #C69C4C",
"^.	c #9C6934",
"/.	c #9A7132",
"(.	c #CDAD56",
"_.	c #FBE074",
":.	c #FEE676",
"<.	c #FEE776",
"[.	c #CEAF57",
"}.	c #9C7333",
"|.	c #9E7C42",
"1.	c #BC9F4D",
"2.	c #DEC463",
"3.	c #EED56C",
"4.	c #EED66D",
"5.	c #DFC563",
"6.	c #BFA24E",
"7.	c #A07F43",
"8.	c #B6AA9C",
"9.	c #AA8F64",
"0.	c #B08E49",
"a.	c #B1914D",
"b.	c #AA9065",
"c.	c #B7AA9C",
"d.	c #D2D2D2",
"e.	c #D1D1D1",
". . . . . . . . . . . . . . . . . . . . ",
"+ + + + + + + + + + + + + + + + + + + + ",
"@ @ @ @ @ @ @ @ @ @ @ @ @ @ @ @ @ @ @ @ ",
"@ @ @ @ @ @ @ @ @ @ @ @ @ @ @ @ @ @ @ @ ",
"@ @ @ @ @ @ @ @ @ @ @ @ @ @ @ @ @ @ @ @ ",
"@ @ @ @ @ @ @ # $ % & $ # @ @ @ @ @ @ @ ",
"@ @ @ @ @ * = - ; > , ' ) ! * @ @ @ @ @ ",
"@ @ @ @ ~ { ] ^ / ( _ : < [ { ~ @ @ @ @ ",
"@ @ @ @ } | 1 2 3 4 5 6 7 8 | } @ @ @ @ ",
"@ @ @ 9 0 a b c d e f g h i a 0 9 @ @ @ ",
"@ @ @ j k l m n o p q r s m l k t @ @ @ ",
"@ @ @ u v w x y z A A z y x w v u @ @ @ ",
"@ @ @ B C D E F G H H H F I D J B @ @ @ ",
"@ @ @ K L M N O P Q R S T U M V W @ @ @ ",
"@ @ @ X Y Z `  ...+.@.#.$.%.&.*.=.@ @ @ ",
"@ @ @ @ -.;.>.,.'.).!.'.~.{.].^.@ @ @ @ ",
"@ @ @ @ @ /.(._.:.).<.:._.[.}.@ @ @ @ @ ",
"@ @ @ @ @ @ |.1.2.3.4.5.6.7.@ @ @ @ @ @ ",
"@ @ @ @ @ @ @ 8.9.0.a.b.c.@ @ @ @ @ @ @ ",
"@ @ @ @ @ @ @ @ @ d.e.@ @ @ @ @ @ @ @ @ ",
"@ @ @ @ @ @ @ @ @ @ @ @ @ @ @ @ @ @ @ @ ",
"@ @ @ @ @ @ @ @ @ @ @ @ @ @ @ @ @ @ @ @ ",
"@ @ @ @ @ @ @ @ @ @ @ @ @ @ @ @ @ @ @ @ ",
"@ @ @ @ @ @ @ @ @ @ @ @ @ @ @ @ @ @ @ @ "};
