/* XPM */
static char * hide_inactive_xpm[] = {
"20 24 135 2",
"  	c None",
". 	c #939393",
"+ 	c #FFFFFF",
"@ 	c #CECECE",
"# 	c #988583",
"$ 	c #70433F",
"% 	c #571915",
"& 	c #5A1E1A",
"* 	c #A9A09F",
"= 	c #611E16",
"- 	c #6A2217",
"; 	c #7F3D2E",
"> 	c #90594D",
", 	c #905A4E",
"' 	c #803E30",
") 	c #6A2318",
"! 	c #601D15",
"~ 	c #AAA19F",
"{ 	c #64170A",
"] 	c #893015",
"^ 	c #BB5F36",
"/ 	c #DC9F7C",
"( 	c #F4E4D3",
"_ 	c #F4E6D6",
": 	c #DDA280",
"< 	c #BB6038",
"[ 	c #893115",
"} 	c #6E2618",
"| 	c #983915",
"1 	c #CF652A",
"2 	c #DD7D3F",
"3 	c #E6A26F",
"4 	c #F3D6BB",
"5 	c #F3D8BD",
"6 	c #E7A472",
"7 	c #DE7E40",
"8 	c #CF652B",
"9 	c #A08A86",
"0 	c #842F12",
"a 	c #D8712F",
"b 	c #E08037",
"c 	c #E58D41",
"d 	c #EA9F57",
"e 	c #EFB97F",
"f 	c #EFBA81",
"g 	c #EAA058",
"h 	c #E58D42",
"i 	c #E08038",
"j 	c #9D5E46",
"k 	c #B75A23",
"l 	c #E2873C",
"m 	c #E99745",
"n 	c #EEA44C",
"o 	c #F2AD54",
"p 	c #F4B45D",
"q 	c #F4B45E",
"r 	c #EEA44D",
"s 	c #A95123",
"t 	c #CD7633",
"u 	c #EA9C49",
"v 	c #F1AD53",
"w 	c #F6B85A",
"x 	c #F8C05E",
"y 	c #FAC361",
"z 	c #F9C360",
"A 	c #F9BF5E",
"B 	c #A65727",
"C 	c #CF833B",
"D 	c #F1AE55",
"E 	c #F7BE5E",
"F 	c #FAC864",
"G 	c #FCCF68",
"H 	c #FCD46A",
"I 	c #FCD068",
"J 	c #FAC964",
"K 	c #D0833B",
"L 	c #A87350",
"M 	c #C3813A",
"N 	c #F5BC5E",
"O 	c #FACA67",
"P 	c #FCD36C",
"Q 	c #FDDB6F",
"R 	c #FDE071",
"S 	c #FDD46C",
"T 	c #FACB67",
"U 	c #C3813B",
"V 	c #A97350",
"W 	c #B7A294",
"X 	c #A56C2E",
"Y 	c #F5C363",
"Z 	c #FCD36D",
"` 	c #FDDB71",
" .	c #FDE173",
"..	c #FEE675",
"+.	c #FEE774",
"@.	c #FDE273",
"#.	c #FDDC71",
"$.	c #FCD46D",
"%.	c #F4C464",
"&.	c #A56C2F",
"*.	c #B7A394",
"=.	c #9B6834",
"-.	c #C59B4B",
";.	c #FCD871",
">.	c #FDE074",
",.	c #FFE676",
"'.	c #FEE775",
").	c #FFE875",
"!.	c #FDE174",
"~.	c #FCD971",
"{.	c #C69C4C",
"].	c #9C6934",
"^.	c #9A7132",
"/.	c #CDAD56",
"(.	c #FBE074",
"_.	c #FEE676",
":.	c #FEE776",
"<.	c #CEAF57",
"[.	c #9C7333",
"}.	c #9E7C42",
"|.	c #BC9F4D",
"1.	c #DEC463",
"2.	c #EED56C",
"3.	c #EED66D",
"4.	c #DFC563",
"5.	c #BFA24E",
"6.	c #A07F43",
"7.	c #B6AA9C",
"8.	c #AA8F64",
"9.	c #B08E49",
"0.	c #B1914D",
"a.	c #AA9065",
"b.	c #B7AA9C",
"c.	c #D2D2D2",
"d.	c #D1D1D1",
". . . . . . . . . . . . . . . . . . . . ",
"+ + + + + + + + + + + + + + + + + + + + ",
"@ @ @ @ @ @ @ @ @ @ @ @ @ @ @ @ @ @ @ @ ",
"@ @ @ @ @ @ @ @ @ @ @ @ @ @ @ @ @ @ @ @ ",
"@ @ @ @ @ @ @ @ @ @ @ @ @ @ @ @ @ @ @ @ ",
"@ @ @ @ @ @ @ # $ % & $ # @ @ @ @ @ @ @ ",
"@ @ @ @ @ * = - ; > , ' ) ! * @ @ @ @ @ ",
"@ @ @ @ ~ { ] ^ / ( _ : < [ { ~ @ @ @ @ ",
"@ @ @ @ } | 1 2 3 4 5 6 7 8 | } @ @ @ @ ",
"@ @ @ 9 0 a b c d e f g h i a 0 9 @ @ @ ",
"@ @ @ j k l m n o p q o r m l k j @ @ @ ",
"@ @ @ s t u v w x y z A w v u t s @ @ @ ",
"@ @ @ B C D E F G H H I J E D K B @ @ @ ",
"@ @ @ L M N O P Q R R Q S T N U V @ @ @ ",
"@ @ @ W X Y Z `  ...+.@.#.$.%.&.*.@ @ @ ",
"@ @ @ @ =.-.;.>.,.'.).,.!.~.{.].@ @ @ @ ",
"@ @ @ @ @ ^./.(._.'.:._.(.<.[.@ @ @ @ @ ",
"@ @ @ @ @ @ }.|.1.2.3.4.5.6.@ @ @ @ @ @ ",
"@ @ @ @ @ @ @ 7.8.9.0.a.b.@ @ @ @ @ @ @ ",
"@ @ @ @ @ @ @ @ @ c.d.@ @ @ @ @ @ @ @ @ ",
"@ @ @ @ @ @ @ @ @ @ @ @ @ @ @ @ @ @ @ @ ",
"@ @ @ @ @ @ @ @ @ @ @ @ @ @ @ @ @ @ @ @ ",
"@ @ @ @ @ @ @ @ @ @ @ @ @ @ @ @ @ @ @ @ ",
"@ @ @ @ @ @ @ @ @ @ @ @ @ @ @ @ @ @ @ @ "};
