/* XPM */
static char * maximize_active_xpm[] = {
"20 24 153 2",
"  	c None",
". 	c #939393",
"+ 	c #FFFFFF",
"@ 	c #CECECE",
"# 	c #878E84",
"$ 	c #485942",
"% 	c #213919",
"& 	c #243C1D",
"* 	c #465840",
"= 	c #A0A49F",
"- 	c #1D3615",
"; 	c #203E15",
"> 	c #345929",
", 	c #4A6E40",
"' 	c #476B3D",
") 	c #305524",
"! 	c #1D3B12",
"~ 	c #1D3514",
"{ 	c #A1A4A0",
"] 	c #142E09",
"^ 	c #254C14",
"/ 	c #528337",
"( 	c #97B982",
"_ 	c #DFEBD5",
": 	c #D4E4C8",
"< 	c #87AE6E",
"[ 	c #4B7E2E",
"} 	c #234B12",
"| 	c #132E09",
"1 	c #213717",
"2 	c #285014",
"3 	c #54912D",
"4 	c #6AA642",
"5 	c #92C073",
"6 	c #C9E1B7",
"7 	c #BFDBAB",
"8 	c #85B863",
"9 	c #65A23B",
"0 	c #52902C",
"a 	c #899086",
"b 	c #1F3A10",
"c 	c #5C9C33",
"d 	c #69AD3B",
"e 	c #6FB441",
"f 	c #7EBE54",
"g 	c #99CC77",
"h 	c #94CA70",
"i 	c #79BB4E",
"j 	c #6EB340",
"k 	c #546948",
"l 	c #416F25",
"m 	c #73B844",
"n 	c #77BE47",
"o 	c #7BC149",
"p 	c #7FC44C",
"q 	c #84C852",
"r 	c #83C651",
"s 	c #7DC44B",
"t 	c #7AC149",
"u 	c #72B743",
"v 	c #406E25",
"w 	c #345724",
"x 	c #5B9137",
"y 	c #7FC44E",
"z 	c #84C850",
"A 	c #88CB52",
"B 	c #8CCD54",
"C 	c #90CF56",
"D 	c #90CF55",
"E 	c #8BCD54",
"F 	c #87CB52",
"G 	c #83C850",
"H 	c #599037",
"I 	c #345723",
"J 	c #395B28",
"K 	c #63993E",
"L 	c #8BCC56",
"M 	c #90CF58",
"N 	c #96D25B",
"O 	c #9FD660",
"P 	c #A7D964",
"Q 	c #A6D963",
"R 	c #9ED65F",
"S 	c #95D15B",
"T 	c #8ECE58",
"U 	c #8ACB56",
"V 	c #62973D",
"W 	c #385A28",
"X 	c #647C56",
"Y 	c #5A8938",
"Z 	c #93D05C",
"` 	c #9BD460",
" .	c #A5D964",
"..	c #B1DE6C",
"+.	c #BAE274",
"@.	c #BAE273",
"#.	c #AFDE6B",
"$.	c #A2D864",
"%.	c #99D45F",
"&.	c #92D05B",
"*.	c #598838",
"=.	c #637B56",
"-.	c #9FA99A",
";.	c #436829",
">.	c #96CD5F",
",.	c #A5D866",
"'.	c #B0DE6E",
").	c #BDE476",
"!.	c #C6E77E",
"~.	c #C5E77E",
"{.	c #BBE375",
"].	c #AEDD6C",
"^.	c #A2D865",
"/.	c #95CC5E",
"(.	c #416628",
"_.	c #A0A99A",
":.	c #506F37",
"<.	c #709946",
"[.	c #A9D96B",
"}.	c #B6E073",
"|.	c #C2E67C",
"1.	c #C9E982",
"2.	c #C8E982",
"3.	c #C0E47A",
"4.	c #B4DF72",
"5.	c #A7D86A",
"6.	c #6E9644",
"7.	c #4E6D35",
"8.	c #577835",
"9.	c #85A953",
"0.	c #B1D971",
"a.	c #BEE27A",
"b.	c #C5E580",
"c.	c #C4E57F",
"d.	c #BDE279",
"e.	c #B0D870",
"f.	c #82A751",
"g.	c #547533",
"h.	c #678546",
"i.	c #7D9B4E",
"j.	c #98B861",
"k.	c #A7C76C",
"l.	c #A7C76B",
"m.	c #96B760",
"n.	c #7B994C",
"o.	c #658344",
"p.	c #AAB4A3",
"q.	c #849A6B",
"r.	c #75934D",
"s.	c #779450",
"t.	c #83996B",
"u.	c #D2D2D2",
"v.	c #D1D1D1",
". . . . . . . . . . . . . . . . . . . . ",
"+ + + + + + + + + + + + + + + + + + + + ",
"@ @ @ @ @ @ @ @ @ @ @ @ @ @ @ @ @ @ @ @ ",
"@ @ @ @ @ @ @ @ @ @ @ @ @ @ @ @ @ @ @ @ ",
"@ @ @ @ @ @ @ @ @ @ @ @ @ @ @ @ @ @ @ @ ",
"@ @ @ @ @ @ @ # $ % & * # @ @ @ @ @ @ @ ",
"@ @ @ @ @ = - ; > , ' ) ! ~ = @ @ @ @ @ ",
"@ @ @ @ { ] ^ / ( _ : < [ } | { @ @ @ @ ",
"@ @ @ @ 1 2 3 4 5 6 7 8 9 0 2 1 @ @ @ @ ",
"@ @ @ a b c d e f g h i j d c b a @ @ @ ",
"@ @ @ k l m n o p q r s t n u v k @ @ @ ",
"@ @ @ w x y z A B C D E F G y H I @ @ @ ",
"@ @ @ J K L M N O P Q R S T U V W @ @ @ ",
"@ @ @ X Y Z `  ...+.@.#.$.%.&.*.=.@ @ @ ",
"@ @ @ -.;.>.,.'.).!.~.{.].^./.(._.@ @ @ ",
"@ @ @ @ :.<.[.}.|.1.2.3.4.5.6.7.@ @ @ @ ",
"@ @ @ @ @ 8.9.0.a.b.c.d.e.f.g.@ @ @ @ @ ",
"@ @ @ @ @ @ h.i.j.k.l.m.n.o.@ @ @ @ @ @ ",
"@ @ @ @ @ @ @ p.q.r.s.t.p.@ @ @ @ @ @ @ ",
"@ @ @ @ @ @ @ @ @ u.v.@ @ @ @ @ @ @ @ @ ",
"@ @ @ @ @ @ @ @ @ @ @ @ @ @ @ @ @ @ @ @ ",
"@ @ @ @ @ @ @ @ @ @ @ @ @ @ @ @ @ @ @ @ ",
"@ @ @ @ @ @ @ @ @ @ @ @ @ @ @ @ @ @ @ @ ",
"@ @ @ @ @ @ @ @ @ @ @ @ @ @ @ @ @ @ @ @ "};
