/* XPM */
static char * maximize_pressede_xpm[] = {
"20 24 139 2",
"  	c None",
". 	c #939393",
"+ 	c #FFFFFF",
"@ 	c #CECECE",
"# 	c #878E84",
"$ 	c #485942",
"% 	c #213919",
"& 	c #243C1D",
"* 	c #465840",
"= 	c #A0A49F",
"- 	c #1D3615",
"; 	c #203E15",
"> 	c #345929",
", 	c #4A6E40",
"' 	c #476B3D",
") 	c #305524",
"! 	c #1D3B12",
"~ 	c #1D3514",
"{ 	c #A1A4A0",
"] 	c #142E09",
"^ 	c #254C14",
"/ 	c #528337",
"( 	c #97B982",
"_ 	c #DFEBD5",
": 	c #D4E4C8",
"< 	c #87AE6E",
"[ 	c #4B7E2E",
"} 	c #234B12",
"| 	c #132E09",
"1 	c #213717",
"2 	c #285014",
"3 	c #54912D",
"4 	c #6AA642",
"5 	c #89B56B",
"6 	c #3F5030",
"7 	c #3D502E",
"8 	c #82B35F",
"9 	c #65A23B",
"0 	c #52902C",
"a 	c #899086",
"b 	c #1F3A10",
"c 	c #5C9C33",
"d 	c #69AD3B",
"e 	c #6FB441",
"f 	c #74AE4D",
"g 	c #283A19",
"h 	c #273A19",
"i 	c #74B44B",
"j 	c #6EB340",
"k 	c #546948",
"l 	c #416F25",
"m 	c #73B844",
"n 	c #76BB45",
"o 	c #78BB47",
"p 	c #70AE44",
"q 	c #273A17",
"r 	c #75B646",
"s 	c #77BB46",
"t 	c #75BB45",
"u 	c #72B743",
"v 	c #406E25",
"w 	c #345724",
"x 	c #5B9137",
"y 	c #7FC44E",
"z 	c #2E451B",
"A 	c #273A18",
"B 	c #30491D",
"C 	c #599037",
"D 	c #345723",
"E 	c #395B28",
"F 	c #63993E",
"G 	c #8BCC56",
"H 	c #2F451C",
"I 	c #283A18",
"J 	c #324A1E",
"K 	c #8ACB56",
"L 	c #62973D",
"M 	c #385A28",
"N 	c #647C56",
"O 	c #5A8938",
"P 	c #93D05C",
"Q 	c #8EC258",
"R 	c #93C25A",
"S 	c #8FB557",
"T 	c #293B19",
"U 	c #94BE5B",
"V 	c #90C259",
"W 	c #8CC357",
"X 	c #92D05B",
"Y 	c #598838",
"Z 	c #637B56",
"` 	c #9FA99A",
" .	c #436829",
"..	c #96CD5F",
"+.	c #A5D866",
"@.	c #B0DE6E",
"#.	c #ABCF6C",
"$.	c #B2D970",
"%.	c #AEDD6C",
"&.	c #A2D865",
"*.	c #95CC5E",
"=.	c #416628",
"-.	c #A0A99A",
";.	c #506F37",
">.	c #709946",
",.	c #A9D96B",
"'.	c #B6E073",
").	c #B2D471",
"!.	c #32441E",
"~.	c #B8DC76",
"{.	c #B4DF72",
"].	c #A7D86A",
"^.	c #6E9644",
"/.	c #4E6D35",
"(.	c #577835",
"_.	c #85A953",
":.	c #B1D971",
"<.	c #BEE27A",
"[.	c #C5E580",
"}.	c #C4E57F",
"|.	c #BDE279",
"1.	c #B0D870",
"2.	c #82A751",
"3.	c #547533",
"4.	c #678546",
"5.	c #7D9B4E",
"6.	c #98B861",
"7.	c #A7C76C",
"8.	c #A7C76B",
"9.	c #96B760",
"0.	c #7B994C",
"a.	c #658344",
"b.	c #AAB4A3",
"c.	c #849A6B",
"d.	c #75934D",
"e.	c #779450",
"f.	c #83996B",
"g.	c #D2D2D2",
"h.	c #D1D1D1",
". . . . . . . . . . . . . . . . . . . . ",
"+ + + + + + + + + + + + + + + + + + + + ",
"@ @ @ @ @ @ @ @ @ @ @ @ @ @ @ @ @ @ @ @ ",
"@ @ @ @ @ @ @ @ @ @ @ @ @ @ @ @ @ @ @ @ ",
"@ @ @ @ @ @ @ @ @ @ @ @ @ @ @ @ @ @ @ @ ",
"@ @ @ @ @ @ @ # $ % & * # @ @ @ @ @ @ @ ",
"@ @ @ @ @ = - ; > , ' ) ! ~ = @ @ @ @ @ ",
"@ @ @ @ { ] ^ / ( _ : < [ } | { @ @ @ @ ",
"@ @ @ @ 1 2 3 4 5 6 7 8 9 0 2 1 @ @ @ @ ",
"@ @ @ a b c d e f g h i j d c b a @ @ @ ",
"@ @ @ k l m n o p q q r s t u v k @ @ @ ",
"@ @ @ w x y z q q A A q q B y C D @ @ @ ",
"@ @ @ E F G H I I I I I A J K L M @ @ @ ",
"@ @ @ N O P Q R S T T U V W X Y Z @ @ @ ",
"@ @ @ `  ...+.@.#.T T $.%.&.*.=.-.@ @ @ ",
"@ @ @ @ ;.>.,.'.).!.!.~.{.].^./.@ @ @ @ ",
"@ @ @ @ @ (._.:.<.[.}.|.1.2.3.@ @ @ @ @ ",
"@ @ @ @ @ @ 4.5.6.7.8.9.0.a.@ @ @ @ @ @ ",
"@ @ @ @ @ @ @ b.c.d.e.f.b.@ @ @ @ @ @ @ ",
"@ @ @ @ @ @ @ @ @ g.h.@ @ @ @ @ @ @ @ @ ",
"@ @ @ @ @ @ @ @ @ @ @ @ @ @ @ @ @ @ @ @ ",
"@ @ @ @ @ @ @ @ @ @ @ @ @ @ @ @ @ @ @ @ ",
"@ @ @ @ @ @ @ @ @ @ @ @ @ @ @ @ @ @ @ @ ",
"@ @ @ @ @ @ @ @ @ @ @ @ @ @ @ @ @ @ @ @ "};
