/* XPM */
static char * maximize_prelight_xpm[] = {
"20 24 140 2",
"  	c None",
". 	c #939393",
"+ 	c #FFFFFF",
"@ 	c #CECECE",
"# 	c #878E84",
"$ 	c #485942",
"% 	c #213919",
"& 	c #243C1D",
"* 	c #465840",
"= 	c #A0A49F",
"- 	c #1D3615",
"; 	c #203E15",
"> 	c #345929",
", 	c #4A6E40",
"' 	c #476B3D",
") 	c #305524",
"! 	c #1D3B12",
"~ 	c #1D3514",
"{ 	c #A1A4A0",
"] 	c #142E09",
"^ 	c #254C14",
"/ 	c #528337",
"( 	c #97B982",
"_ 	c #DFEBD5",
": 	c #D4E4C8",
"< 	c #87AE6E",
"[ 	c #4B7E2E",
"} 	c #234B12",
"| 	c #132E09",
"1 	c #213717",
"2 	c #285014",
"3 	c #54912D",
"4 	c #6AA642",
"5 	c #89B56B",
"6 	c #3F5030",
"7 	c #3D502E",
"8 	c #82B35F",
"9 	c #65A23B",
"0 	c #52902C",
"a 	c #899086",
"b 	c #1F3A10",
"c 	c #5C9C33",
"d 	c #69AD3B",
"e 	c #6FB441",
"f 	c #74AE4D",
"g 	c #283A19",
"h 	c #273A19",
"i 	c #74B44B",
"j 	c #6EB340",
"k 	c #898F86",
"l 	c #546948",
"m 	c #416F25",
"n 	c #73B844",
"o 	c #76BB45",
"p 	c #78BB47",
"q 	c #70AE44",
"r 	c #273A17",
"s 	c #75B646",
"t 	c #77BB46",
"u 	c #75BB45",
"v 	c #72B743",
"w 	c #406E25",
"x 	c #345724",
"y 	c #5B9137",
"z 	c #7FC44E",
"A 	c #2E451B",
"B 	c #273A18",
"C 	c #30491D",
"D 	c #599037",
"E 	c #345723",
"F 	c #395B28",
"G 	c #63993E",
"H 	c #8BCC56",
"I 	c #2F451C",
"J 	c #283A18",
"K 	c #324A1E",
"L 	c #8ACB56",
"M 	c #62973D",
"N 	c #385A28",
"O 	c #647C56",
"P 	c #5A8938",
"Q 	c #93D05C",
"R 	c #8EC258",
"S 	c #93C25A",
"T 	c #8FB557",
"U 	c #293B19",
"V 	c #94BE5B",
"W 	c #90C259",
"X 	c #8CC357",
"Y 	c #92D05B",
"Z 	c #598838",
"` 	c #637B56",
" .	c #9FA99A",
"..	c #436829",
"+.	c #96CD5F",
"@.	c #A5D866",
"#.	c #B0DE6E",
"$.	c #ABCF6C",
"%.	c #B2D970",
"&.	c #AEDD6C",
"*.	c #A2D865",
"=.	c #95CC5E",
"-.	c #416628",
";.	c #A0A99A",
">.	c #506F37",
",.	c #709946",
"'.	c #A9D96B",
").	c #B6E073",
"!.	c #B2D471",
"~.	c #32441E",
"{.	c #B8DC76",
"].	c #B4DF72",
"^.	c #A7D86A",
"/.	c #6E9644",
"(.	c #4E6D35",
"_.	c #577835",
":.	c #85A953",
"<.	c #B1D971",
"[.	c #BEE27A",
"}.	c #C5E580",
"|.	c #C4E57F",
"1.	c #BDE279",
"2.	c #B0D870",
"3.	c #82A751",
"4.	c #547533",
"5.	c #678546",
"6.	c #7D9B4E",
"7.	c #98B861",
"8.	c #A7C76C",
"9.	c #A7C76B",
"0.	c #96B760",
"a.	c #7B994C",
"b.	c #658344",
"c.	c #AAB4A3",
"d.	c #849A6B",
"e.	c #75934D",
"f.	c #779450",
"g.	c #83996B",
"h.	c #D2D2D2",
"i.	c #D1D1D1",
". . . . . . . . . . . . . . . . . . . . ",
"+ + + + + + + + + + + + + + + + + + + + ",
"@ @ @ @ @ @ @ @ @ @ @ @ @ @ @ @ @ @ @ @ ",
"@ @ @ @ @ @ @ @ @ @ @ @ @ @ @ @ @ @ @ @ ",
"@ @ @ @ @ @ @ @ @ @ @ @ @ @ @ @ @ @ @ @ ",
"@ @ @ @ @ @ @ # $ % & * # @ @ @ @ @ @ @ ",
"@ @ @ @ @ = - ; > , ' ) ! ~ = @ @ @ @ @ ",
"@ @ @ @ { ] ^ / ( _ : < [ } | { @ @ @ @ ",
"@ @ @ @ 1 2 3 4 5 6 7 8 9 0 2 1 @ @ @ @ ",
"@ @ @ a b c d e f g h i j d c b k @ @ @ ",
"@ @ @ l m n o p q r r s t u v w l @ @ @ ",
"@ @ @ x y z A r r B B r r C z D E @ @ @ ",
"@ @ @ F G H I J J J J J B K L M N @ @ @ ",
"@ @ @ O P Q R S T U U V W X Y Z ` @ @ @ ",
"@ @ @  ...+.@.#.$.U U %.&.*.=.-.;.@ @ @ ",
"@ @ @ @ >.,.'.).!.~.~.{.].^./.(.@ @ @ @ ",
"@ @ @ @ @ _.:.<.[.}.|.1.2.3.4.@ @ @ @ @ ",
"@ @ @ @ @ @ 5.6.7.8.9.0.a.b.@ @ @ @ @ @ ",
"@ @ @ @ @ @ @ c.d.e.f.g.c.@ @ @ @ @ @ @ ",
"@ @ @ @ @ @ @ @ @ h.i.@ @ @ @ @ @ @ @ @ ",
"@ @ @ @ @ @ @ @ @ @ @ @ @ @ @ @ @ @ @ @ ",
"@ @ @ @ @ @ @ @ @ @ @ @ @ @ @ @ @ @ @ @ ",
"@ @ @ @ @ @ @ @ @ @ @ @ @ @ @ @ @ @ @ @ ",
"@ @ @ @ @ @ @ @ @ @ @ @ @ @ @ @ @ @ @ @ "};
