/* XPM */
static char * menu_inactive_xpm[] = {
"20 24 56 1",
" 	c None",
".	c #939393",
"+	c #FFFFFF",
"@	c #CECECE",
"#	c #B3B3B3",
"$	c #979797",
"%	c #8A8A8A",
"&	c #8C8C8C",
"*	c #A2A2A2",
"=	c #BDBCBD",
"-	c #D0D0D0",
";	c #BCBCBC",
">	c #B8B8B8",
",	c #CACACA",
"'	c #D1D1D1",
")	c #CDCDCD",
"!	c #C9C9C9",
"~	c #989798",
"{	c #9B9B9B",
"]	c #B5B5B5",
"^	c #C8C8C8",
"/	c #C6C7C6",
"(	c #C7C7C7",
"_	c #B4B4B4",
":	c #BEBDBE",
"<	c #C1C1C1",
"[	c #BFBFBF",
"}	c #BEBEBE",
"|	c #C0C0C0",
"1	c #C1C0C0",
"2	c #BDBDBD",
"3	c #939292",
"4	c #949494",
"5	c #C4C4C4",
"6	c #C3C3C3",
"7	c #C3C4C4",
"8	c #B9B9B9",
"9	c #CBCBCA",
"0	c #CCCCCC",
"a	c #CBCBCB",
"b	c #CACACB",
"c	c #A0A0A1",
"d	c #D8D8D8",
"e	c #D7D7D7",
"f	c #A1A0A0",
"g	c #A4A4A4",
"h	c #D4D4D4",
"i	c #A3A4A3",
"j	c #A7A7A7",
"k	c #9A9A9A",
"l	c #9C9C9C",
"m	c #99999A",
"n	c #9A9A99",
"o	c #9A9999",
"p	c #9B9B9A",
"q	c #9A999A",
"....................",
"++++++++++++++++++++",
"@@@@@@@@@@@@@@@@@@@@",
"@@@@@@@@@@@@@@@@@@@@",
"@@@@@@@@@@@@@@@@@@@@",
"@@@@@@@@@@@@@@@@@@@@",
"@@@@@@@@@@@@@@@@@@@@",
"@@#$%&%%%%%%%%%&$#@@",
"@*$=------------;$*@",
">$,''''---------)!~>",
"{]^!!!^^^^^^^^^^/(_{",
".:<[[[}}}}}}}}}}|123",
"4<5556666666666675<4",
"*890aaaaaaaaaaa0ba8*",
"@c)dddeeeeeeeddd')f@",
"@@g5''----'''''h5i@@",
"@@@jklmnopqkkkklj@@@",
"@@@@@@@@@@@@@@@@@@@@",
"@@@@@@@@@@@@@@@@@@@@",
"@@@@@@@@@@@@@@@@@@@@",
"@@@@@@@@@@@@@@@@@@@@",
"@@@@@@@@@@@@@@@@@@@@",
"@@@@@@@@@@@@@@@@@@@@",
"@@@@@@@@@@@@@@@@@@@@"};
