/* XPM */
static char * menu_pressed_xpm[] = {
"20 24 102 2",
"  	c None",
". 	c #939393",
"+ 	c #FFFFFF",
"@ 	c #CECECE",
"# 	c #858598",
"$ 	c #44446C",
"% 	c #1B1B51",
"& 	c #222255",
"* 	c #1A1B51",
"= 	c #646785",
"- 	c #1E2058",
"; 	c #585882",
"> 	c #9A99B1",
", 	c #A0A0B5",
"' 	c #A5A5BB",
") 	c #A2A1B7",
"! 	c #9495AB",
"~ 	c #5B5C84",
"{ 	c #1E235B",
"] 	c #646887",
"^ 	c #858A9E",
"/ 	c #182264",
"( 	c #626EA8",
"_ 	c #91A5CB",
": 	c #8CA7D3",
"< 	c #8FABD8",
"[ 	c #91ACD9",
"} 	c #8FA4CB",
"| 	c #707CAC",
"1 	c #1A2968",
"2 	c #858BA0",
"3 	c #445685",
"4 	c #154D9E",
"5 	c #4D8ACB",
"6 	c #609ED9",
"7 	c #5E9DDB",
"8 	c #5E9FDC",
"9 	c #5F9FDD",
"0 	c #609DD9",
"a 	c #568FCC",
"b 	c #18529F",
"c 	c #435888",
"d 	c #214281",
"e 	c #1769B5",
"f 	c #4D93D9",
"g 	c #5A9FE2",
"h 	c #599FE3",
"i 	c #589FE3",
"j 	c #5DA0E2",
"k 	c #4B91D8",
"l 	c #1A69B5",
"m 	c #224485",
"n 	c #214D8F",
"o 	c #478ACD",
"p 	c #6DACEC",
"q 	c #70AFEF",
"r 	c #6FAFEF",
"s 	c #6DAEEE",
"t 	c #67A8EA",
"u 	c #4D8ECE",
"v 	c #214F93",
"w 	c #4A73AA",
"x 	c #69A5E2",
"y 	c #81BEF8",
"z 	c #8AC6FC",
"A 	c #89C6FC",
"B 	c #88C6FC",
"C 	c #81BEF7",
"D 	c #4975AC",
"E 	c #91A7C2",
"F 	c #2465AC",
"G 	c #7DC1E6",
"H 	c #9FE1FD",
"I 	c #A1E6FC",
"J 	c #9FE0FD",
"K 	c #7DBFE6",
"L 	c #2568B0",
"M 	c #90A8C3",
"N 	c #739DC8",
"O 	c #2772BA",
"P 	c #7BBFDD",
"Q 	c #B3F4F9",
"R 	c #BCFBFB",
"S 	c #BDFEFE",
"T 	c #BDFDFD",
"U 	c #B2F2F7",
"V 	c #7ABFDE",
"W 	c #2773BC",
"X 	c #739ECA",
"Y 	c #9AB9D5",
"Z 	c #4A8CCA",
"` 	c #1970C3",
" .	c #2175C5",
"..	c #1971C4",
"+.	c #1972C5",
"@.	c #1971C5",
"#.	c #2177C6",
"$.	c #4A8ECB",
"%.	c #9AB9D6",
"&.	c #CFCFCF",
"*.	c #DDDDDD",
"=.	c #E0E0E0",
". . . . . . . . . . . . . . . . . . . . ",
"+ + + + + + + + + + + + + + + + + + + + ",
"@ @ @ @ @ @ @ @ @ @ @ @ @ @ @ @ @ @ @ @ ",
"@ @ @ @ @ @ @ @ @ @ @ @ @ @ @ @ @ @ @ @ ",
"@ @ @ @ @ @ @ @ @ @ @ @ @ @ @ @ @ @ @ @ ",
"@ @ @ @ @ @ @ @ @ @ @ @ @ @ @ @ @ @ @ @ ",
"@ @ @ @ @ @ @ @ @ @ @ @ @ @ @ @ @ @ @ @ ",
"@ @ # $ % & % % % % * % % % % & $ # @ @ ",
"@ = - ; > , ' ' ' ' ' ' ' ' ) ! ~ { ] @ ",
"^ / ( _ : < [ [ [ [ [ [ [ [ < : } | 1 2 ",
"3 4 5 6 7 8 9 9 9 9 9 9 9 9 8 7 0 a b c ",
"d e f g h i i i i i i i i i i i j k l m ",
"n o p q r r r r r r r r r r r r s t u v ",
"w x y z A A A A A A A A A A A A B C x D ",
"E F G H I I I I I I I I I I I I J K L M ",
"@ N O P Q R S S S S S S S S T U V W X @ ",
"@ @ Y Z `  .....+...@.+.+.+.+.#.$.%.@ @ ",
"@ @ @ &.*.=.=.=.=.=.=.=.=.=.=.*.&.@ @ @ ",
"@ @ @ @ @ @ @ @ @ @ @ @ @ @ @ @ @ @ @ @ ",
"@ @ @ @ @ @ @ @ @ @ @ @ @ @ @ @ @ @ @ @ ",
"@ @ @ @ @ @ @ @ @ @ @ @ @ @ @ @ @ @ @ @ ",
"@ @ @ @ @ @ @ @ @ @ @ @ @ @ @ @ @ @ @ @ ",
"@ @ @ @ @ @ @ @ @ @ @ @ @ @ @ @ @ @ @ @ ",
"@ @ @ @ @ @ @ @ @ @ @ @ @ @ @ @ @ @ @ @ "};
