/* XPM */
static char * menu_prelight_xpm[] = {
"20 24 64 1",
" 	c None",
".	c #939393",
"+	c #FFFFFF",
"@	c #CECECE",
"#	c #9A9A9A",
"$	c #707070",
"%	c #565656",
"&	c #5A5A5A",
"*	c #858585",
"=	c #717171",
"-	c #BCBBBC",
";	c #E2E2E2",
">	c #BCBCBC",
",	c #9B9B9B",
"'	c #D5D5D5",
")	c #E3E3E3",
"!	c #DEDDDD",
"~	c #727172",
"{	c #787878",
"]	c #ACACAC",
"^	c #D1D1D1",
"/	c #D3D3D3",
"(	c #D0D1D0",
"_	c #676767",
":	c #BEBDBE",
"<	c #C3C4C3",
"[	c #C0C0C0",
"}	c #C4C3C4",
"|	c #C4C3C3",
"1	c #BDBDBD",
"2	c #676666",
"3	c #6A6B6B",
"4	c #CACAC9",
"5	c #C9C9C9",
"6	c #C9CACA",
"7	c #C4C4C3",
"8	c #868686",
"9	c #B4B4B4",
"0	c #D7D7D6",
"a	c #D9D9D9",
"b	c #D6D6D7",
"c	c #D7D7D7",
"d	c #B5B4B4",
"e	c #838384",
"f	c #DCDCDB",
"g	c #F2F2F2",
"h	c #E4E4E4",
"i	c #DCDBDC",
"j	c #848383",
"k	c #A3A3A4",
"l	c #8A8A8A",
"m	c #EAEAEA",
"n	c #898A89",
"o	c #CFCFCF",
"p	c #909090",
"q	c #777777",
"r	c #7A7A7B",
"s	c #767677",
"t	c #777776",
"u	c #777676",
"v	c #777677",
"w	c #7B7B7A",
"x	c #DEDEDE",
"y	c #E0E0E0",
"....................",
"++++++++++++++++++++",
"@@@@@@@@@@@@@@@@@@@@",
"@@@@@@@@@@@@@@@@@@@@",
"@@@@@@@@@@@@@@@@@@@@",
"@@@@@@@@@@@@@@@@@@@@",
"@@@@@@@@@@@@@@@@@@@@",
"@@#$%&%%%%%%%%%&$#@@",
"@*=-;;;;;;;;;;;;>=*@",
",=')))))))))))))!'~,",
"{]^/////////////(^]{",
"_:<[[[[[[[[[[[[[}|12",
"3|455555555555556473",
"890aaaaaaaaaaaaabcd8",
"@efggggggggggggghij@",
"@kl5hhhhhhhhhhhm5nk@",
"@o@pqrstutvqvqtwp@o@",
"@@@cxyyyyyyyyyyxc@@@",
"@@@@@@@@@@@@@@@@@@@@",
"@@@@@@@@@@@@@@@@@@@@",
"@@@@@@@@@@@@@@@@@@@@",
"@@@@@@@@@@@@@@@@@@@@",
"@@@@@@@@@@@@@@@@@@@@",
"@@@@@@@@@@@@@@@@@@@@"};
