/* XPM */
static char * menu_active_xpm[] = {
"20 24 50 1",
" 	c None",
".	c #939393",
"+	c #FFFFFF",
"@	c #CECECE",
"#	c #B3B3B3",
"$	c #979797",
"%	c #8A8A8A",
"&	c #8C8C8C",
"*	c #A2A2A2",
"=	c #BDBCBD",
"-	c #D0D0D0",
";	c #BDBDBD",
">	c #B8B8B8",
",	c #CACACA",
"'	c #D1D1D1",
")	c #989798",
"!	c #9B9B9B",
"~	c #B5B5B5",
"{	c #C8C8C8",
"]	c #C9C9C9",
"^	c #C7C8C7",
"/	c #BEBDBE",
"(	c #C1C1C1",
"_	c #BFBFBF",
":	c #BEBEBE",
"<	c #C1C0C1",
"[	c #939292",
"}	c #949494",
"|	c #C4C4C4",
"1	c #C3C3C3",
"2	c #B9B9B9",
"3	c #CBCBCA",
"4	c #CBCBCB",
"5	c #CCCCCC",
"6	c #CACACB",
"7	c #A0A0A1",
"8	c #CDCDCD",
"9	c #D8D8D8",
"0	c #D7D7D7",
"a	c #A1A0A0",
"b	c #A4A4A4",
"c	c #D4D4D4",
"d	c #A3A4A3",
"e	c #A7A7A7",
"f	c #9A9A9A",
"g	c #9C9C9C",
"h	c #9A9A99",
"i	c #9A9999",
"j	c #9B9B9A",
"k	c #9B9A9B",
"....................",
"++++++++++++++++++++",
"@@@@@@@@@@@@@@@@@@@@",
"@@@@@@@@@@@@@@@@@@@@",
"@@@@@@@@@@@@@@@@@@@@",
"@@@@@@@@@@@@@@@@@@@@",
"@@@@@@@@@@@@@@@@@@@@",
"@@#$%&%%%%%%%%%&$#@@",
"@*$=------------;$*@",
">$,'''---------'@,)>",
"!~{]]{{{{{{{{{{{^{~!",
"./(__::::::::::_<(;[",
"}(|1111111111111||(}",
"*234444444444445642*",
"@789900000009999'8a@",
"@@b|''----'''''c|d@@",
"@@@efgfhijkffffge@@@",
"@@@@@@@@@@@@@@@@@@@@",
"@@@@@@@@@@@@@@@@@@@@",
"@@@@@@@@@@@@@@@@@@@@",
"@@@@@@@@@@@@@@@@@@@@",
"@@@@@@@@@@@@@@@@@@@@",
"@@@@@@@@@@@@@@@@@@@@",
"@@@@@@@@@@@@@@@@@@@@"};
