/* XPM */
static char * close_active_xpm[] = {
"14 31 12 1",
" 	c None",
".	c #616E6E",
"+	c #F2F2F2",
"@	c #BFC6C5",
"#	c #CDD1D1",
"$	c #DEE1E1",
"%	c #ECEEEE",
"&	c #EBEDED",
"*	c #FCFCFC",
"=	c #FEFEFE",
"-	c #FDFDFD",
";	c #FBFBFB",
"              ",
"              ",
"              ",
"              ",
"              ",
"              ",
"              ",
"              ",
"              ",
"              ",
"  ..........  ",
"  .++++++++.  ",
"  .+@@@@@@+.  ",
"  .+######+.  ",
"  .+$$$$$$+.  ",
"  .+%%%%%&+.  ",
"  .+*==--;+.  ",
"  .+*==--;+.  ",
"  .++++++++.  ",
"  ..........  ",
"              ",
"              ",
"              ",
"              ",
"              ",
"              ",
"              ",
"              ",
"              ",
"              ",
"              "};
