/* XPM */
static char * stick_inactive_xpm[] = {
"14 25 11 1",
" 	c None",
".	c #8E8E8E",
"+	c #F5F5F5",
"@	c #B1B1B1",
"#	c #C0C0C0",
"$	c #D2D2D2",
"%	c #DBDBDB",
"&	c #E7E7E7",
"*	c #F1F1F1",
"=	c #FCFCFC",
"-	c #FFFFFF",
"              ",
"              ",
"              ",
"              ",
"              ",
"              ",
" ............ ",
" .++++++++++. ",
" .+@@@@@@@@+. ",
" .+###..###+. ",
" .+$$.@@.$$+. ",
" .+%.$$$$.%+. ",
" .+&.&&&&.&+. ",
" .+**.**.**+. ",
" .+===..===+. ",
" .+--------+. ",
" .++++++++++. ",
" ............ ",
"              ",
"              ",
"              ",
"              ",
"              ",
"              ",
"              "};
