<?xml version="1.0" encoding="UTF-8" standalone="no"?>
<svg
   width="22"
   height="22"
   viewBox="0 0 22 22"
   xml:space="preserve"
   version="1.1"
   id="svg49"
   sodipodi:docname="printer-busy.svg"
   inkscape:version="1.4.3 (0d15f75042, 2025-12-25)"
   xmlns:inkscape="http://www.inkscape.org/namespaces/inkscape"
   xmlns:sodipodi="http://sodipodi.sourceforge.net/DTD/sodipodi-0.dtd"
   xmlns="http://www.w3.org/2000/svg"
   xmlns:svg="http://www.w3.org/2000/svg"><defs
   id="defs49">
	
	
	
	
	
	
	
	
	
	
	
	
	
	
	
	
	
	
	
	
	
	
	
	
	
	
	
	
	
	
	
	
	
	
	
	
	
	
	
	
	
	
	
	
	
	
	
	
</defs><sodipodi:namedview
   id="namedview49"
   pagecolor="#ffffff"
   bordercolor="#000000"
   borderopacity="0.25"
   inkscape:showpageshadow="2"
   inkscape:pageopacity="0.0"
   inkscape:pagecheckerboard="0"
   inkscape:deskcolor="#d1d1d1"
   inkscape:document-units="pt"
   inkscape:zoom="11.625"
   inkscape:cx="33.333333"
   inkscape:cy="12.688172"
   inkscape:window-width="2133"
   inkscape:window-height="1107"
   inkscape:window-x="0"
   inkscape:window-y="0"
   inkscape:window-maximized="1"
   inkscape:current-layer="svg49" />
<g
   id="g1"
   transform="translate(0,0.77419355)"
   style="stroke-width:0.5;stroke-dasharray:none"><g
     id="bottom paper on stack"
     style="clip-rule:nonzero;fill:#ffffff;fill-opacity:1;stroke:#000000;stroke-miterlimit:4;stroke-width:2.28055008;stroke-dasharray:none"
     transform="matrix(0.21924535,0,0,0.21924535,-0.12353353,0.14030333)">
		<path
   d="m 69.43,45.29 -40,-20 30,-15 40,20 z"
   id="path1"
   style="stroke-width:2.28055008;stroke-dasharray:none" />
	</g><g
     id="middle paper in stack"
     style="clip-rule:nonzero;fill:#ffffff;fill-opacity:1;stroke:#000000;stroke-miterlimit:4;stroke-width:2.28055008;stroke-dasharray:none"
     transform="matrix(0.21924535,0,0,0.21924535,-0.12353353,0.14030333)">
		<path
   d="m 69.43,40.29 -40,-20 30,-15 40,20 z"
   id="path2"
   style="stroke-width:2.28055008;stroke-dasharray:none" />
	</g><g
     id="top paper in stack"
     style="clip-rule:nonzero;fill:#ffffff;fill-opacity:1;stroke:#000000;stroke-miterlimit:4;stroke-width:2.28055008;stroke-dasharray:none"
     transform="matrix(0.21924535,0,0,0.21924535,-0.12353353,0.14030333)">
		<path
   d="m 69.43,35.29 -40,-20 30.41,-15.15 39.71,20.08 z"
   id="path3"
   style="stroke-width:2.28055008;stroke-dasharray:none" />
	</g><g
     id="line"
     style="clip-rule:nonzero;fill:none;fill-opacity:1;stroke:#000000;stroke-miterlimit:4;stroke-width:2.28055008;stroke-dasharray:none"
     transform="matrix(0.21924535,0,0,0.21924535,-0.12353353,0.14030333)">
		<path
   d="m 66.05,10.22 -15,7.5"
   id="path4"
   style="stroke-width:2.28055008;stroke-dasharray:none" />
	</g><g
     id="g5"
     style="clip-rule:nonzero;fill:none;fill-opacity:1;stroke:#000000;stroke-miterlimit:4;stroke-width:2.28055008;stroke-dasharray:none"
     transform="matrix(0.21924535,0,0,0.21924535,-0.12353353,0.14030333)">
		<path
   d="m 60.6,7.41 -15,7.5"
   id="path5"
   style="stroke-width:2.28055008;stroke-dasharray:none" />
	</g><g
     id="g6"
     style="clip-rule:nonzero;fill:none;fill-opacity:1;stroke:#000000;stroke-miterlimit:4;stroke-width:2.28055008;stroke-dasharray:none"
     transform="matrix(0.21924535,0,0,0.21924535,-0.12353353,0.14030333)">
		<path
   d="m 73.57,13.76 -15,7.5"
   id="path6"
   style="stroke-width:2.28055008;stroke-dasharray:none" />
	</g><g
     id="g7"
     style="clip-rule:nonzero;fill:none;fill-opacity:1;stroke:#000000;stroke-miterlimit:4;stroke-width:2.28055008;stroke-dasharray:none"
     transform="matrix(0.21924535,0,0,0.21924535,-0.12353353,0.14030333)">
		<path
   d="m 79.49,16.44 -10,5"
   id="path7"
   style="stroke-width:2.28055008;stroke-dasharray:none" />
	</g><g
     id="printer body"
     style="clip-rule:nonzero;fill:#ffffff;fill-opacity:1;stroke:#000000;stroke-miterlimit:4;stroke-width:2.28055008;stroke-dasharray:none"
     transform="matrix(0.21924535,0,0,0.21924535,-0.12353353,0.14030333)">
		<path
   d="M 10,70 V 45 L 55,22.5 90,40 V 65 L 45,87.5 Z"
   id="path9"
   style="stroke-width:2.28055008;stroke-dasharray:none" />
	</g><g
     id="Path_4"
     style="clip-rule:nonzero;fill:none;fill-opacity:1;stroke:#000000;stroke-miterlimit:4;stroke-width:2.28055008;stroke-dasharray:none"
     transform="matrix(0.21924535,0,0,0.21924535,-0.12353353,0.14030333)">
		<path
   d="M 45.02,60.06 45,87.5"
   id="path10"
   style="stroke-width:2.28055008;stroke-dasharray:none" />
	</g><g
     id="Path_5"
     style="clip-rule:nonzero;fill:none;fill-opacity:1;stroke:#000000;stroke-miterlimit:4;stroke-width:2.28055008;stroke-dasharray:none"
     transform="matrix(0.21924535,0,0,0.21924535,-0.12353353,0.14030333)">
		<path
   d="m 60.63,52.5 -15,7.5"
   id="path11"
   style="stroke-width:2.28055008;stroke-dasharray:none" />
	</g><g
     id="Path_6"
     style="clip-rule:nonzero;fill:#00fcf8;fill-opacity:1;stroke:#000000;stroke-miterlimit:4;stroke-width:2.28055008;stroke-dasharray:none"
     transform="matrix(0.21924535,0,0,0.21924535,-0.12353353,0.14030333)">
		<path
   d="m 86.45,50.55 v -5.63 l -5.63,2.82 v 5.63 z"
   id="path12"
   style="stroke-width:2.28055008;stroke-dasharray:none" />
	</g><g
     id="Path_7"
     style="clip-rule:nonzero;fill:#989a70;fill-opacity:1;stroke:#000000;stroke-miterlimit:4;stroke-width:2.28055008;stroke-dasharray:none"
     transform="matrix(0.21924535,0,0,0.21924535,-0.12353353,0.14030333)">
		<path
   d="M 40.06,55.73 74.82,38.3 59.99,30.84 l -35,17.5 z"
   id="path13"
   style="stroke-width:2.28055008;stroke-dasharray:none" />
	</g><g
     id="Path_8"
     style="clip-rule:nonzero;fill:#505450;fill-opacity:1;stroke:#000000;stroke-miterlimit:4;stroke-width:2.28055008;stroke-dasharray:none"
     transform="matrix(0.21924535,0,0,0.21924535,-0.12353353,0.14030333)">
		<path
   d="M 74.98,38.4 53.85,27.59 54.5,32.07 Z"
   id="path14"
   style="stroke-width:2.28055008;stroke-dasharray:none" />
	</g><g
     id="Slot"
     style="clip-rule:nonzero;fill:#505450;fill-opacity:1;stroke:#000000;stroke-miterlimit:4;stroke-width:2.28055008;stroke-dasharray:none"
     transform="matrix(0.21924535,0,0,0.21924535,-0.12353353,0.14030333)">
		<path
   d="m 25.02,48.31 -5,-2.5 34.95,-17.86 1.69,4.54 z"
   id="path15"
   style="stroke-width:2.28055008;stroke-dasharray:none" />
	</g><g
     id="Paper"
     style="clip-rule:nonzero;fill:#ffffff;fill-opacity:1;fill-rule:nonzero;stroke:none;stroke-miterlimit:4;stroke-width:2.28055008;stroke-dasharray:none"
     transform="matrix(0.21924535,0,0,0.21924535,-0.12353353,0.14030333)">
		<path
   d="M 56.66,32.49 24.94,48.42 24.22,42.76 56.36,26.3 Z"
   id="path16"
   style="stroke-width:2.28055008;stroke-dasharray:none" />
	</g><g
     id="g17"
     style="clip-rule:nonzero;fill:#ffffff;fill-opacity:1;fill-rule:nonzero;stroke:none;stroke-miterlimit:4;stroke-width:2.28055008;stroke-dasharray:none"
     transform="matrix(0.21924535,0,0,0.21924535,-0.12353353,0.14030333)">
		<path
   d="M 11.36,21.36 6.49,20.03 1.42,19.08 35.09,2.25 39.82,2.8 Z"
   id="path17"
   style="stroke-width:2.28055008;stroke-dasharray:none" />
	</g><g
     id="g18"
     style="clip-rule:nonzero;fill:#ffffff;fill-opacity:1;fill-rule:nonzero;stroke:none;stroke-miterlimit:4;stroke-width:2.28055008;stroke-dasharray:none"
     transform="matrix(0.21924535,0,0,0.21924535,-0.12353353,0.14030333)">
		<path
   d="M 15.67,24.28 11.24,21.33 39.82,2.8 43.81,4.52 Z"
   id="path18"
   style="stroke-width:2.28055008;stroke-dasharray:none" />
	</g><g
     id="g19"
     style="clip-rule:nonzero;fill:#ffffff;fill-opacity:1;fill-rule:nonzero;stroke:none;stroke-miterlimit:4;stroke-width:2.28055008;stroke-dasharray:none"
     transform="matrix(0.21924535,0,0,0.21924535,-0.12353353,0.14030333)">
		<path
   d="m 24.22,42.76 -1.57,-5.59 33.27,-14.3 0.44,3.43 z"
   id="path19"
   style="stroke-width:2.28055008;stroke-dasharray:none" />
	</g><g
     id="g20"
     style="clip-rule:nonzero;fill:#ffffff;fill-opacity:1;fill-rule:nonzero;stroke:none;stroke-miterlimit:4;stroke-width:2.28055008;stroke-dasharray:none"
     transform="matrix(0.21924535,0,0,0.21924535,-0.12353353,0.14030333)">
		<path
   d="M 20.78,31.59 18.47,27.64 48.62,7.41 51.63,10.99 Z"
   id="path20"
   style="stroke-width:2.28055008;stroke-dasharray:none" />
	</g><g
     id="g21"
     style="clip-rule:nonzero;fill:#ffffff;fill-opacity:1;fill-rule:nonzero;stroke:none;stroke-miterlimit:4;stroke-width:2.28055008;stroke-dasharray:none"
     transform="matrix(0.21924535,0,0,0.21924535,-0.12353353,0.14030333)">
		<path
   d="m 22.65,37.17 -1.87,-5.58 30.85,-20.6 2.1,3.73 1.87,5.58 0.32,2.57 z"
   id="path21"
   style="stroke-width:2.28055008;stroke-dasharray:none" />
	</g><g
     id="g22"
     style="clip-rule:nonzero;fill:#ffffff;fill-opacity:1;fill-rule:nonzero;stroke:none;stroke-miterlimit:4;stroke-width:2.28055008;stroke-dasharray:none"
     transform="matrix(0.21924535,0,0,0.21924535,-0.12353353,0.14030333)">
		<path
   d="M 18.47,27.64 15.67,24.28 43.81,4.52 48.62,7.41 Z"
   id="path22"
   style="stroke-width:2.28055008;stroke-dasharray:none" />
	</g><g
     id="dumb printer line on paper"
     style="clip-rule:nonzero;fill:none;fill-opacity:1;stroke:#000000;stroke-miterlimit:4;stroke-width:2.28055008;stroke-dasharray:none"
     transform="matrix(0.21924535,0,0,0.21924535,-0.12353353,0.14030333)">
		<path
   d="M 37.31,6.28 26.99,11.43"
   id="path23"
   style="stroke-width:2.28055008;stroke-dasharray:none" />
	</g><g
     id="Outline of Outside of A"
     style="clip-rule:nonzero;fill:#000000;fill-opacity:1;stroke:#000000;stroke-miterlimit:4;stroke-width:2.28055008;stroke-dasharray:none"
     transform="matrix(0.21924535,0,0,0.21924535,-0.12353353,0.14030333)">
		<path
   d="m 28.01,34.74 -1.1,-2.11 6.42,-3.21 1.32,2.04 z"
   id="path24"
   style="stroke-width:2.28055008;stroke-dasharray:none" />
	</g><g
     id="g25"
     style="clip-rule:nonzero;fill:#000000;fill-opacity:1;stroke:#000000;stroke-miterlimit:4;stroke-width:2.28055008;stroke-dasharray:none"
     transform="matrix(0.21924535,0,0,0.21924535,-0.12353353,0.14030333)">
		<path
   d="m 39.31,22.49 1.98,1.53 1.97,1.82 -3.87,1.68 -1.83,-2.19 -1.9,-1.53 z"
   id="path25"
   style="stroke-width:2.28055008;stroke-dasharray:none" />
	</g><g
     id="g26"
     style="clip-rule:nonzero;fill:#000000;fill-opacity:1;stroke:#000000;stroke-miterlimit:4;stroke-width:2.28055008;stroke-dasharray:none"
     transform="matrix(0.21924535,0,0,0.21924535,-0.12353353,0.14030333)">
		<path
   d="m 44.35,24.16 2.27,1.45 -7.95,3.94 -1.62,-1.59 z"
   id="path26"
   style="stroke-width:2.28055008;stroke-dasharray:none" />
	</g><g
     id="g27"
     style="clip-rule:nonzero;fill:none;fill-opacity:1;stroke:#000000;stroke-miterlimit:4;stroke-width:2.28055008;stroke-dasharray:none"
     transform="matrix(0.21924535,0,0,0.21924535,-0.12353353,0.14030333)">
		<path
   d="M 51.16,27.9 30.11,38.41"
   id="path27"
   style="stroke-width:2.28055008;stroke-dasharray:none" />
	</g><g
     id="g28"
     style="clip-rule:nonzero;fill:#000000;fill-opacity:1;stroke:#000000;stroke-miterlimit:4;stroke-width:2.28055008;stroke-dasharray:none"
     transform="matrix(0.21924535,0,0,0.21924535,-0.12353353,0.14030333)">
		<path
   d="m 20.66,20.21 -5.08,-2.46 5.14,-2.43 3.85,0.23 4.38,1.24 z"
   id="path28"
   style="stroke-width:2.28055008;stroke-dasharray:none" />
	</g><g
     id="g29"
     style="clip-rule:nonzero;fill:#000000;fill-opacity:1;stroke:#000000;stroke-miterlimit:4;stroke-width:2.28055008;stroke-dasharray:none"
     transform="matrix(0.21924535,0,0,0.21924535,-0.12353353,0.14030333)">
		<path
   d="m 29.15,32.07 -1.44,-3.53 -2.77,-4.01 1.89,-0.96 3.14,4.1 1.75,3.28 z"
   id="path29"
   style="stroke-width:2.28055008;stroke-dasharray:none" />
	</g><g
     id="g30"
     style="clip-rule:nonzero;fill:#000000;fill-opacity:1;stroke:#000000;stroke-miterlimit:4;stroke-width:2.28055008;stroke-dasharray:none"
     transform="matrix(0.21924535,0,0,0.21924535,-0.12353353,0.14030333)">
		<path
   d="m 24.87,24.42 -4.21,-4.21 8.29,-3.42 1.75,0.59 2.41,1.16 1.9,1.03 1.97,1.02 -10.88,5.4 z"
   id="path30"
   style="stroke-width:2.28055008;stroke-dasharray:none" />
	</g><g
     id="Outline of Inside of A"
     style="clip-rule:nonzero;fill:#ffffff;fill-opacity:1;fill-rule:nonzero;stroke:none;stroke-miterlimit:4;stroke-width:2.28055008;stroke-dasharray:none"
     transform="matrix(0.21924535,0,0,0.21924535,-0.12353353,0.14030333)">
		<path
   d="m 26.83,23.57 -1.16,-1.13 -2.9,-2.41 4.28,-1.78 1.53,0.66 1.98,1.17 1.46,0.87 z"
   id="path31"
   style="stroke-width:2.28055008;stroke-dasharray:none" />
	</g><g
     id="g32"
     style="clip-rule:nonzero;fill:#ffffff;fill-opacity:1;fill-rule:nonzero;stroke:none;stroke-miterlimit:4;stroke-width:2.28055008;stroke-dasharray:none"
     transform="matrix(0.21924535,0,0,0.21924535,-0.12353353,0.14030333)">
		<path
   d="m 22.77,20.03 -4.21,-2.1 3.22,-1.14 2.28,0.29 2.99,1.17 z"
   id="path32"
   style="stroke-width:2.28055008;stroke-dasharray:none" />
	</g><g
     id="g33"
     style="clip-rule:nonzero;fill:none;fill-opacity:1;stroke:#000000;stroke-miterlimit:4;stroke-width:2.28055008;stroke-dasharray:none"
     transform="matrix(0.21924535,0,0,0.21924535,-0.12353353,0.14030333)">
		<path
   d="M 52.14,31.59 31.11,42.15"
   id="path33"
   style="stroke-width:2.28055008;stroke-dasharray:none" />
	</g><g
     id="g34"
     style="clip-rule:nonzero;fill:none;fill-opacity:1;stroke:#000000;stroke-miterlimit:4;stroke-width:2.28055008;stroke-dasharray:none"
     transform="matrix(0.21924535,0,0,0.21924535,-0.12353353,0.14030333)">
		<path
   d="M 56.66,32.49 24.94,48.42 24.01,42.54 22.44,36.95 20.57,31.37 18.47,27.64 15.46,24.06 10.65,21.17 6.49,20.03 1.42,19.08 35.09,2.25 l 4.73,0.55 3.99,1.72 4.81,2.89 3.01,3.58 2.1,3.73 1.87,5.58 0.76,6 z"
   id="path34"
   style="stroke-width:2.28055008;stroke-dasharray:none" />
	</g><g
     id="Path_34"
     style="clip-rule:nonzero;fill:#00fcf8;fill-opacity:1;stroke:#000000;stroke-miterlimit:4;stroke-width:2.28055008;stroke-dasharray:none"
     transform="matrix(0.21924535,0,0,0.21924535,-0.12353353,0.14030333)">
		<path
   d="m 86.87,59.28 v -5.63 l -5.64,2.82 v 5.63 z"
   id="path35"
   style="stroke-width:2.28055008;stroke-dasharray:none" />
	</g><g
     id="Path_36"
     style="clip-rule:nonzero;fill:none;fill-opacity:1;stroke:#000000;stroke-miterlimit:4;stroke-width:2.28055008;stroke-dasharray:none"
     transform="matrix(0.21924535,0,0,0.21924535,-0.12353353,0.14030333)">
		<path
   d="m 48.93,36.38 18.26,5.6"
   id="path36"
   style="stroke-width:2.28055008;stroke-dasharray:none" />
	</g><g
     id="Path_37"
     style="clip-rule:nonzero;fill:none;fill-opacity:1;stroke:#000000;stroke-miterlimit:4;stroke-width:2.28055008;stroke-dasharray:none"
     transform="matrix(0.21924535,0,0,0.21924535,-0.12353353,0.14030333)">
		<path
   d="m 41.78,40.1 18.27,5.61"
   id="path37"
   style="stroke-width:2.28055008;stroke-dasharray:none" />
	</g><g
     id="Path_38"
     style="clip-rule:nonzero;fill:none;fill-opacity:1;stroke:#000000;stroke-miterlimit:4;stroke-width:2.28055008;stroke-dasharray:none"
     transform="matrix(0.21924535,0,0,0.21924535,-0.12353353,0.14030333)">
		<path
   d="m 33.76,44.13 18.27,5.6"
   id="path38"
   style="stroke-width:2.28055008;stroke-dasharray:none" />
	</g><g
     id="g39"
     style="clip-rule:nonzero;fill:#c0c498;fill-opacity:1;stroke:#000000;stroke-miterlimit:4;stroke-width:2.28055008;stroke-dasharray:none"
     transform="matrix(0.21924535,0,0,0.21924535,-0.12353353,0.14030333)">
		<path
   d="M 45,80.88 V 87.5 L 10,70 v -6.68 z"
   id="path39"
   style="stroke-width:2.28055008;stroke-dasharray:none" />
	</g><g
     id="g40"
     style="clip-rule:nonzero;fill:#c0c498;fill-opacity:1;stroke:#000000;stroke-miterlimit:4;stroke-width:2.28055008;stroke-dasharray:none"
     transform="matrix(0.21924535,0,0,0.21924535,-0.12353353,0.14030333)">
		<path
   d="M 90,58.43 V 65 L 45,87.5 v -6.68 z"
   id="path40"
   style="stroke-width:2.28055008;stroke-dasharray:none" />
	</g><g
     id="Path_35"
     style="clip-rule:nonzero;fill:#ffffff;fill-opacity:1;stroke:#000000;stroke-miterlimit:4;stroke-width:2.28055008;stroke-dasharray:none"
     transform="matrix(0.21924535,0,0,0.21924535,-0.12353353,0.14030333)">
		<path
   d="M 65,77.5 95,62.5 80,55 50,70 Z"
   id="path41"
   style="stroke-width:2.28055008;stroke-dasharray:none" />
	</g><g
     id="g42"
     style="clip-rule:nonzero;fill:#f8fcf8;fill-opacity:1;stroke:#000000;stroke-miterlimit:4;stroke-width:2.28055008;stroke-dasharray:none"
     transform="matrix(0.21924535,0,0,0.21924535,-0.12353353,0.14030333)">
		<path
   d="m 62.84,73.6 25,-12.5 -10,-5 -25,12.5 z"
   id="path42"
   style="stroke-width:2.28055008;stroke-dasharray:none" />
	</g><g
     id="Path_2"
     style="clip-rule:nonzero;fill:#a8a8a8;fill-opacity:1;stroke:#000000;stroke-miterlimit:4;stroke-width:2.28055008;stroke-dasharray:none"
     transform="matrix(0.21924535,0,0,0.21924535,-0.12353353,0.14030333)">
		<path
   d="m 65,82.5 30,-15 v -5 l -30,15 z"
   id="path43"
   style="stroke-width:2.28055008;stroke-dasharray:none" />
	</g><g
     id="Path_3"
     style="clip-rule:nonzero;fill:#a8a8a8;fill-opacity:1;stroke:#000000;stroke-miterlimit:4;stroke-width:2.28055008;stroke-dasharray:none"
     transform="matrix(0.21924535,0,0,0.21924535,-0.12353353,0.14030333)">
		<path
   d="m 50,70 15,7.5 v 5 L 50,75 Z"
   id="path44"
   style="stroke-width:2.28055008;stroke-dasharray:none" />
	</g><g
     id="g45"
     style="clip-rule:nonzero;fill:#000000;fill-opacity:1;stroke:#000000;stroke-miterlimit:4;stroke-width:2.28055008;stroke-dasharray:none"
     transform="matrix(0.21924535,0,0,0.21924535,-0.12353353,0.14030333)">
		<path
   d="m 36.98,20.59 2.33,1.9 -3.57,1.31 -2.15,-1.53 z"
   id="path45"
   style="stroke-width:2.28055008;stroke-dasharray:none" />
	</g><g
     id="g46"
     style="clip-rule:nonzero;fill:none;fill-opacity:1;stroke:#000000;stroke-miterlimit:4;stroke-width:2.28055008;stroke-dasharray:none"
     transform="matrix(0.21924535,0,0,0.21924535,-0.12353353,0.14030333)">
		<path
   d="m 42.22,8.46 -9.03,4.55"
   id="path46"
   style="stroke-width:2.28055008;stroke-dasharray:none" />
	</g><g
     id="g47"
     style="clip-rule:nonzero;fill:none;fill-opacity:1;stroke:#000000;stroke-miterlimit:4;stroke-width:2.28055008;stroke-dasharray:none"
     transform="matrix(0.21924535,0,0,0.21924535,-0.12353353,0.14030333)">
		<path
   d="M 45.91,12.03 39.4,15.32"
   id="path47"
   style="stroke-width:2.28055008;stroke-dasharray:none" />
	</g><g
     id="g48"
     style="clip-rule:nonzero;fill:none;fill-opacity:1;stroke:#000000;stroke-miterlimit:4;stroke-width:2.28055008;stroke-dasharray:none"
     transform="matrix(0.21924535,0,0,0.21924535,-0.12353353,0.14030333)">
		<path
   d="M 48.45,15.95 43.5,18.48"
   id="path48"
   style="stroke-width:2.28055008;stroke-dasharray:none" />
	</g></g>
</svg>
