/* XPM */
static char * menu_active_xpm[] = {
"26 29 4 1",
" 	c None",
".	c #FFFFFF",
"+	c #7041db",
"@	c #030303",
"                          ",
"                          ",
"                          ",
"                          ",
".+......................+.",
".+......................+.",
".+......................+.",
".+......................+.",
".+......................+.",
".+......................+.",
".+......................+.",
".+....@@..........@@....+.",
".+....@@@........@@@....+.",
".+.....@@@......@@@.....+.",
".+......@@@....@@@......+.",
".+.......@@@..@@@.......+.",
".+........@@@@@@........+.",
".+.........@@@@.........+.",
".+..........@@..........+.",
".+......................+.",
".+......................+.",
".+......................+.",
".+......................+.",
".+......................+.",
".+......................+.",
".+......................+.",
"                          ",
"                          ",
"                          "};
