/* XPM */
static char * hide_active_xpm[] = {
"14 25 14 1",
" 	c None",
".	c #6B6B6B",
"+	c #F2F2F2",
"@	c #999999",
"#	c #ACACAC",
"$	c #C4C4C4",
"%	c #D0D0D0",
"&	c #E0E0E0",
"*	c #EEEEEE",
"=	c #EDEDED",
"-	c #FEFEFE",
";	c #FDFDFD",
">	c #FBFBFB",
",	c #FFFFFF",
"              ",
"              ",
"              ",
"              ",
"              ",
"              ",
" ............ ",
" .++++++++++. ",
" .+@@@@@@@@+. ",
" .+########+. ",
" .+$$$$$$$$+. ",
" .+%%%%%%%%+. ",
" .+&&&&&&&&+. ",
" ......***=+. ",
" .++++.-;;>+. ",
" .+,,+.,,,,+. ",
" .++++.+++++. ",
" ............ ",
"              ",
"              ",
"              ",
"              ",
"              ",
"              ",
"              "};
