/* XPM */
static char * right_inactive_xpm[] = {
"5 64 16 1",
" 	c None",
".	c #3C3E43",
"+	c #D7D9DE",
"@	c #C1C3C8",
"#	c #A8AAAF",
"$	c #C1C3C7",
"%	c #A7AAAE",
"&	c #3B3E42",
"*	c #D6D9DD",
"=	c #C0C3C7",
"-	c #A7AAAF",
";	c #3B3D42",
">	c #D6D8DD",
",	c #C0C2C7",
"'	c #A7A9AE",
")	c #D6D9DE",
".+@#.",
".+$%&",
"&*=%&",
".+@#.",
".+@#.",
".+@#.",
".+@#.",
".+@#.",
".+@#.",
".+@#.",
".+@#&",
".+@#.",
".+$%&",
"&*=%&",
".+@#.",
".+@#.",
".+@#.",
".+@#.",
".+@#.",
".+@#.",
".+@#.",
".+@#&",
"&*=%&",
"&*=%&",
"&*=%&",
"&*=-&",
"&*=%;",
"&*=%;",
";>,';",
";>,';",
"&*=';",
".+@#.",
".+$%&",
"&*=%&",
".+@#.",
".+@#.",
".+@#.",
".+@#.",
".+@#.",
".+@#.",
".+@#.",
".+@#&",
".+@#.",
".+$%&",
"&*=%&",
".+@#.",
".+@#.",
".+@#.",
".+@#.",
".+@#.",
".+@#.",
".+@#.",
".+@#&",
"&*=%&",
"&*=%&",
"&*=%&",
"&*=-&",
"&*=%;",
"&*=%;",
";>,';",
";>,';",
"&*=';",
"&*=';",
"&)=%;"};
