/* XPM */
static char * title_1_inactive_xpm[] = {
"8 31 57 1",
" 	c None",
".	c #3E4044",
"+	c #C2C5CA",
"@	c #C2C4C9",
"#	c #AEB1B7",
"$	c #ADB1B7",
"%	c #A0A3A9",
"&	c #9FA2A8",
"*	c #A2A4AA",
"=	c #A2A5AB",
"-	c #A1A4AA",
";	c #A3A6AC",
">	c #A4A7AC",
",	c #A4A6AC",
"'	c #A3A5AB",
")	c #A5A8AD",
"!	c #A5A7AD",
"~	c #A8AAAF",
"{	c #A7AAAF",
"]	c #A6A9AE",
"^	c #A9ABB0",
"/	c #AAACB1",
"(	c #ADAFB3",
"_	c #ACAEB2",
":	c #AEB0B5",
"<	c #B0B2B6",
"[	c #B2B4B8",
"}	c #B1B3B7",
"|	c #B3B5B9",
"1	c #B3B5B8",
"2	c #B5B6BA",
"3	c #B5B7BA",
"4	c #B8BABD",
"5	c #B8B9BD",
"6	c #BBBCC0",
"7	c #BDBFC2",
"8	c #BEBFC2",
"9	c #C1C3C6",
"0	c #C2C3C6",
"a	c #C6C8CB",
"b	c #CACBCE",
"c	c #CDCFD2",
"d	c #CECFD2",
"e	c #D2D4D6",
"f	c #D7D8DB",
"g	c #DCDDE0",
"h	c #DCDEE0",
"i	c #E1E2E4",
"j	c #E1E2E5",
"k	c #CFD1D3",
"l	c #D0D1D3",
"m	c #CFD0D2",
"n	c #86888A",
"o	c #87888A",
"p	c #3C3D40",
"q	c #3C3E40",
"r	c #3D3E40",
"........",
"++++@+++",
"#######$",
"%%%%%%&&",
"*=***---",
";;;;====",
">>>>>,''",
"))))!!!!",
"~~~{]]]]",
"^^^^^^~~",
"////////",
"((((((__",
"::::((((",
"<<<<<<<<",
"[[[[[[}}",
"|11111|1",
"22222333",
"44445444",
"66666666",
"77888777",
"99900009",
"aaaaaaaa",
"bbbbbbbb",
"ccdddddd",
"eeeeeeee",
"ffffffff",
"gggggggh",
"ijjjjjjj",
"klllllmm",
"nooooooo",
"ppqrrrrr"};
