/* XPM */
static char * top_left_inactive_xpm[] = {
"10 64 111 2",
"  	c None",
". 	c #484C56",
"+ 	c #44484F",
"@ 	c #404145",
"# 	c #404245",
"$ 	c #434549",
"% 	c #9C9FA4",
"& 	c #B5B7BB",
"* 	c #C4C6CB",
"= 	c #474C56",
"- 	c #73757A",
"; 	c #A0A3A9",
"> 	c #B0B3B9",
", 	c #B0B3B8",
"' 	c #44474E",
") 	c #7E8186",
"! 	c #A3A5AB",
"~ 	c #A2A5AA",
"{ 	c #3F4144",
"] 	c #85878D",
"^ 	c #A4A6AC",
"/ 	c #A3A6AB",
"( 	c #84878C",
"_ 	c #A4A7AC",
": 	c #A4A6AB",
"< 	c #3F4043",
"[ 	c #A5A8AD",
"} 	c #A5A7AD",
"| 	c #A5A7AC",
"1 	c #3E4043",
"2 	c #84868B",
"3 	c #A7A9AE",
"4 	c #A6A9AE",
"5 	c #A6A9AD",
"6 	c #A6A8AD",
"7 	c #3E3F42",
"8 	c #A7A9AD",
"9 	c #A8AAAE",
"0 	c #A7AAAE",
"a 	c #83858A",
"b 	c #A8AAAF",
"c 	c #AAACB0",
"d 	c #84868A",
"e 	c #ABADB1",
"f 	c #ABADB2",
"g 	c #3E3F41",
"h 	c #838589",
"i 	c #AEB0B4",
"j 	c #AEAFB3",
"k 	c #3D3F41",
"l 	c #848589",
"m 	c #ADAFB3",
"n 	c #AFB1B5",
"o 	c #AEB0B3",
"p 	c #B1B3B6",
"q 	c #B1B2B6",
"r 	c #B3B5B9",
"s 	c #B3B5B8",
"t 	c #3D3E41",
"u 	c #838588",
"v 	c #B4B6B9",
"w 	c #B4B5B9",
"x 	c #B2B4B7",
"y 	c #B6B7BB",
"z 	c #848689",
"A 	c #B9BABE",
"B 	c #B9BABD",
"C 	c #B6B8BB",
"D 	c #BCBDC0",
"E 	c #BBBDC0",
"F 	c #B8BABD",
"G 	c #BEC0C3",
"H 	c #3D3E40",
"I 	c #85878A",
"J 	c #C2C3C6",
"K 	c #858689",
"L 	c #C0C1C4",
"M 	c #C7C8CB",
"N 	c #C6C8CB",
"O 	c #C2C4C7",
"P 	c #CACCCF",
"Q 	c #CACCCE",
"R 	c #C9CBCD",
"S 	c #C6C7CA",
"T 	c #CECFD2",
"U 	c #86878A",
"V 	c #CACBCE",
"W 	c #D3D4D7",
"X 	c #D3D4D6",
"Y 	c #CDCFD2",
"Z 	c #D7D9DB",
"` 	c #D0D2D4",
" .	c #DCDEE0",
"..	c #86888A",
"+.	c #D5D6D9",
"@.	c #E1E2E5",
"#.	c #D0D1D3",
"$.	c #87888B",
"%.	c #87888A",
"&.	c #3C3E43",
"*.	c #C1C3C8",
"=.	c #D7D9DE",
"-.	c #3B3E42",
";.	c #C1C3C7",
">.	c #C0C3C7",
",.	c #D6D9DD",
"'.	c #A7AAAF",
").	c #3B3D42",
"!.	c #C0C2C7",
"~.	c #D6D8DD",
"{.	c #D6D9DE",
"    . + @ @ @ @ @ # ",
"  $ % & * * * * * * ",
"= - ; > > > > , > > ",
"' ) ! ~ ~ ~ ~ ~ ~ ~ ",
"{ ] ^ ~ / / / / / / ",
"{ ( _ _ ^ : / : : / ",
"< ( _ [ [ } | } } | ",
"1 2 3 4 5 5 6 6 5 5 ",
"7 2 8 9 9 9 0 3 0 9 ",
"7 a b c c c c c c c ",
"7 d e f e e e e e e ",
"g h e i i j j i j j ",
"k l m n n i n n i i ",
"k h o p q q q q q q ",
"k l n r r s s s s s ",
"t u p v w w w w w w ",
"t u x y y y y y y y ",
"t z w A A A A A B B ",
"t l C D E E E E E E ",
"t z F G G G G G G G ",
"H I D J J J J J J J ",
"H K L M M N N N N N ",
"H I O P Q Q Q R Q Q ",
"t K S T T T T T T T ",
"H U V W X X W W W W ",
"t U Y Z Z Z Z Z Z Z ",
"H U `  . . . . . . .",
"H ..+.@.@.@.@.@.@.@.",
"t U #.#.#.#.#.#.#.#.",
"H $.%.%.%.%.%.%.%.%.",
"H H H H H H H H H H ",
"&.b *.=.&.          ",
"-.0 ;.=.&.          ",
"-.0 >.,.-.          ",
"&.b *.=.&.          ",
"&.b *.=.&.          ",
"&.b *.=.&.          ",
"&.b *.=.&.          ",
"&.b *.=.&.          ",
"&.b *.=.&.          ",
"&.b *.=.&.          ",
"-.b *.=.&.          ",
"&.b *.=.&.          ",
"-.0 ;.=.&.          ",
"-.0 >.,.-.          ",
"&.b *.=.&.          ",
"&.b *.=.&.          ",
"&.b *.=.&.          ",
"&.b *.=.&.          ",
"&.b *.=.&.          ",
"&.b *.=.&.          ",
"&.b *.=.&.          ",
"-.b *.=.&.          ",
"-.0 >.,.-.          ",
"-.0 >.,.-.          ",
"-.0 >.,.-.          ",
"-.'.>.,.-.          ",
").0 >.,.-.          ",
").0 >.,.-.          ",
").3 !.~.).          ",
").3 !.~.).          ",
").3 >.,.-.          ",
").3 >.,.-.          ",
").0 >.{.-.          "};
