/* XPM */
static char * close_inactive_xpm[] = {
"14 23 73 1",
" 	c None",
".	c #A0A0A0",
"+	c #FFFFFF",
"@	c #FFFEFF",
"#	c #FCFCFD",
"$	c #FAFAFA",
"%	c #F8F8F8",
"&	c #F5F5F5",
"*	c #F4F3F4",
"=	c #F2F1F1",
"-	c #EFEEEF",
";	c #EDEDED",
">	c #FEFFFF",
",	c #FCFDFD",
"'	c #F8F7F7",
")	c #F3F4F3",
"!	c #F1F1F1",
"~	c #EEEFEF",
"{	c #EDEDEC",
"]	c #EAEAEA",
"^	c #FCFCFC",
"/	c #F7F8F8",
"(	c #F3F3F3",
"_	c #F1F0F1",
":	c #EEEEEF",
"<	c #ECECEC",
"[	c #E8E7E8",
"}	c #F9F9F9",
"|	c #F7F7F8",
"1	c #F1F0F0",
"2	c #EAE9E9",
"3	c #E7E7E7",
"4	c #E5E5E5",
"5	c #F4F5F5",
"6	c #F2F3F3",
"7	c #F0F0F0",
"8	c #EEEEEE",
"9	c #E5E4E5",
"0	c #E3E3E3",
"a	c #F2F2F3",
"b	c #EBEBEC",
"c	c #E9E9E9",
"d	c #E5E5E4",
"e	c #E3E2E2",
"f	c #E0E0E0",
"g	c #F2F2F2",
"h	c #EFEFEF",
"i	c #EDEEED",
"j	c #E4E4E4",
"k	c #E2E2E2",
"l	c #DFE0DF",
"m	c #DEDDDD",
"n	c #EFF0F0",
"o	c #EBEBEB",
"p	c #E9E9E8",
"q	c #E7E6E6",
"r	c #E5E4E4",
"s	c #DEDEDD",
"t	c #DBDBDC",
"u	c #EBEAEA",
"v	c #E9E8E8",
"w	c #E6E6E6",
"x	c #E2E2E1",
"y	c #E0DFE0",
"z	c #DDDEDD",
"A	c #DBDBDB",
"B	c #D9D9D9",
"C	c #E8E8E9",
"D	c #DFDFE0",
"E	c #DDDDDD",
"F	c #DBDADB",
"G	c #D8D8D9",
"H	c #D6D6D6",
"              ",
"              ",
"              ",
"              ",
"..............",
".+++++++++++++",
".++@#$%&*=-;.+",
".+>,$'&)!~{].+",
".+^$/&(_:<][.+",
".+}|&(1:<234.+",
".+'5678<2390.+",
".+&a78bc3def.+",
".+ghibc3jklm.+",
".+n;opqrkfst.+",
".+;uvwjxyzAB.+",
".+uCwjxDEFGH.+",
".+...........+",
".+++++++++++++",
"              ",
"              ",
"              ",
"              ",
"              "};
