/* XPM */
static char * close_active_xpm[] = {
"14 23 72 1",
" 	c None",
".	c #D29C1A",
"+	c #FFFF3F",
"@	c #FFDC38",
"#	c #FEFE3E",
"$	c #FDF93B",
"%	c #FDF637",
"&	c #FBF134",
"*	c #FAEE30",
"=	c #F9E92D",
"-	c #F8E629",
";	c #F7E226",
">	c #F6DE22",
",	c #FFFD3D",
"'	c #FDF93A",
")	c #FCF537",
"!	c #FBF233",
"~	c #F8EA2D",
"{	c #F8E529",
"]	c #F6E226",
"^	c #F6DD22",
"/	c #F5DA1F",
"(	c #FAED2F",
"_	c #F9E92C",
":	c #F6E126",
"<	c #F4DA1F",
"[	c #F3D51C",
"}	c #FCF536",
"|	c #FCF134",
"1	c #FAED30",
"2	c #F7E629",
"3	c #F6E225",
"4	c #F5DD22",
"5	c #F3D119",
"6	c #FBF033",
"7	c #F7E529",
"8	c #F7E126",
"9	c #F2D118",
"0	c #F1CE15",
"a	c #FAEC2F",
"b	c #F5D91E",
"c	c #F4D51B",
"d	c #F1CD14",
"e	c #F0C911",
"f	c #F8E528",
"g	c #F6E025",
"h	c #F4D91F",
"i	c #F3D51B",
"j	c #EFC50E",
"k	c #F8E429",
"l	c #F6E125",
"m	c #F6DC21",
"n	c #F4D81F",
"o	c #F3D41B",
"p	c #F1D117",
"q	c #EEC50D",
"r	c #EDC10A",
"s	c #F5DD21",
"t	c #F4D91E",
"u	c #F2D117",
"v	c #F0CD14",
"w	c #F0C811",
"x	c #EDBD07",
"y	c #F5DC21",
"z	c #F4D81E",
"A	c #F3D41A",
"B	c #F1CC14",
"C	c #EFC911",
"D	c #EFC50D",
"E	c #EEC10A",
"F	c #ECBC07",
"G	c #EBB903",
"              ",
"              ",
"              ",
"              ",
"..............",
".++++++++++++@",
".++#$%&*=-;>.@",
".+,')!*~{]^/.@",
".+')&(_{:><[.@",
".+}|1_234<[5.@",
".+6(_78^<[90.@",
".+a_{:^bc9de.@",
".+_fg4hi9dej.@",
".+klmnopdeqr.@",
".+gstouvwjrx.@",
".+yzAuBCDEFG.@",
".+...........@",
".@@@@@@@@@@@@@",
"              ",
"              ",
"              ",
"              ",
"              "};
