/* XPM */
static char * title_1_active_xpm[] = {
"5 23 25 1",
" 	c None",
".	c #989898",
"+	c #FFFF50",
"@	c #FFD94C",
"#	c #FFD73F",
"$	c #FFD740",
"%	c #FFD741",
"&	c #FFD431",
"*	c #FFD432",
"=	c #FFD433",
"-	c #FFD434",
";	c #FFD124",
">	c #FFD125",
",	c #FFD126",
"'	c #FFCE16",
")	c #FFCE17",
"!	c #FFCE18",
"~	c #FFCF19",
"{	c #FFCB09",
"]	c #FFCC0A",
"^	c #FFCC0B",
"/	c #FFCA00",
"(	c #FFFFFF",
"_	c #D8D8D8",
":	c #888888",
".....",
"+++++",
"@@@@@",
"@@@@@",
"@@@@@",
"@@@@@",
"@@@@@",
"@@@@@",
"@@@@@",
"##$%%",
"&**=-",
";;>,,",
"')!!~",
"{]]^^",
"/////",
"/////",
"/////",
"/////",
"/////",
"/////",
"(((((",
"_____",
":::::"};
