/* XPM */
static char * title_3_active_xpm[] = {
"16 23 33 1",
" 	c None",
".	c #989898",
"+	c #FFFF50",
"@	c #FFD94C",
"#	c #FFD743",
"$	c #FFD742",
"%	c #FFD741",
"&	c #FFD740",
"*	c #FFD73F",
"=	c #FFD535",
"-	c #FFD434",
";	c #FFD433",
">	c #FFD432",
",	c #FFD431",
"'	c #FFD126",
")	c #FFD125",
"!	c #FFD124",
"~	c #FFD123",
"{	c #FFD122",
"]	c #FFCE18",
"^	c #FFCE17",
"/	c #FFCE16",
"(	c #FFCE15",
"_	c #FFCE14",
":	c #FFCB09",
"<	c #FFCB08",
"[	c #FFCB07",
"}	c #FFCB06",
"|	c #FFCB05",
"1	c #FFCA00",
"2	c #FFFFFF",
"3	c #D8D8D8",
"4	c #888888",
"................",
"++++++++++++++++",
"@@@@@@@@@@@@@@@@",
"@@@@@@@@@@@@@@@@",
"@@@@@@@@@@@@@@@@",
"@@@@@@@@@@@@@@@@",
"@@@@@@@@@@@@@@@@",
"@@@@@@@@@@@@@@@@",
"@@@@@@@@@@@@@@@@",
"####$$$$$%%%&&&*",
"=-----;;;>>>>,,,",
"'''))))!!!~~~~~{",
"]^^^////((((____",
"::<<<[[[[[}}}|||",
"1111111111111111",
"1111111111111111",
"1111111111111111",
"1111111111111111",
"1111111111111111",
"1111111111111111",
"2222222222222222",
"3333333333333333",
"4444444444444444"};
