/* XPM */
static char * title_4_active_xpm[] = {
"16 23 38 1",
" 	c None",
".	c #989898",
"+	c #FFFF50",
"@	c #FFD94C",
"#	c #E9B605",
"$	c #606060",
"%	c #FFD94B",
"&	c #FFD63D",
"*	c #FFD63E",
"=	c #FFD73F",
"-	c #FFD740",
";	c #E9B604",
">	c #FFD32E",
",	c #FFD32F",
"'	c #FFD330",
")	c #FFD431",
"!	c #E9B503",
"~	c #FFD01F",
"{	c #FFD020",
"]	c #FFD021",
"^	c #FFD122",
"/	c #FFD123",
"(	c #E9B502",
"_	c #FFCD10",
":	c #FFCD11",
"<	c #FFCD12",
"[	c #FFCD13",
"}	c #FFCE14",
"|	c #E9B501",
"1	c #FFCA02",
"2	c #FFCA03",
"3	c #FFCA04",
"4	c #FFCB05",
"5	c #E9B500",
"6	c #FFCA00",
"7	c #FFFFFF",
"8	c #D8D8D8",
"9	c #888888",
"..............  ",
"++++++++++++++. ",
"@@@@@@@@@@@@@@#$",
"@@@@@@@@@@@@@@#$",
"@@@@@@@@@@@@@@#$",
"@@@@@@@@@@@@@@#$",
"@@@@@@@@@@@@@@#$",
"@@@@@@@@@@@@@@#$",
"%%@@@@@@@@@@@@#$",
"&&&&&***=====-;$",
">>>>,,,'''')))!$",
"~~{{{{]]]]^^^/($",
"_:::<<<<<[[[}}|$",
"111222233334445$",
"666666666666665$",
"666666666666665$",
"666666666666665$",
"666666666666665$",
"666666666666665$",
"666666666666665$",
"7777777777777777",
"8888888888888888",
"9999999999999999"};
