/* XPM */
static char * title_2_inactive_xpm[] = {
"5 23 6 1",
" 	c None",
".	c #989898",
"+	c #FFFFFF",
"@	c #E8E8E8",
"#	c #D8D8D8",
"$	c #888888",
".....",
"+++++",
"@@@@@",
"@@@@@",
"@@@@@",
"@@@@@",
"@@@@@",
"@@@@@",
"@@@@@",
"@@@@@",
"@@@@@",
"@@@@@",
"@@@@@",
"@@@@@",
"@@@@@",
"@@@@@",
"@@@@@",
"@@@@@",
"@@@@@",
"@@@@@",
"+++++",
"#####",
"$$$$$"};
