/* XPM */
static char * title_4_inactive_xpm[] = {
"16 23 8 1",
" 	c None",
".	c #989898",
"+	c #FFFFFF",
"@	c #E8E8E8",
"#	c #C6C6C6",
"$	c #606060",
"%	c #D8D8D8",
"&	c #888888",
"..............  ",
"++++++++++++++. ",
"@@@@@@@@@@@@@@#$",
"@@@@@@@@@@@@@@#$",
"@@@@@@@@@@@@@@#$",
"@@@@@@@@@@@@@@#$",
"@@@@@@@@@@@@@@#$",
"@@@@@@@@@@@@@@#$",
"@@@@@@@@@@@@@@#$",
"@@@@@@@@@@@@@@#$",
"@@@@@@@@@@@@@@#$",
"@@@@@@@@@@@@@@#$",
"@@@@@@@@@@@@@@#$",
"@@@@@@@@@@@@@@#$",
"@@@@@@@@@@@@@@#$",
"@@@@@@@@@@@@@@#$",
"@@@@@@@@@@@@@@#$",
"@@@@@@@@@@@@@@#$",
"@@@@@@@@@@@@@@#$",
"@@@@@@@@@@@@@@#$",
"++++++++++++++++",
"%%%%%%%%%%%%%%%%",
"&&&&&&&&&&&&&&&&"};
