/* XPM */
static char * top_left_inactive_xpm[] = {
"25 44 6 1",
" 	c None",
".	c #989898",
"+	c #FFFFFF",
"@	c #E8E8E8",
"#	c #D8D8D8",
"$	c #888888",
"  .......................",
" .+++++++++++++++++++++++",
".++@@@@@@@@@@@@@@@@@@@@@@",
".+@@@@@@@@@@@@@@@@@@@@@@@",
".+@@@@@@@@@@@@@@@@@@@@@@@",
".+@@@@@@@@@@@@@@@@@@@@@@@",
".+@@@@@@@@@@@@@@@@@@@@@@@",
".+@@@@@@@@@@@@@@@@@@@@@@@",
".+@@@@@@@@@@@@@@@@@@@@@@@",
".+@@@@@@@@@@@@@@@@@@@@@@@",
".+@@@@@@@@@@@@@@@@@@@@@@@",
".+@@@@@@@@@@@@@@@@@@@@@@@",
".+@@@@@@@@@@@@@@@@@@@@@@@",
".+@@@@@@@@@@@@@@@@@@@@@@@",
".+@@@@@@@@@@@@@@@@@@@@@@@",
".+@@@@@@@@@@@@@@@@@@@@@@@",
".+@@@@@@@@@@@@@@@@@@@@@@@",
".+@@@@@@@@@@@@@@@@@@@@@@@",
".+@@@@@@@@@@@@@@@@@@@@@@@",
".+@@@@@@@@@@@@@@@@@@@@@@@",
".++++++++++++++++++++++++",
".+@######################",
".+@.$$$$$$$$$$$$$$$$$$$$$",
".+@.                     ",
".+@.                     ",
".+@.                     ",
".+@.                     ",
".+@.                     ",
".+@.                     ",
".+@.                     ",
".+@.                     ",
".+@.                     ",
".+@.                     ",
".+@.                     ",
".+@.                     ",
".+@.                     ",
".+@.                     ",
".+@.                     ",
".+@.                     ",
".+@.                     ",
".+@.                     ",
".+@.                     ",
".+@.                     ",
".+@.                     "};
