/* XPM */
static char * top_left_active_xpm[] = {
"25 44 75 1",
" 	c None",
".	c #989898",
"+	c #FFFF50",
"@	c #FFD94C",
"#	c #FFD845",
"$	c #FFD846",
"%	c #FFD847",
"&	c #FFD848",
"*	c #FFD949",
"=	c #FFD94A",
"-	c #FFD94B",
";	c #FFD535",
">	c #FFD536",
",	c #FFD537",
"'	c #FFD538",
")	c #FFD539",
"!	c #FFD63A",
"~	c #FFD63B",
"{	c #FFD63C",
"]	c #FFD63D",
"^	c #FFD63E",
"/	c #FFD73F",
"(	c #FFD740",
"_	c #FFD741",
":	c #FFD742",
"<	c #FFD126",
"[	c #FFD227",
"}	c #FFD228",
"|	c #FFD229",
"1	c #FFD22A",
"2	c #FFD22B",
"3	c #FFD32C",
"4	c #FFD32D",
"5	c #FFD32E",
"6	c #FFD32F",
"7	c #FFD330",
"8	c #FFD431",
"9	c #FFD432",
"0	c #FFD433",
"a	c #FFCE16",
"b	c #FFCE17",
"c	c #FFCE18",
"d	c #FFCF19",
"e	c #FFCF1A",
"f	c #FFCF1B",
"g	c #FFCF1C",
"h	c #FFD01D",
"i	c #FFD01E",
"j	c #FFD01F",
"k	c #FFD020",
"l	c #FFD021",
"m	c #FFD122",
"n	c #FFD123",
"o	c #FFCB06",
"p	c #FFCB07",
"q	c #FFCB08",
"r	c #FFCB09",
"s	c #FFCC0A",
"t	c #FFCC0B",
"u	c #FFCC0C",
"v	c #FFCC0D",
"w	c #FFCC0E",
"x	c #FFCD0F",
"y	c #FFCD10",
"z	c #FFCD11",
"A	c #FFCD12",
"B	c #FFCD13",
"C	c #FFCA00",
"D	c #FFCA01",
"E	c #FFCA02",
"F	c #FFCA03",
"G	c #FFCA04",
"H	c #FFFFFF",
"I	c #D8D8D8",
"J	c #888888",
"  .......................",
" .+++++++++++++++++++++++",
".++@@@@@@@@@@@@@@@@@@@@@@",
".+@@@@@@@@@@@@@@@@@@@@@@@",
".+@@@@@@@@@@@@@@@@@@@@@@@",
".+@@@@@@@@@@@@@@@@@@@@@@@",
".+@@@@@@@@@@@@@@@@@@@@@@@",
".+@@@@@@@@@@@@@@@@@@@@@@@",
".+#$$%&&**=--@@@@@@@@@@@@",
".+;>,,'')!!~~{]]^^//(__::",
".+<<[[}||1123344556778890",
".+aabccddeffgghiijjkklmmn",
".+oppqrrsstuuvvwxxyyzAABB",
".+CCCCCCCCCCCCCCCCCDDEEFG",
".+CCCCCCCCCCCCCCCCCCCCCCC",
".+CCCCCCCCCCCCCCCCCCCCCCC",
".+CCCCCCCCCCCCCCCCCCCCCCC",
".+CCCCCCCCCCCCCCCCCCCCCCC",
".+CCCCCCCCCCCCCCCCCCCCCCC",
".+CCCCCCCCCCCCCCCCCCCCCCC",
".HHHHHHHHHHHHHHHHHHHHHHHH",
".HIIIIIIIIIIIIIIIIIIIIIII",
".HIJJJJJJJJJJJJJJJJJJJJJJ",
".HIJ                     ",
".HIJ                     ",
".HIJ                     ",
".HIJ                     ",
".HIJ                     ",
".HIJ                     ",
".HIJ                     ",
".HIJ                     ",
".HIJ                     ",
".HIJ                     ",
".HIJ                     ",
".HIJ                     ",
".HIJ                     ",
".HIJ                     ",
".HIJ                     ",
".HIJ                     ",
".HIJ                     ",
".HIJ                     ",
".HIJ                     ",
".HIJ                     ",
".HIJ                     "};
