/* XPM */
static char * menu_active_xpm[] = {
"14 25 6 1",
" 	c None",
".	c #6B6B6B",
"+	c #F2F2F2",
"@	c #C4C4C4",
"#	c #D0D0D0",
"$	c #E0E0E0",
"              ",
"              ",
"              ",
"              ",
"              ",
"              ",
"              ",
" ............ ",
" .++++++++++. ",
"  .+@@@@@@+.  ",
"   .+####+.   ",
"    .+$$+.    ",
"     .++.     ",
"      ..      ",
" ............ ",
" .++++++++++. ",
" .@@@@@@@@@@. ",
" ............ ",
"              ",
"              ",
"              ",
"              ",
"              ",
"              ",
"              "};
