/* XPM */
static char * menu_prelight_xpm[] = {
"26 29 4 1",
" 	c None",
".	c #FFFFFF",
"+	c #fbbc05",
"@	c #030303",
"                          ",
"                          ",
"                          ",
"                          ",
".+......................+.",
".+.@@@@@@@@@@@@@@@@@@@@.+.",
".+.@@@@@@@@@@@@@@@@@@@@.+.",
".+.@@@@@@@@@@@@@@@@@@@@.+.",
".+.@@@@@@@@@@@@@@@@@@@@.+.",
".+.@@@@@@@@@@@@@@@@@@@@.+.",
".+.@@@@@@@@@@@@@@@@@@@@.+.",
".+.@@@..@@@@@@@@@@..@@@.+.",
".+.@@@...@@@@@@@@...@@@.+.",
".+.@@@@...@@@@@@...@@@@.+.",
".+.@@@@@...@@@@...@@@@@.+.",
".+.@@@@@@...@@...@@@@@@.+.",
".+.@@@@@@@......@@@@@@@.+.",
".+.@@@@@@@@....@@@@@@@@.+.",
".+.@@@@@@@@@..@@@@@@@@@.+.",
".+.@@@@@@@@@@@@@@@@@@@@.+.",
".+.@@@@@@@@@@@@@@@@@@@@.+.",
".+.@@@@@@@@@@@@@@@@@@@@.+.",
".+.@@@@@@@@@@@@@@@@@@@@.+.",
".+.@@@@@@@@@@@@@@@@@@@@.+.",
".+.@@@@@@@@@@@@@@@@@@@@.+.",
".+......................+.",
"                          ",
"                          ",
"                          "};
