/* XPM */
static char * title_4_active_xpm[] = {
"8 29 3 1",
" 	c None",
".	c #fbbc05",
"+	c #FFFFFF",
"........",
"++++++++",
"........",
"........",
"++++++.+",
"++++++.+",
"++++++.+",
"++++++.+",
"++++++.+",
"++++++.+",
"++++++.+",
"++++++.+",
"++++++.+",
"++++++.+",
"++++++.+",
"++++++.+",
"++++++.+",
"++++++.+",
"++++++.+",
"++++++.+",
"++++++.+",
"++++++.+",
"++++++.+",
"++++++.+",
"++++++.+",
"++++++.+",
"........",
"........",
"++++++++"};
