/* XPM */
static char * bottom_inactive_xpm[] = {
"24 5 3 1",
" 	c None",
".	c #FFFFFF",
"+	c #df5e0b",
"........................",
"........................",
"++++++++++++++++++++++++",
"++++++++++++++++++++++++",
"........................"};
