/* XPM */
static char * stick_active_xpm[] = {
"26 29 4 1",
" 	c None",
".	c #FFFFFF",
"+	c #df5e0b",
"@	c #030303",
"                          ",
"                          ",
"                          ",
"                          ",
".+......................+.",
".+......................+.",
".+......................+.",
".+......................+.",
".+......................+.",
".+......@@@@@@@@@@......+.",
".+.....@@@@@@@@@@@@.....+.",
".+.....@@........@@.....+.",
".+.....@@........@@.....+.",
".+.....@@........@@.....+.",
".+.....@@........@@.....+.",
".+.....@@........@@.....+.",
".+.....@@........@@.....+.",
".+.....@@........@@.....+.",
".+.....@@........@@.....+.",
".+.....@@@@@@@@@@@@.....+.",
".+......@@@@@@@@@@......+.",
".+......................+.",
".+......................+.",
".+......................+.",
".+......................+.",
".+......................+.",
"                          ",
"                          ",
"                          "};
