/* XPM */
static char * title_2_inactive_xpm[] = {
"8 29 3 1",
" 	c None",
".	c #FFFFFF",
"+	c #df5e0b",
"........",
"++++++++",
"++++++++",
"........",
"........",
"........",
"........",
"........",
"........",
"........",
"........",
"........",
"........",
"........",
"........",
"........",
"........",
"........",
"........",
"........",
"........",
"........",
"........",
"........",
"........",
"........",
"........",
"++++++++",
"++++++++"};
