/* XPM */
static char * title_3_active_xpm[] = {
"8 29 3 1",
" 	c None",
".	c #df5e0b",
"+	c #FFFFFF",
"........",
"++++++++",
"........",
"........",
"++++++++",
"++++++++",
"++++++++",
"++++++++",
"++++++++",
"++++++++",
"++++++++",
"++++++++",
"++++++++",
"++++++++",
"++++++++",
"++++++++",
"++++++++",
"++++++++",
"++++++++",
"++++++++",
"++++++++",
"++++++++",
"++++++++",
"++++++++",
"++++++++",
"++++++++",
"........",
"........",
"++++++++"};
