/* XPM */
static char * top_left_inactive_xpm[] = {
"5 29 3 1",
" 	c None",
".	c #FFFFFF",
"+	c #df5e0b",
".....",
".++++",
".++++",
".++..",
".++..",
".++..",
".++..",
".++..",
".++..",
".++..",
".++..",
".++..",
".++..",
".++..",
".++..",
".++..",
".++..",
".++..",
".++..",
".++..",
".++..",
".++..",
".++..",
".++..",
".++..",
".++..",
".++..",
".++++",
".++++"};
