/* XPM */
static char * top_left_active_xpm[] = {
"5 29 3 1",
" 	c None",
".	c #df5e0b",
"+	c #FFFFFF",
".....",
".++++",
".+...",
".+...",
".+..+",
".+..+",
".+..+",
".+..+",
".+..+",
".+..+",
".+..+",
".+..+",
".+..+",
".+..+",
".+..+",
".+..+",
".+..+",
".+..+",
".+..+",
".+..+",
".+..+",
".+..+",
".+..+",
".+..+",
".+..+",
".+..+",
".+...",
".+...",
".+..+"};
