/* XPM */
static char * left_inactive_xpm[] = {
"5 24 3 1",
" 	c None",
".	c #4285f4",
"+	c #FFFFFF",
".+..+",
".+..+",
".+..+",
".+..+",
".+..+",
".+..+",
".+..+",
".+..+",
".+..+",
".+..+",
".+..+",
".+..+",
".+..+",
".+..+",
".+..+",
".+..+",
".+..+",
".+..+",
".+..+",
".+..+",
".+..+",
".+..+",
".+..+",
".+..+"};
