/* XPM */
static char * maximize_toggled_active_xpm[] = {
"26 29 4 1",
" 	c None",
".	c #FFFFFF",
"+	c #4285f4",
"@	c #030303",
"                          ",
"                          ",
"                          ",
"                          ",
".+......................+.",
".+......................+.",
".+......................+.",
".+......................+.",
".+........@@@@@@@@@@....+.",
".+........@@@@@@@@@@....+.",
".+........@@......@@....+.",
".+........@@......@@....+.",
".+........@@......@@....+.",
".+....@@@@@@@@@...@@....+.",
".+....@@@@@@@@@...@@....+.",
".+....@@.....@@...@@....+.",
".+....@@.....@@@@@@@....+.",
".+....@@.....@@@@@@@....+.",
".+....@@.....@@.........+.",
".+....@@.....@@.........+.",
".+....@@@@@@@@@.........+.",
".+....@@@@@@@@@.........+.",
".+......................+.",
".+......................+.",
".+......................+.",
".+......................+.",
"                          ",
"                          ",
"                          "};
