/* XPM */
static char * shade_prelight_xpm[] = {
"26 29 4 1",
" 	c None",
".	c #FFFFFF",
"+	c #4285f4",
"@	c #030303",
"                          ",
"                          ",
"                          ",
"                          ",
".+......................+.",
".+.@@@@@@@@@@@@@@@@@@@@.+.",
".+.@@@@@@@@@@@@@@@@@@@@.+.",
".+.@@@@@@@@@@@@@@@@@@@@.+.",
".+.@@@@@@@@@@@@@@@@@@@@.+.",
".+.@@@@@@@@@@@@@@@@@@@@.+.",
".+.@@@@............@@@@.+.",
".+.@@@@............@@@@.+.",
".+.@@@@@@@@@@@@@@@@@@@@.+.",
".+.@@@@@@@@@..@@@@@@@@@.+.",
".+.@@@@@@@@....@@@@@@@@.+.",
".+.@@@@@@@......@@@@@@@.+.",
".+.@@@@@@...@@...@@@@@@.+.",
".+.@@@@@...@@@@...@@@@@.+.",
".+.@@@@...@@@@@@...@@@@.+.",
".+.@@@@..@@@@@@@@..@@@@.+.",
".+.@@@@@@@@@@@@@@@@@@@@.+.",
".+.@@@@@@@@@@@@@@@@@@@@.+.",
".+.@@@@@@@@@@@@@@@@@@@@.+.",
".+.@@@@@@@@@@@@@@@@@@@@.+.",
".+.@@@@@@@@@@@@@@@@@@@@.+.",
".+......................+.",
"                          ",
"                          ",
"                          "};
