/* XPM */
static char * title_3_inactive_xpm[] = {
"8 29 3 1",
" 	c None",
".	c #FFFFFF",
"+	c #4285f4",
"........",
"++++++++",
"++++++++",
"........",
"........",
"........",
"........",
"........",
"........",
"........",
"........",
"........",
"........",
"........",
"........",
"........",
"........",
"........",
"........",
"........",
"........",
"........",
"........",
"........",
"........",
"........",
"........",
"++++++++",
"++++++++"};
