/* XPM */
static char * stick_pressed_xpm[] = {
"26 29 4 1",
" 	c None",
".	c #FFFFFF",
"+	c #34a853",
"@	c #030303",
"                          ",
"                          ",
"                          ",
"                          ",
".+......................+.",
".+......................+.",
".+..@@@@@@@@@@@@@@@@@@..+.",
".+..@@@@@@@@@@@@@@@@@@..+.",
".+..@@@@@@@@@@@@@@@@@@..+.",
".+..@@@@..........@@@@..+.",
".+..@@@............@@@..+.",
".+..@@@..@@@@@@@@..@@@..+.",
".+..@@@..@@@@@@@@..@@@..+.",
".+..@@@..@@@@@@@@..@@@..+.",
".+..@@@..@@@@@@@@..@@@..+.",
".+..@@@..@@@@@@@@..@@@..+.",
".+..@@@..@@@@@@@@..@@@..+.",
".+..@@@..@@@@@@@@..@@@..+.",
".+..@@@..@@@@@@@@..@@@..+.",
".+..@@@............@@@..+.",
".+..@@@@..........@@@@..+.",
".+..@@@@@@@@@@@@@@@@@@..+.",
".+..@@@@@@@@@@@@@@@@@@..+.",
".+..@@@@@@@@@@@@@@@@@@..+.",
".+......................+.",
".+......................+.",
"                          ",
"                          ",
"                          "};
