<?xml version="1.0" encoding="UTF-8" standalone="no"?>
<!-- Uploaded to: SVG Repo, www.svgrepo.com, Generator: SVG Repo Mixer Tools -->

<svg
   fill="#000000"
   version="1.1"
   id="Capa_1"
   width="48"
   height="48"
   viewBox="0 0 48 48"
   xml:space="preserve"
   sodipodi:docname="hwinfo.svg"
   inkscape:version="1.4.3 (0d15f75042, 2025-12-25)"
   xmlns:inkscape="http://www.inkscape.org/namespaces/inkscape"
   xmlns:sodipodi="http://sodipodi.sourceforge.net/DTD/sodipodi-0.dtd"
   xmlns="http://www.w3.org/2000/svg"
   xmlns:svg="http://www.w3.org/2000/svg"><defs
   id="defs1" /><sodipodi:namedview
   id="namedview1"
   pagecolor="#ffffff"
   bordercolor="#000000"
   borderopacity="0.25"
   inkscape:showpageshadow="2"
   inkscape:pageopacity="0.0"
   inkscape:pagecheckerboard="0"
   inkscape:deskcolor="#d1d1d1"
   inkscape:zoom="12.16"
   inkscape:cx="22.985197"
   inkscape:cy="24.095395"
   inkscape:window-width="1411"
   inkscape:window-height="884"
   inkscape:window-x="0"
   inkscape:window-y="0"
   inkscape:window-maximized="0"
   inkscape:current-layer="Capa_1"
   showgrid="true"><inkscape:grid
     type="axonomgrid"
     id="grid1"
     units="px"
     originx="0"
     originy="0"
     spacingx="3.7795276"
     spacingy="3.7795276"
     empcolor="#0099e5"
     empopacity="0.30196078"
     color="#0099e5"
     opacity="0.14901961"
     empspacing="5"
     dotted="false"
     gridanglex="30"
     gridanglez="30"
     enabled="true"
     visible="true" /></sodipodi:namedview>

<g
   id="g13"
   transform="matrix(1.0139104,0,0,1.0139104,10.102115,-0.33297406)"><path
     style="fill:none;fill-rule:evenodd;stroke:#000000;stroke-width:0.5;stroke-linecap:butt;stroke-linejoin:miter;stroke-dasharray:none;stroke-opacity:1"
     d="M 16.282895,23.848684 V 47.368421"
     id="path2"
     inkscape:connector-type="polyline"
     inkscape:connector-curvature="0" /><path
     style="fill:none;fill-rule:evenodd;stroke:#8e388e;stroke-width:0.5;stroke-linecap:butt;stroke-linejoin:miter;stroke-dasharray:none;stroke-opacity:1"
     d="M 29.3125,16.355263 V 39.875"
     id="path2-1"
     inkscape:connector-type="polyline"
     inkscape:connector-curvature="0" /><path
     style="fill:none;fill-rule:evenodd;stroke:#000000;stroke-width:0.5;stroke-linecap:butt;stroke-linejoin:miter;stroke-dasharray:none;stroke-opacity:1"
     d="M 16.200658,47.368421 29.6875,39.555921"
     id="path3"
     inkscape:connector-type="polyline"
     inkscape:connector-curvature="0" /><path
     style="display:inline;fill:none;fill-rule:evenodd;stroke:#000000;stroke-width:0.380064;stroke-linecap:butt;stroke-linejoin:miter;stroke-dasharray:none;stroke-opacity:1"
     d="M 16.219162,23.907718 29.520691,16.319667"
     id="path1"
     inkscape:connector-type="polyline"
     inkscape:connector-curvature="0" /><path
     style="fill:none;fill-rule:evenodd;stroke:#8e388e;stroke-width:0.5;stroke-linecap:butt;stroke-linejoin:miter;stroke-dasharray:none;stroke-opacity:1"
     d="M 32.763158,14.279605 V 37.799342"
     id="path2-1-2"
     inkscape:connector-type="polyline"
     inkscape:connector-curvature="0" /><path
     style="fill:none;fill-rule:evenodd;stroke:#8e388e;stroke-width:0.5;stroke-linecap:butt;stroke-linejoin:miter;stroke-dasharray:none;stroke-opacity:1"
     d="m 32.8125,37.664474 -3.371711,2.055921"
     id="path4"
     inkscape:connector-type="polyline"
     inkscape:connector-curvature="0" /><path
     style="fill:none;fill-rule:evenodd;stroke:#8e388e;stroke-width:0.5;stroke-linecap:butt;stroke-linejoin:miter;stroke-dasharray:none;stroke-opacity:1"
     d="m 32.7091,14.200291 -3.371711,2.055921"
     id="path4-7"
     inkscape:connector-type="polyline"
     inkscape:connector-curvature="0" /><path
     style="fill:none;fill-rule:evenodd;stroke:#000000;stroke-width:0.5;stroke-linecap:butt;stroke-linejoin:miter;stroke-dasharray:none;stroke-opacity:1"
     d="M 16.200658,47.203947 -7.2368421,33.634868"
     id="path5"
     inkscape:connector-type="polyline"
     inkscape:connector-curvature="0" /><path
     style="fill:none;fill-rule:evenodd;stroke:#000000;stroke-width:0.5;stroke-linecap:butt;stroke-linejoin:miter;stroke-dasharray:none;stroke-opacity:1"
     d="M 16.299601,23.976225 -7.1378988,10.407146"
     id="path5-3"
     inkscape:connector-type="polyline"
     inkscape:connector-curvature="0" /><path
     style="fill:none;fill-rule:evenodd;stroke:#8e388e;stroke-width:0.5;stroke-linecap:butt;stroke-linejoin:miter;stroke-dasharray:none;stroke-opacity:1"
     d="M 29.269996,16.32162 5.8324958,2.7525412"
     id="path5-9"
     inkscape:connector-type="polyline"
     inkscape:connector-curvature="0" /><path
     style="fill:none;fill-rule:evenodd;stroke:#8e388e;stroke-width:0.5;stroke-linecap:butt;stroke-linejoin:miter;stroke-dasharray:none;stroke-opacity:1"
     d="M 32.93447,14.07491 9.4969695,0.50583068"
     id="path5-4"
     inkscape:connector-type="polyline"
     inkscape:connector-curvature="0" /><path
     style="fill:none;fill-rule:evenodd;stroke:#000000;stroke-width:0.5;stroke-linecap:butt;stroke-linejoin:miter;stroke-dasharray:none;stroke-opacity:1"
     d="M -7.2529785,10.476194 6.2338635,2.6636944"
     id="path3-1"
     inkscape:connector-type="polyline"
     inkscape:connector-curvature="0" /><path
     style="fill:none;fill-rule:evenodd;stroke:#8e388e;stroke-width:0.5;stroke-linecap:butt;stroke-linejoin:miter;stroke-dasharray:none;stroke-opacity:1"
     d="M 9.5939683,0.64765953 6.2222573,2.7035805"
     id="path4-7-5"
     inkscape:connector-type="polyline"
     inkscape:connector-curvature="0" /><path
     style="fill:none;fill-rule:evenodd;stroke:#000000;stroke-width:0.5;stroke-linecap:butt;stroke-linejoin:miter;stroke-dasharray:none;stroke-opacity:1"
     d="M -7.1546053,10.444079 V 33.963816"
     id="path2-2"
     inkscape:connector-type="polyline"
     inkscape:connector-curvature="0" /><path
     style="fill:#1b1b1b;fill-opacity:1;stroke:#000000;stroke-width:0.0411184;stroke-dasharray:none;stroke-opacity:1"
     d="m 4.5457245,40.110933 -11.4082224,-6.59942 -0.00214,-11.288971 -0.00214,-11.288971 0.2778966,0.145879 c 0.1528431,0.08023 5.2961033,3.050895 11.4294669,6.601471 l 11.1515704,6.455592 0.0015,11.287007 c 7.99e-4,6.207853 -0.0078,11.286968 -0.01911,11.28692 -0.01131,-4.8e-5 -5.154259,-2.969826 -11.4287821,-6.599507 z"
     id="path6" /><path
     style="fill:#333333;stroke:#000000;stroke-width:0.0411184;stroke-dasharray:none;stroke-opacity:1"
     d="m 16.573245,35.390525 0.0025,-11.418486 6.130851,-3.495065 c 3.371968,-1.922287 6.16483,-3.507402 6.20636,-3.522478 0.04562,-0.01656 0.07551,4.462714 0.07551,11.316874 v 11.344286 l -5.941612,3.440556 c -3.267887,1.892306 -6.061883,3.51081 -6.208882,3.596677 l -0.267269,0.15612 z"
     id="path7" /><path
     style="fill:none;fill-rule:evenodd;stroke:#ffffff;stroke-width:0.5;stroke-linecap:butt;stroke-linejoin:miter;stroke-dasharray:none;stroke-opacity:1"
     d="m 20.765798,28.878678 -2.713816,1.726973"
     id="path13-0"
     inkscape:connector-type="polyline"
     inkscape:connector-curvature="0"
     sodipodi:nodetypes="cc" /><path
     style="fill:#333333;stroke:#000000;stroke-width:0.0411184;stroke-dasharray:none;stroke-opacity:1"
     d="M 4.9342105,17.053897 C -1.2623355,13.459657 -6.376031,10.492733 -6.4295571,10.460733 -6.5128126,10.41096 5.629801,3.2946212 5.917486,3.224586 5.989168,3.207135 28.654002,16.257825 28.808391,16.405451 c 0.02958,0.02829 -12.306264,7.086361 -12.486998,7.144555 -0.0664,0.02138 -5.190636,-2.901868 -11.3871825,-6.496109 z"
     id="path8" /><path
     style="fill:#8e388e;fill-opacity:1;stroke:#8e388e;stroke-width:0.0411184;stroke-dasharray:none;stroke-opacity:1"
     d="M 17.953722,9.4308257 C 11.771526,5.8480918 6.690272,2.8936711 6.6620472,2.8654463 6.5970741,2.8004732 9.4777141,1.0399431 9.6602586,1.0330614 9.7989149,1.0278342 32.26985,13.982024 32.275071,14.070194 c 0.0028,0.04678 -2.986573,1.888552 -3.050128,1.879223 -0.01697,-0.0025 -5.089024,-2.935858 -11.271221,-6.5185913 z"
     id="path9" /><path
     style="fill:#8e388e;fill-opacity:1;stroke:#8e388e;stroke-width:0.0411184;stroke-dasharray:none;stroke-opacity:1"
     d="m 29.565404,27.937108 c 6.93e-4,-6.251511 0.02845,-11.407791 0.06168,-11.4584 0.03323,-0.05061 0.597013,-0.417364 1.252852,-0.815013 0.655839,-0.397649 1.275699,-0.776822 1.377467,-0.842607 l 0.185033,-0.119609 V 26.121897 37.542316 L 32.09293,37.75423 c -0.192229,0.116554 -0.839844,0.512819 -1.439145,0.880589 l -1.089638,0.668673 z"
     id="path10" /><path
     style="fill:none;fill-rule:evenodd;stroke:#909090;stroke-width:0.5;stroke-linecap:butt;stroke-linejoin:miter;stroke-dasharray:none;stroke-opacity:1"
     d="m 27.796053,19.243421 -9.950658,5.592105"
     id="path11"
     inkscape:connector-type="polyline"
     inkscape:connector-curvature="0" /><path
     style="fill:none;fill-rule:evenodd;stroke:#909090;stroke-width:0.5;stroke-linecap:butt;stroke-linejoin:miter;stroke-dasharray:none;stroke-opacity:1"
     d="M 27.869191,20.451495 17.918533,26.0436"
     id="path11-6"
     inkscape:connector-type="polyline"
     inkscape:connector-curvature="0" /><path
     style="fill:none;fill-rule:evenodd;stroke:#909090;stroke-width:0.5;stroke-linecap:butt;stroke-linejoin:miter;stroke-dasharray:none;stroke-opacity:1"
     d="m 27.869191,21.829784 -9.950658,5.592105"
     id="path11-3"
     inkscape:connector-type="polyline"
     inkscape:connector-curvature="0" /><path
     style="fill:none;fill-rule:evenodd;stroke:#909090;stroke-width:0.5;stroke-linecap:butt;stroke-linejoin:miter;stroke-dasharray:none;stroke-opacity:1"
     d="m 27.826427,23.181757 -9.950658,5.592105"
     id="path11-2"
     inkscape:connector-type="polyline"
     inkscape:connector-curvature="0" /><path
     style="fill:none;fill-rule:evenodd;stroke:#474747;stroke-width:0.5;stroke-linecap:butt;stroke-linejoin:miter;stroke-dasharray:none;stroke-opacity:1"
     d="M -5.5098689,12.828947 14.391447,24.424342"
     id="path12"
     inkscape:connector-type="polyline"
     inkscape:connector-curvature="0" /><path
     style="fill:none;fill-rule:evenodd;stroke:#474747;stroke-width:0.5;stroke-linecap:butt;stroke-linejoin:miter;stroke-dasharray:none;stroke-opacity:1"
     d="M -5.6504588,15.268641 14.250857,26.864036"
     id="path12-4"
     inkscape:connector-type="polyline"
     inkscape:connector-curvature="0" /><path
     style="fill:none;fill-rule:evenodd;stroke:#474747;stroke-width:0.5;stroke-linecap:butt;stroke-linejoin:miter;stroke-dasharray:none;stroke-opacity:1"
     d="M -5.6076956,16.508772 14.29362,28.104167"
     id="path12-7"
     inkscape:connector-type="polyline"
     inkscape:connector-curvature="0" /><path
     style="fill:none;fill-rule:evenodd;stroke:#464646;stroke-width:0.5;stroke-linecap:butt;stroke-linejoin:miter;stroke-dasharray:none;stroke-opacity:1"
     d="M -5.5550641,14.107457 14.346252,25.702851"
     id="path12-8"
     inkscape:connector-type="polyline"
     inkscape:connector-curvature="0" /><path
     style="fill:none;fill-rule:evenodd;stroke:#ffffff;stroke-width:0.5;stroke-linecap:butt;stroke-linejoin:miter;stroke-dasharray:none;stroke-opacity:1"
     d="m 32.319079,16.200658 -2.713816,1.726973"
     id="path13"
     inkscape:connector-type="polyline"
     inkscape:connector-curvature="0"
     sodipodi:nodetypes="cc" /><path
     d="M 42.319079,9.200658"
     style="fill:none;fill-rule:evenodd;stroke:#ffffff;stroke-width:0.5;stroke-linecap:butt;stroke-linejoin:miter;stroke-dasharray:none;stroke-opacity:1"
     id="path1-1" /></g><g
   id="g25"
   transform="matrix(0.65429048,0,0,0.65429048,-6.3078918,19.052631)"><g
     id="Path_0"
     style="clip-rule:nonzero;fill:#ffffff;fill-opacity:1;stroke:#000000;stroke-miterlimit:4"
     transform="scale(0.5)">
		<path
   d="m 64.51,19.36 -6.14,-1.41 -2.41,-1.4 -1.45,-1.87 -0.25,-2.33 V 9.07 L 21.22,27.59 v 0 l 0.14,3.38 1.45,1.87 5.14,2.67 3.43,0.13 3.62,-0.69 z"
   id="path1-3" />
	</g><g
     id="Path_1"
     style="clip-rule:nonzero;fill:#3862b4;fill-opacity:1;stroke:#000000;stroke-miterlimit:4"
     transform="scale(0.5)">
		<path
   d="M 35,34.95 68.17,17.43 V 69.98 L 35,87.5 Z"
   id="path2-6" />
	</g><g
     id="Path_2"
     style="clip-rule:nonzero;fill:#3838dc;fill-opacity:1;stroke:#000000;stroke-miterlimit:4"
     transform="scale(0.5)">
		<path
   d="M 21.13,25.37 54.31,8.58 54.26,10.75 21.22,27.59 Z"
   id="path3-7" />
	</g><g
     id="Path_3"
     style="clip-rule:nonzero;fill:none;fill-opacity:1;stroke:#000000;stroke-miterlimit:4"
     transform="scale(0.5)">
		<path
   d="m 34.52,87.39 -3.63,0.7 -6.14,-1.41 -2.42,-1.4 -1.45,-1.87 -0.24,-2.34 v -3.26"
   id="path4-5" />
	</g><g
     id="Path_4"
     style="clip-rule:nonzero;fill:#3862b4;fill-opacity:1;stroke:#000000;stroke-miterlimit:4"
     transform="scale(0.5)">
		<path
   d="M 20.64,81.07 20.63,26 l 0.5,-0.63 0.23,5.6 1.45,1.87 5.14,2.67 3.43,0.13 L 35,34.95 V 87.5 l -4.11,0.59 -3.27,-0.75 -2.87,-0.66 -2.42,-1.4 -1.45,-1.87 z"
   id="path5-35" />
	</g><g
     id="Path_5"
     style="clip-rule:nonzero;fill:none;fill-opacity:1;stroke:#000000;stroke-miterlimit:4"
     transform="scale(0.5)">
		<path
   d="M 34.61,49.38 H 25.78 L 20.64,42.45"
   id="path6-6" />
	</g><g
     id="Path_6"
     style="clip-rule:nonzero;fill:none;fill-opacity:1;stroke:#000000;stroke-miterlimit:4"
     transform="scale(0.5)">
		<path
   d="M 55.05,15.68 25.98,29.97"
   id="path7-2" />
	</g><g
     id="Path_7"
     style="clip-rule:nonzero;fill:none;fill-opacity:1;stroke:#000000;stroke-miterlimit:4"
     transform="scale(0.5)">
		<path
   d="M 58.39,18.53 27.14,33.8"
   id="path8-9" />
	</g><g
     id="Circle"
     style="clip-rule:nonzero;fill:#ffffff;fill-opacity:1;stroke:#000000;stroke-miterlimit:4"
     transform="scale(0.5)">
		<path
   d="m 51.03,33.36 1.16,-0.58 1.99,0.29 1.16,1.68 v 1.31 1.31 l -1.16,2.86 -1.99,2.32 -1.16,0.59 -1.15,0.58 -1.99,-0.29 -1.15,-1.68 v -1.31 -1.31 l 1.15,-2.86 1.99,-2.32 z"
   id="path9-1" />
	</g><g
     id="Path_9"
     style="clip-rule:nonzero;fill:#ffffff;fill-opacity:1;stroke:#000000;stroke-miterlimit:4"
     transform="scale(0.5)">
		<path
   d="M 46.6,50.43 V 75.6 l 8.87,-4.52 V 45.91 Z"
   id="path10-2" />
	</g><g
     id="Path_10"
     style="clip-rule:nonzero;fill:#ffffff;fill-opacity:1;stroke:#000000;stroke-miterlimit:4"
     transform="scale(0.5)">
		<path
   d="m 20.64,42.45 6.84,6.93 7.52,0.02 v 4.78 l -8.74,0.09 -5.82,-5.28 z"
   id="path11-7" />
	</g><g
     id="Path_11"
     style="clip-rule:nonzero;fill:none;fill-opacity:1;stroke:#f8fcf8;stroke-miterlimit:4"
     transform="scale(0.5)">
		<path
   d="M 29.76,82.26 V 58.69"
   id="path12-0" />
	</g><g
     id="Path_12"
     style="clip-rule:nonzero;fill:none;fill-opacity:1;stroke:#f8fcf8;stroke-miterlimit:4"
     transform="scale(0.5)">
		<path
   d="M 29.76,45.59 V 38.87"
   id="path13-9" />
	</g></g><path
   style="fill:#ffffff;stroke:#ffffff;stroke-width:0.0411184"
   d="m 40.166735,17.834254 c -0.04928,-0.09208 -0.06503,-0.191989 -0.035,-0.222019 0.03003,-0.03003 0.615482,-0.412614 1.301006,-0.850187 0.920117,-0.587314 1.273549,-0.77306 1.350089,-0.709537 0.05703,0.04733 0.10349,0.127776 0.103255,0.178776 -2.36e-4,0.051 -0.592026,0.4702 -1.31509,0.931556 -1.246187,0.79514 -1.319327,0.83011 -1.40426,0.671411 z"
   id="path14" /><path
   style="fill:#ffffff;stroke:#ffffff;stroke-width:0.0411184"
   d="m 40.16681,17.834395 c -0.05037,-0.09412 -0.0604,-0.200908 -0.02229,-0.237301 0.03811,-0.03639 0.623151,-0.418875 1.300086,-0.849958 0.921331,-0.586719 1.257331,-0.761761 1.336349,-0.696182 0.05806,0.04818 0.1051,0.129333 0.10454,0.180333 -0.0011,0.09894 -0.06928,0.146642 -1.621428,1.134309 -0.966636,0.615092 -1.009225,0.633288 -1.097257,0.468799 z"
   id="path15" /><path
   style="fill:#ffffff;stroke:#ffffff;stroke-width:0.0411184"
   d="m 40.163407,17.828036 c -0.112399,-0.210021 -0.228131,-0.114047 1.389228,-1.152057 0.852235,-0.546959 1.143047,-0.695795 1.225619,-0.627266 0.257654,0.213834 0.240731,0.227857 -1.883592,1.56086 -0.629998,0.395321 -0.635693,0.397022 -0.731255,0.218463 z"
   id="path16" /></svg>
