<?xml version="1.0" encoding="UTF-8" standalone="no"?>
<svg
   width="22"
   height="22"
   viewBox="0 0 22 22"
   xml:space="preserve"
   version="1.1"
   id="svg13"
   sodipodi:docname="call-stop.svg"
   inkscape:version="1.4.3 (0d15f75042, 2025-12-25)"
   xmlns:inkscape="http://www.inkscape.org/namespaces/inkscape"
   xmlns:sodipodi="http://sodipodi.sourceforge.net/DTD/sodipodi-0.dtd"
   xmlns="http://www.w3.org/2000/svg"
   xmlns:svg="http://www.w3.org/2000/svg"><defs
   id="defs13">
	
	
	
	
	
	
	
	
	
	
	
	
</defs><sodipodi:namedview
   id="namedview13"
   pagecolor="#ffffff"
   bordercolor="#000000"
   borderopacity="0.25"
   inkscape:showpageshadow="2"
   inkscape:pageopacity="0.0"
   inkscape:pagecheckerboard="0"
   inkscape:deskcolor="#d1d1d1"
   inkscape:document-units="pt"
   inkscape:zoom="13.995"
   inkscape:cx="33.261879"
   inkscape:cy="16.041443"
   inkscape:window-width="2133"
   inkscape:window-height="1107"
   inkscape:window-x="0"
   inkscape:window-y="0"
   inkscape:window-maximized="1"
   inkscape:current-layer="svg13" />
<g
   id="g1"
   transform="matrix(0.46120314,0,0,0.46120314,-0.14173527,-0.06600354)"
   style="stroke-width:1.08412098;stroke-dasharray:none"><g
     id="Path_0"
     style="clip-rule:nonzero;fill:#f5f5dc;fill-opacity:1;fill-rule:nonzero;stroke:none;stroke-miterlimit:4;stroke-width:1.71195698;stroke-dasharray:none"
     transform="matrix(0.63326415,0,0,0.63326415,-9.1409417,-11.183395)">
		<path
   d="m 77.38,65.84 12.16,6.08 v 8.11 L 75,87.5 50.67,79.39 36.95,69.84 Z"
   id="path1"
   style="fill:#f5f5dc;fill-opacity:1;stroke-width:1.71195698;stroke-dasharray:none" />
	</g><g
     id="Path_1"
     style="clip-rule:nonzero;fill:#f5f5dc;fill-opacity:1;fill-rule:nonzero;stroke:none;stroke-miterlimit:4;stroke-width:1.71195698;stroke-dasharray:none"
     transform="matrix(0.63326415,0,0,0.63326415,-9.1409417,-11.183395)">
		<path
   d="M 47.48,45.54 42.74,51.63 20,50 15,37.5 20,30 37.14,23.93 Z"
   id="path2"
   style="fill:#f5f5dc;fill-opacity:1;stroke-width:1.71195698;stroke-dasharray:none" />
	</g><g
     id="Path_2"
     style="clip-rule:nonzero;fill:#f5f5dc;fill-opacity:1;fill-rule:nonzero;stroke:none;stroke-miterlimit:4;stroke-width:1.71195698;stroke-dasharray:none"
     transform="matrix(0.63326415,0,0,0.63326415,-9.1409417,-11.183395)">
		<path
   d="M 49.14,57.23 30,65 20,50 42.74,51.63 Z"
   id="path3"
   style="fill:#f5f5dc;fill-opacity:1;stroke-width:1.71195698;stroke-dasharray:none" />
	</g><g
     id="Path_3"
     style="clip-rule:nonzero;fill:#f5f5dc;fill-opacity:1;fill-rule:nonzero;stroke:none;stroke-miterlimit:4;stroke-width:1.71195698;stroke-dasharray:none"
     transform="matrix(0.63326415,0,0,0.63326415,-9.1409417,-11.183395)">
		<path
   d="m 57.14,63.93 10.8,3.7 L 36.7,69.84 29.75,65 48.89,57.23 Z"
   id="path4"
   style="fill:#f5f5dc;fill-opacity:1;stroke-width:1.71195698;stroke-dasharray:none" />
	</g><g
     id="Path_4"
     style="clip-rule:nonzero;fill:#b2b2a2;fill-opacity:1;fill-rule:nonzero;stroke:none;stroke-miterlimit:4;stroke-width:1.71195698;stroke-dasharray:none"
     transform="matrix(0.63326415,0,0,0.63326415,-9.1409417,-11.183395)">
		<path
   d="m 32.14,56.43 10.6,-4.8 4.74,-6.09 -12.4,4.7 z"
   id="path5"
   style="fill:#b2b2a2;fill-opacity:1;stroke-width:1.71195698;stroke-dasharray:none" />
	</g><g
     id="Path_6"
     style="clip-rule:nonzero;fill:none;fill-opacity:1;stroke:#000000;stroke-miterlimit:4;stroke-width:1.71195698;stroke-dasharray:none"
     transform="matrix(0.63326415,0,0,0.63326415,-9.1409417,-11.183395)">
		<path
   d="M 47.48,45.54 35.08,50.24 29.2,39.4"
   id="path7"
   style="stroke-width:1.71195698;stroke-dasharray:none" />
	</g><g
     id="Path_7"
     style="clip-rule:nonzero;fill:none;fill-opacity:1;stroke:#000000;stroke-miterlimit:4;stroke-width:1.71195698;stroke-dasharray:none"
     transform="matrix(0.63326415,0,0,0.63326415,-9.1409417,-11.183395)">
		<path
   d="m 78.94,70.93 -6.3,3.12"
   id="path8"
   style="stroke-width:1.71195698;stroke-dasharray:none" />
	</g><g
     id="Path_8"
     style="clip-rule:nonzero;fill:none;fill-opacity:1;stroke:#000000;stroke-miterlimit:4;stroke-width:1.71195698;stroke-dasharray:none"
     transform="matrix(0.63326415,0,0,0.63326415,-9.1409417,-11.183395)">
		<path
   d="m 82.94,72.43 -6.3,3.12"
   id="path9"
   style="stroke-width:1.71195698;stroke-dasharray:none" />
	</g><g
     id="Path_10"
     style="clip-rule:nonzero;fill:none;fill-opacity:1;stroke:#000000;stroke-miterlimit:4;stroke-width:1.71195698;stroke-dasharray:none"
     transform="matrix(0.63326415,0,0,0.63326415,-9.1409417,-11.183395)">
		<path
   d="m 32.8,30.2 4.4,1.4 4.54,8.83 L 39,43.2 35,42.5 30.8,34.6 Z"
   id="path10"
   style="stroke-width:1.71195698;stroke-dasharray:none" />
	</g><g
     id="Path_11"
     style="clip-rule:nonzero;fill:none;fill-opacity:1;stroke:#000000;stroke-miterlimit:4;stroke-width:1.71195698;stroke-dasharray:none"
     transform="matrix(0.63326415,0,0,0.63326415,-9.1409417,-11.183395)">
		<path
   d="m 35.08,50.24 -2.94,6.19 6.26,5.87 16.18,11.43 8.26,-0.42 14.54,-7.47 12.16,6.08 v 8.11 L 75,87.5 50.67,79.39 30,65 20,50 15,37.5 20,30 l 5,-2.5 12.14,-3.57 10.34,21.61 -4.74,6.09 6.4,5.6 8.25,6.7 9.5,3.3 10.49,-1.39"
   id="path11"
   style="stroke-width:1.71195698;stroke-dasharray:none" />
	</g><g
     id="g12"
     style="clip-rule:nonzero;fill:#000000;fill-opacity:1;stroke:#000000;stroke-miterlimit:4;stroke-width:1.71195698;stroke-dasharray:none"
     transform="matrix(0.63326415,0,0,0.63326415,-9.1409417,-11.183395)">
		<path
   d="m 80.95,79.33 1.31,2 1.28,-3.3 z"
   id="path12"
   style="stroke-width:1.71195698;stroke-dasharray:none" />
	</g></g>
<g
   style="fill:#000000"
   id="g4"
   transform="translate(-6.7725593,-7.5804433)"><g
     id="g3"
     transform="rotate(44.738037,22.980839,23.723361)"><g
       id="g2"
       transform="matrix(-0.02879408,0,0,-0.02644897,29.211676,29.44672)"><g
         id="g1-3">
	<path
   d="m 147.103,432.785 h 138.581 c 6.902,0 12.5,-5.596 12.5,-12.5 V 298.182 h 122.102 c 6.904,0 12.5,-5.597 12.5,-12.5 V 147.104 c 0,-6.903 -5.596,-12.5 -12.5,-12.5 H 298.184 V 12.5 C 298.184,5.597 292.586,0 285.684,0 H 147.103 c -6.904,0 -12.5,5.597 -12.5,12.5 V 134.604 H 12.5 c -6.904,0 -12.5,5.597 -12.5,12.5 v 138.578 c 0,6.903 5.596,12.5 12.5,12.5 h 122.103 v 122.104 c 0,6.903 5.597,12.499 12.5,12.499 z M 25,273.182 V 159.604 h 122.103 c 6.903,0 12.5,-5.597 12.5,-12.5 V 25 h 113.581 v 122.104 c 0,6.903 5.596,12.5 12.5,12.5 H 407.786 V 273.182 H 285.684 c -6.904,0 -12.5,5.598 -12.5,12.5 V 407.786 H 159.603 V 285.682 c 0,-6.902 -5.597,-12.5 -12.5,-12.5 z"
   id="path1-6" />
</g><path
         style="fill:#ffd42a;stroke-width:0.467876"
         d="m 159.77954,345.60953 c 0,-70.23208 0.28947,-64.87316 -3.72072,-68.88335 -4.01019,-4.01019 1.34873,-3.72072 -68.883354,-3.72072 H 25.031349 V 216.3925 159.77954 h 62.144117 c 70.232084,0 64.873164,0.28947 68.883354,-3.72072 4.01019,-4.01019 3.72072,1.34873 3.72072,-68.883354 V 25.031349 h 56.61296 56.61296 v 62.144117 c 0,70.232084 -0.28947,64.873164 3.72072,68.883354 4.01019,4.01019 -1.34873,3.72072 68.88335,3.72072 h 62.14412 v 56.61296 56.61296 h -62.14412 c -70.23208,0 -64.87316,-0.28947 -68.88335,3.72072 -4.01019,4.01019 -3.72072,-1.34873 -3.72072,68.88335 v 62.14412 H 216.3925 159.77954 Z"
         id="path2-7" /></g><path
       style="fill:#ff0000;stroke-width:0.25"
       d="M 21.448923,26.9375 21.375,25.25 19.4375,25.176984 17.5,25.103968 V 23.75 22.396032 l 1.9375,-0.07302 1.9375,-0.07302 0.07392,-1.6875 0.07392,-1.6875 H 23 24.477155 l 0.07392,1.6875 0.07392,1.6875 1.8125,0.07345 1.8125,0.07345 V 23.760953 25.125 H 26.375 24.5 v 1.75 1.75 h -1.488577 -1.488578 z"
       id="path3-5" /></g></g></svg>
