/* XPM */
static char * bottom_left_inactive_xpm[] = {
"19 22 13 1",
" 	c None",
".	c #424242",
"+	c #8C8C8C",
"@	c #C7C7C7",
"#	c #DDDDDD",
"$	c #8E8E8E",
"%	c #C0C0C0",
"&	c #D2D2D2",
"*	c #DBDBDB",
"=	c #E7E7E7",
"-	c #F2F2F2",
";	c #FCFCFC",
">	c #FDFDFD",
".+@#...............",
".+@################",
".+@@@@@@@@@@@@@@@@@",
".+@@@@@@@@@@@@@@@@@",
".+@@@@@@@@@@@@@@@@@",
".+@@@$@@@@@@@@@@@@@",
".+@@@$$@@@@@@@@@@@@",
".+@@@$%$@@@@@@@@@@@",
".+@@@$&%$@@@@@@@@@@",
".+@@@$*&%$@@@@@@@@@",
".+@@@$=*&%$@@@@@@@@",
".+@@@$-=*&%$@@@@@@@",
".+@@@$;-=*&%$@@@@@@",
".+@@@$>;-=*&%$@@@@@",
".+@@@$>>;-=*&%$@@@@",
".+@@@$$$$$$$$$$$@@@",
".+@@@@@@@@@@@@@@@@@",
".+@@@@@@@@@@@@@@@@@",
".+@@@@@@@@@@@@@@@@@",
".+@@@@@@@@@@@@@@@@@",
".++++++++++++++++++",
"..................."};
