/* XPM */
static char * close_inactive_xpm[] = {
"14 31 11 1",
" 	c None",
".	c #869090",
"+	c #F5F5F5",
"@	c #CED3D3",
"#	c #D9DCDC",
"$	c #E6E8E8",
"%	c #F0F2F2",
"&	c #F0F1F1",
"*	c #FDFDFD",
"=	c #FEFEFE",
"-	c #FCFCFC",
"              ",
"              ",
"              ",
"              ",
"              ",
"              ",
"              ",
"              ",
"              ",
"              ",
"  ..........  ",
"  .++++++++.  ",
"  .+@@@@@@+.  ",
"  .+######+.  ",
"  .+$$$$$$+.  ",
"  .+%%%%%&+.  ",
"  .+*==**-+.  ",
"  .+*==**-+.  ",
"  .++++++++.  ",
"  ..........  ",
"              ",
"              ",
"              ",
"              ",
"              ",
"              ",
"              ",
"              ",
"              ",
"              ",
"              "};
