/* XPM */
static char * left_inactive_xpm[] = {
"5 64 16 1",
" 	c None",
".	c #3C3E43",
"+	c #A8AAAF",
"@	c #C1C3C8",
"#	c #D7D9DE",
"$	c #3B3E42",
"%	c #A7AAAE",
"&	c #C1C3C7",
"*	c #C0C3C7",
"=	c #D6D9DD",
"-	c #A7AAAF",
";	c #3B3D42",
">	c #A7A9AE",
",	c #C0C2C7",
"'	c #D6D8DD",
")	c #D6D9DE",
".+@#.",
"$%&#.",
"$%*=$",
".+@#.",
".+@#.",
".+@#.",
".+@#.",
".+@#.",
".+@#.",
".+@#.",
"$+@#.",
".+@#.",
"$%&#.",
"$%*=$",
".+@#.",
".+@#.",
".+@#.",
".+@#.",
".+@#.",
".+@#.",
".+@#.",
"$+@#.",
"$%*=$",
"$%*=$",
"$%*=$",
"$-*=$",
";%*=$",
";%*=$",
";>,';",
";>,';",
";>*=$",
".+@#.",
"$%&#.",
"$%*=$",
".+@#.",
".+@#.",
".+@#.",
".+@#.",
".+@#.",
".+@#.",
".+@#.",
"$+@#.",
".+@#.",
"$%&#.",
"$%*=$",
".+@#.",
".+@#.",
".+@#.",
".+@#.",
".+@#.",
".+@#.",
".+@#.",
"$+@#.",
"$%*=$",
"$%*=$",
"$%*=$",
"$-*=$",
";%*=$",
";%*=$",
";>,';",
";>,';",
";>*=$",
";>*=$",
";%*)$"};
