/* XPM */
static char * shade_pressed_xpm[] = {
"14 25 16 1",
" 	c None",
".	c #5E5E5E",
"+	c #8C8C8C",
"@	c #828282",
"#	c #CDCDCD",
"$	c #8A8A8A",
"%	c #929292",
"&	c #898989",
"*	c #878787",
"=	c #808080",
"-	c #D5D5D5",
";	c #C6C6C6",
">	c #D1D1D1",
",	c #989898",
"'	c #DFDFDF",
")	c #DDDDDD",
"              ",
"              ",
"              ",
"              ",
"              ",
"              ",
"              ",
"  .......     ",
"  .+++++.     ",
"  .+@@@#.     ",
"  .+$.......  ",
"  .+%.%%&%%.  ",
"  .+#.%*=*-.  ",
"  ....&*;>-.  ",
"     .%,')-.  ",
"     .%----.  ",
"     .......  ",
"              ",
"              ",
"              ",
"              ",
"              ",
"              ",
"              ",
"              "};
