/* XPM */
static char * close_inactive_xpm[] = {
"15 13 114 2",
"  	c None",
". 	c #4A1303",
"+ 	c #491302",
"@ 	c #481302",
"# 	c #451202",
"$ 	c #441102",
"% 	c #461202",
"& 	c #4C1403",
"* 	c #521503",
"= 	c #571703",
"- 	c #5A1703",
"; 	c #712A14",
"> 	c #732A14",
", 	c #6D2813",
"' 	c #6C2813",
") 	c #762C15",
"! 	c #833117",
"~ 	c #8D3519",
"{ 	c #5B1803",
"] 	c #6E2913",
"^ 	c #5E1D09",
"/ 	c #5F1E0A",
"( 	c #601E0A",
"_ 	c #611E0A",
": 	c #621F0A",
"< 	c #641F0A",
"[ 	c #6E230B",
"} 	c #5C1803",
"| 	c #5D1D09",
"1 	c #F9F7F7",
"2 	c #F4F0EF",
"3 	c #EFE8E6",
"4 	c #EAE2DE",
"5 	c #E4DAD6",
"6 	c #DFD2CD",
"7 	c #D9C9C5",
"8 	c #66200B",
"9 	c #6A210B",
"0 	c #843117",
"a 	c #581703",
"b 	c #F6F3F2",
"c 	c #5C1C09",
"d 	c #591C09",
"e 	c #D5C4BE",
"f 	c #66200A",
"g 	c #6C220B",
"h 	c #7F2F16",
"i 	c #541603",
"j 	c #581B09",
"k 	c #F2EDEC",
"l 	c #501908",
"m 	c #E4DCDA",
"n 	c #DED4D0",
"o 	c #D8CCC9",
"p 	c #4D1807",
"q 	c #CEBCB7",
"r 	c #5B1C09",
"s 	c #69210B",
"t 	c #823017",
"u 	c #561603",
"v 	c #692712",
"w 	c #4B1707",
"x 	c #ECE7E5",
"y 	c #E0D6D4",
"z 	c #8D6A5F",
"A 	c #D3C6C2",
"B 	c #C5B5B0",
"C 	c #7C2E16",
"D 	c #431102",
"E 	c #5D2210",
"F 	c #4C1807",
"G 	c #E7E1DE",
"H 	c #DBD0CD",
"I 	c #D5C9C5",
"J 	c #CEC0BC",
"K 	c #481606",
"L 	c #C0AFA9",
"M 	c #521A08",
"N 	c #652512",
"O 	c #370D00",
"P 	c #571F0D",
"Q 	c #491606",
"R 	c #471506",
"S 	c #E2DAD8",
"T 	c #4A1606",
"U 	c #481506",
"V 	c #461505",
"W 	c #BBA9A3",
"X 	c #4C1706",
"Y 	c #5B200E",
"Z 	c #3D0E00",
"` 	c #350C00",
" .	c #541E0D",
"..	c #DED5D2",
"+.	c #D8CECB",
"@.	c #D1C4C0",
"#.	c #CBBDB8",
"$.	c #C4B4AF",
"%.	c #BEAAA5",
"&.	c #B6A29B",
"*.	c #3B0E00",
"=.	c #340C00",
"-.	c #531D0D",
";.	c #4D1706",
">.	c #5C210E",
",.	c #390D00",
"'.	c #380E02",
").	c #561E0D",
"!.	c #59200E",
"~.	c #5A200E",
"{.	c #390F02",
"].	c #3A0F02",
"^.	c #3C0F02",
"/.	c #3B0F02",
". . + @ @ @ @ @ # $ % & * = - ",
"@ ; ; ; ; > > > , ' ; ) ! ~ { ",
"# ] ^ ^ / ( _ : ^ / / < [ ~ } ",
"# ] ^ | 1 2 3 4 5 6 7 8 9 0 a ",
"# ] | | b c | | c d e f g h i ",
"@ ; | j k l m n o p q r s t u ",
"% v l w x p y z A p B p | C i ",
"D E p F G w H I J K L p M N & ",
"O P Q R S Q Q T U V W T X Y Z ",
"`  .R U ..+.@.#.$.%.&.T X Y *.",
"=.-.U U U U T T Q Q Q T ;.>.,.",
"'.).).).).).P !.P  .P ~.~.!.O ",
"{.{.{.{.{.{.].].{.'.{.^./././."};
