/* XPM */
static char * close_prelight_xpm[] = {
"15 13 39 1",
" 	c None",
".	c #9A2906",
"+	c #F65C2C",
"@	c #D24216",
"#	c #FDF7F5",
"$	c #FBF0ED",
"%	c #F9E8E3",
"&	c #F8E2DB",
"*	c #F6DBD3",
"=	c #F4D4CA",
"-	c #F3CCC0",
";	c #FCF3F0",
">	c #F1C7BA",
",	c #FAEDE9",
"'	c #F7DFD7",
")	c #F5D7CE",
"!	c #F4D1C6",
"~	c #F0C2B4",
"{	c #F6D9D1",
"]	c #E07F61",
"^	c #F2CBBF",
"/	c #EFBDAD",
"(	c #F8E3DD",
"_	c #F2CDC2",
":	c #F0C5B8",
"<	c #CF3F13",
"[	c #ECB6A6",
"}	c #912301",
"|	c #EC5526",
"1	c #C93C11",
"2	c #F5DCD5",
"3	c #E9B19F",
"4	c #F4D8CF",
"5	c #F2D1C7",
"6	c #EFC8BC",
"7	c #EEC1B4",
"8	c #ECBAAB",
"9	c #E9B2A1",
"0	c #E7AA98",
"...............",
".+++++++++++++.",
".+@@@@@@@@@@@+.",
".+@@#$%&*=-@@+.",
".+@@;@@@@@>@@+.",
".+@@,@')!@~@@+.",
".+@@%@{]^@/@@+.",
".+@@(@=_:<[@@+.",
"}|11211111311|}",
"}|11456789011|}",
"}|11111111111|}",
".|||||||||||||}",
"..............."};
