/* XPM */
static char * hide_pressed_xpm[] = {
"15 13 127 2",
"  	c None",
". 	c #453B02",
"+ 	c #443A02",
"@ 	c #433902",
"# 	c #413702",
"$ 	c #3F3502",
"% 	c #3D3402",
"& 	c #403602",
"* 	c #463C02",
"= 	c #4D4103",
"- 	c #534703",
"; 	c #564903",
"> 	c #675A12",
", 	c #685B12",
"' 	c #695B12",
") 	c #635611",
"! 	c #625611",
"~ 	c #6D5F13",
"{ 	c #7B6B16",
"] 	c #877618",
"^ 	c #584B03",
"/ 	c #3E3502",
"( 	c #645711",
"_ 	c #554908",
": 	c #564A09",
"< 	c #584B09",
"[ 	c #584C09",
"} 	c #594D09",
"| 	c #5C4F09",
"1 	c #685A0A",
"2 	c #594C03",
"3 	c #544908",
"4 	c #98916A",
"5 	c #958E66",
"6 	c #918A61",
"7 	c #928A5D",
"8 	c #8E8559",
"9 	c #898053",
"0 	c #867D4F",
"a 	c #5F520A",
"b 	c #63550A",
"c 	c #7D6D16",
"d 	c #544703",
"e 	c #544808",
"f 	c #756C3B",
"g 	c #746B39",
"h 	c #746A36",
"i 	c #726934",
"j 	c #6F6531",
"k 	c #6B622F",
"l 	c #887F52",
"m 	c #5E5109",
"n 	c #65570A",
"o 	c #776815",
"p 	c #504403",
"q 	c #4E4308",
"r 	c #6D653A",
"s 	c #6A6238",
"t 	c #645D34",
"u 	c #635B32",
"v 	c #61592F",
"w 	c #615A2F",
"x 	c #827B54",
"y 	c #514608",
"z 	c #62540A",
"A 	c #7A6B15",
"B 	c #524503",
"C 	c #5E5210",
"D 	c #453B07",
"E 	c #3F3606",
"F 	c #403706",
"G 	c #413806",
"H 	c #423906",
"I 	c #615A30",
"J 	c #7D7757",
"K 	c #736514",
"L 	c #4F4303",
"M 	c #3B3202",
"N 	c #4F450E",
"O 	c #938E74",
"P 	c #908B6F",
"Q 	c #8D876A",
"R 	c #898365",
"S 	c #3E3505",
"T 	c #5F5832",
"U 	c #7F795A",
"V 	c #473D07",
"W 	c #594E10",
"X 	c #302900",
"Y 	c #4A400B",
"Z 	c #3B3305",
"` 	c #9C9881",
" .	c #7F7A5B",
"..	c #7D7758",
"+.	c #9B967D",
"@.	c #3C3405",
"#.	c #5F5833",
"$.	c #807B5D",
"%.	c #3F3605",
"&.	c #423805",
"*.	c #4F450C",
"=.	c #372E00",
"-.	c #2D2600",
";.	c #473E0B",
">.	c #9A957D",
",.	c #979278",
"'.	c #948F73",
").	c #908B6E",
"!.	c #635B36",
"~.	c #847E61",
"{.	c #342C00",
"].	c #2C2600",
"^.	c #463D0B",
"/.	c #3D3405",
"(.	c #433905",
"_.	c #50460C",
":.	c #322A00",
"<.	c #2F2801",
"[.	c #493F0B",
"}.	c #4D430C",
"|.	c #4E440C",
"1.	c #302901",
"2.	c #312A01",
"3.	c #322B01",
"4.	c #342C02",
"5.	c #332C02",
"6.	c #332B02",
". + @ @ # # # @ $ % & * = - ; ",
"@ > > > , ' ' ' ) ! , ~ { ] ^ ",
"/ ( _ _ : < [ } _ : : | 1 ] 2 ",
"/ ( _ 3 4 5 6 7 8 9 0 a b c d ",
"$ ( 3 e f g h i j k l m n o p ",
"# > e q r s t u v w x y z A B ",
"& C D E F G G H F I J H e K L ",
"M N G F O P Q R S T U H V W * ",
"X Y S Z `  ...+.@.#.$.%.&.*.=.",
"-.;.Z @.>.,.'.).Z !.~.%.&.*.{.",
"].^.@.@.@.@.%.%.S S /.%.(._.:.",
"<.[.[.[.[.[.Y }.Y ;.Y |.|.}.X ",
"1.1.1.1.1.1.2.3.1.<.1.4.5.6.5."};
