/* XPM */
static char * hide_inactive_xpm[] = {
"15 13 103 2",
"  	c #333228",
". 	c #323128",
"+ 	c #323028",
"@ 	c #302E26",
"# 	c #312F27",
"$ 	c #353329",
"% 	c #38352B",
"& 	c #3B392D",
"* 	c #3D3A2D",
"= 	c #575549",
"- 	c #58564A",
"; 	c #555348",
"> 	c #545247",
", 	c #5B584C",
"' 	c #625F50",
") 	c #696654",
"! 	c #3E3C2E",
"~ 	c #454339",
"{ 	c #46443A",
"] 	c #47453B",
"^ 	c #49473B",
"/ 	c #4F4D3F",
"( 	c #444238",
"_ 	c #DBDBD9",
": 	c #D5D4D3",
"< 	c #CDCDCB",
"[ 	c #C8C8C5",
"} 	c #C1C1BE",
"| 	c #B9B8B5",
"1 	c #B2B1AE",
"2 	c #4A483C",
"3 	c #4D4A3E",
"4 	c #636151",
"5 	c #3C392D",
"6 	c #93928D",
"7 	c #908F8B",
"8 	c #8D8C87",
"9 	c #898883",
"0 	c #85847F",
"a 	c #80807A",
"b 	c #B7B6B3",
"c 	c #4E4B3E",
"d 	c #615E50",
"e 	c #3A382C",
"f 	c #403F36",
"g 	c #8C8B87",
"h 	c #868582",
"i 	c #83827E",
"j 	c #7E7D7A",
"k 	c #7E7D79",
"l 	c #B9B8B6",
"m 	c #434137",
"n 	c #4C493D",
"o 	c #625F51",
"p 	c #514F45",
"q 	c #3C3A33",
"r 	c #383730",
"s 	c #393831",
"t 	c #3A3932",
"u 	c #807F7C",
"v 	c #BCBCBA",
"w 	c #5E5C4E",
"x 	c #39372B",
"y 	c #2E2D26",
"z 	c #494840",
"A 	c #E9E9E8",
"B 	c #E1E1E1",
"C 	c #DADAD9",
"D 	c #D3D2D1",
"E 	c #36352E",
"F 	c #81807D",
"G 	c #C1C1BF",
"H 	c #3D3B33",
"I 	c #4F4D44",
"J 	c #272620",
"K 	c #44433B",
"L 	c #34332D",
"M 	c #FEFEFE",
"N 	c #C3C3C1",
"O 	c #BFBEBD",
"P 	c #F7F7F7",
"Q 	c #35342E",
"R 	c #82817E",
"S 	c #C6C6C5",
"T 	c #38362F",
"U 	c #46453D",
"V 	c #292821",
"W 	c #24231E",
"X 	c #42413A",
"Y 	c #F1F1F1",
"Z 	c #CBCBCA",
"` 	c #282720",
" .	c #42403A",
"..	c #393730",
"+.	c #47463E",
"@.	c #272621",
"#.	c #43423A",
"$.	c #45443C",
"%.	c #282722",
"&.	c #292822",
"*.	c #2B2923",
"=.	c #2A2922",
"-.	c #2A2823",
"    . . + + + . @ @ # $ % & * ",
". = = = = - - - ; > = , ' ) ! ",
"@ ; ~ ~ ~ { { ] ~ ~ ~ ^ / ) ! ",
"@ ; ~ ( _ : < [ } | 1 2 3 4 5 ",
"@ ; ( ( 6 7 8 9 0 a b 2 c d e ",
"+ = ( f 7 g h i j k l m n o e ",
"# p q r r s s t r u v t ( w x ",
"y z s r A B C D E F G t H I $ ",
"J K E L M N O P Q R S E T U V ",
"W X L Q P Y A B L h Z E T U ` ",
"W  .Q Q Q Q E E E E Q E ..+.J ",
"@.#.#.#.#.#.K $.K X K U U $.J ",
"%.%.%.%.%.%.%.&.%.@.%.*.=.-.=."};
