/* XPM */
static char * hide_prelight_xpm[] = {
"15 13 42 1",
" 	c None",
".	c #9A8306",
"+	c #F6D72C",
"@	c #D2B516",
"#	c #F6F0D0",
"$	c #F4EDC8",
"%	c #F2EABE",
"&	c #F0E7B5",
"*	c #EFE5AD",
"=	c #EDE1A3",
"-	c #EBDF9A",
";	c #E4D375",
">	c #E3D272",
",	c #E2D06D",
"'	c #E2CF69",
")	c #E1CD64",
"!	c #E0CC60",
"~	c #EDE1A1",
"{	c #E1CD63",
"]	c #EEE3A7",
"^	c #E1CE66",
"/	c #F9F6E3",
"(	c #F7F3DA",
"_	c #F6F0D1",
":	c #F3EDC8",
"<	c #CFB213",
"[	c #E0CD68",
"}	c #EFE6B3",
"|	c #917B01",
"1	c #ECCE26",
"2	c #C9AD11",
"3	c #FEFEFE",
"4	c #EEE5B5",
"5	c #EDE3AF",
"6	c #FCFBF5",
"7	c #DDCB69",
"8	c #EFE6B9",
"9	c #FAF8ED",
"0	c #F8F5E3",
"a	c #F6F2DA",
"b	c #DDCC6D",
"c	c #F0E9BF",
"...............",
".+++++++++++++.",
".+@@@@@@@@@@@+.",
".+@@#$%&*=-@@+.",
".+@@;>,')!~@@+.",
".+@@;>,'){]@@+.",
".+@@@@@@@^*@@+.",
".+@@/(_:<[}@@+.",
"|1223456278221|",
"|122690a2bc221|",
"|1222222222221|",
".1111111111111|",
"..............."};
