/* XPM */
static char * bottom_left_inactive_xpm[] = {
"3 3 4 1",
" 	c None",
".	c #78756F",
"+	c #D7D4CA",
"@	c #D9D3CA",
".++",
"..@",
" .."};
