/* XPM */
static char * bottom_right_inactive_xpm[] = {
"3 3 4 1",
" 	c None",
".	c #D7D4CA",
"+	c #78756F",
"@	c #D9D3CA",
"..+",
"@++",
"++ "};
