/* XPM */
static char * close_prelight_xpm[] = {
"20 22 59 1",
" 	c None",
".	c #79746F",
"+	c #D7D4CA",
"@	c #2B2B2B",
"#	c #3B3B3B",
"$	c #888888",
"%	c #878787",
"&	c #4E4E4E",
"*	c #4B4B4B",
"=	c #515151",
"-	c #545454",
";	c #585858",
">	c #5B5B5B",
",	c #5D5D5D",
"'	c #5A5A5A",
")	c #575757",
"!	c #535353",
"~	c #4F4F4F",
"{	c #555555",
"]	c #595959",
"^	c #5E5E5E",
"/	c #656565",
"(	c #676767",
"_	c #616161",
":	c #FFFEFE",
"<	c #FFFFFF",
"[	c #6E6E6E",
"}	c #757575",
"|	c #7B7B7B",
"1	c #787878",
"2	c #717171",
"3	c #8C8C8C",
"4	c #8D8D8D",
"5	c #898989",
"6	c #5F5F5F",
"7	c #565656",
"8	c #606060",
"9	c #6D6D6D",
"0	c #999999",
"a	c #9B9B9B",
"b	c #727272",
"c	c #737373",
"d	c #858585",
"e	c #8B8B8B",
"f	c #7A7A7A",
"g	c #6B6B6B",
"h	c #686868",
"i	c #777777",
"j	c #979797",
"k	c #9D9D9D",
"l	c #909090",
"m	c #7E7E7E",
"n	c #5C5C5C",
"o	c #666666",
"p	c #FFFEFD",
"q	c #FFFEFC",
"r	c #696969",
"s	c #636363",
"t	c #B4B5B1",
"....................",
"++++++++++++++++++++",
"@@@@@@@@@@@@@@@@@@@@",
"##$$$$$$$$$$$%$%%%##",
"&&$*&=-;>,,,')!~*%&&",
"##$&={]^/(((_,{!&%##",
"##%={:<[}||12<<]!$##",
"##$-><<<%345<<<67$##",
"##$;89<<<0a<<<b/'%##",
"##$>/cd<<<<<<efg6$##",
"##$>hi5j<<<<klm96$##",
"##%>(i5j<<<<klm96$##",
"##$nocd<<<<<<efg6$##",
"##$;89<<<0a<<<bo'$##",
"##$-n::<%345:::67$##",
"##%={p:[}||12:q]!$##",
"##$~=)n_(rrrs^)-~$##",
"##$*&=-;>,,,'7!&*$##",
"&&$%%$$%$$$$%$$$$$&&",
"####################",
"@@@@@@@@@@@@@@@@@@@@",
"tttttttttttttttttttt"};
