/* XPM */
static char * close_active_xpm[] = {
"20 22 14 1",
" 	c None",
".	c #79746F",
"+	c #D7D4CA",
"@	c #2B2B2B",
"#	c #3B3B3B",
"$	c #888888",
"%	c #878787",
"&	c #4E4E4E",
"*	c #4B4B4B",
"=	c #4C4C4C",
"-	c #494949",
";	c #484848",
">	c #FFFFFF",
",	c #B4B5B1",
"....................",
"++++++++++++++++++++",
"@@@@@@@@@@@@@@@@@@@@",
"##$$$$$$$$$$$%$%%%##",
"&&$**********=*=*%&&",
"##$**--;-------**%##",
"##%**>>******>>**$##",
"##$**>>>****>>>**$##",
"##$***>>>**>>>***%##",
"##$****>>>>>>****$##",
"##$*=***>>>>*****$##",
"##%*****>>>>*****$##",
"##$==**>>>>>>****$##",
"##$***>>>**>>>*=*$##",
"##$*=>>>****>>>**$##",
"##%**>>******>>**$##",
"##$=**=********==$##",
"##$**************$##",
"&&$%%$$%$$$$%$$$$$&&",
"####################",
"@@@@@@@@@@@@@@@@@@@@",
",,,,,,,,,,,,,,,,,,,,"};
