/* XPM */
static char * close_pressed_xpm[] = {
"20 22 32 1",
" 	c None",
".	c #79746F",
"+	c #D7D4CA",
"@	c #2B2B2B",
"#	c #3B3B3B",
"$	c #949494",
"%	c #939393",
"&	c #4E4E4E",
"*	c #5B5B5B",
"=	c #919191",
"-	c #CCCCCC",
";	c #CDCDCD",
">	c #5C5C5C",
",	c #D3D3D3",
"'	c #909090",
")	c #D4D4D4",
"!	c #D2D2D2",
"~	c #D0D0D0",
"{	c #D7D7D7",
"]	c #5A5A5A",
"^	c #929292",
"/	c #8D8D8D",
"(	c #8B8B8B",
"_	c #8F8F8F",
":	c #8E8E8E",
"<	c #8C8C8C",
"[	c #8A8A8A",
"}	c #848484",
"|	c #838383",
"1	c #828282",
"2	c #878787",
"3	c #B4B5B1",
"....................",
"++++++++++++++++++++",
"@@@@@@@@@@@@@@@@@@@@",
"##$%$$%$$$%$$$$$$$##",
"&&%**************$&&",
"##=**************$##",
"##=**-;**>>**,,**$##",
"##=**,,,****,,,**$##",
"##'***,,,**,),***$##",
"##$****,,!,,,****%##",
"##%*****~,,,*****$##",
"##%*****,,,~*****$##",
"##$**>*,),,,,****$##",
"##$***,{,*],,~***$##",
"##%**,,,****,,!**^##",
"##'**,,******,,**/##",
"##^**************(##",
"##$**************_##",
"&&%%$$$%:<[<}|12'%&&",
"####################",
"@@@@@@@@@@@@@@@@@@@@",
"33333333333333333333"};
