/* XPM */
static char * hide_prelight_xpm[] = {
"20 22 75 1",
" 	c None",
".	c #79746F",
"+	c #D7D4CA",
"@	c #2B2B2B",
"#	c #3B3B3B",
"$	c #888888",
"%	c #4E4E4E",
"&	c #878787",
"*	c #4B4B4B",
"=	c #4D4D4D",
"-	c #505050",
";	c #525252",
">	c #545454",
",	c #555555",
"'	c #535353",
")	c #515151",
"!	c #4F4F4F",
"~	c #4C4C4C",
"{	c #585858",
"]	c #5B5B5B",
"^	c #5D5D5D",
"/	c #5C5C5C",
"(	c #5A5A5A",
"_	c #565656",
":	c #606060",
"<	c #646464",
"[	c #686868",
"}	c #676767",
"|	c #626262",
"1	c #5E5E5E",
"2	c #616161",
"3	c #696969",
"4	c #707070",
"5	c #757575",
"6	c #737373",
"7	c #6D6D6D",
"8	c #666666",
"9	c #747474",
"0	c #7C7C7C",
"a	c #808080",
"b	c #818181",
"c	c #7E7E7E",
"d	c #797979",
"e	c #6F6F6F",
"f	c #656565",
"g	c #636363",
"h	c #7B7B7B",
"i	c #848484",
"j	c #8A8A8A",
"k	c #868686",
"l	c #767676",
"m	c #575757",
"n	c #7F7F7F",
"o	c #8F8F8F",
"p	c #919191",
"q	c #8C8C8C",
"r	c #7A7A7A",
"s	c #6E6E6E",
"t	c #595959",
"u	c #909090",
"v	c #929292",
"w	c #8E8E8E",
"x	c #858585",
"y	c #727272",
"z	c #898989",
"A	c #838383",
"B	c #787878",
"C	c #6C6C6C",
"D	c #828282",
"E	c #7D7D7D",
"F	c #FFFEFE",
"G	c #FFFFFF",
"H	c #FFFEFB",
"I	c #FFFEFC",
"J	c #B4B5B1",
"....................",
"++++++++++++++++++++",
"@@@@@@@@@@@@@@@@@@@@",
"##$$$$$$$$$$$$$$$$##",
"%%&**=-;>,,,')!~*$%%",
"##$*=)>{]^^/(_'!~&##",
"##$=),]:<[[}|1{'!$##",
"##&->]234556781{;$##",
"##$;{:390abcdef/,&##",
"##$>]g4hi$jkal3:m$##",
"##$,^[9n$opqirs|t$##",
"##$,^[5ajuvwxhs|t$##",
"##$,/8yc&qwzABC2{$##",
"##$'(|7BaixDE681_$##",
"##$)_FGGGGGGFFH('$##",
"##$!'FFFGGGGGFI,)$##",
"##&~!'{/:||21(,)=&##",
"##$*~!;,mtt{_')=*$##",
"%%$$$$$$&$&$&$$$$$%%",
"####################",
"@@@@@@@@@@@@@@@@@@@@",
"JJJJJJJJJJJJJJJJJJJJ"};
