/* XPM */
static char * hide_active_xpm[] = {
"20 22 12 1",
" 	c None",
".	c #79746F",
"+	c #D7D4CA",
"@	c #2B2B2B",
"#	c #3B3B3B",
"$	c #888888",
"%	c #4E4E4E",
"&	c #878787",
"*	c #4B4B4B",
"=	c #FFFFFF",
"-	c #FEFEFE",
";	c #B4B5B1",
"....................",
"++++++++++++++++++++",
"@@@@@@@@@@@@@@@@@@@@",
"##$$$$$$$$$$$$$$$$##",
"%%&**************$%%",
"##$**************&##",
"##$**************$##",
"##&**************$##",
"##$**************&##",
"##$**************$##",
"##$**************$##",
"##$**************$##",
"##$**************$##",
"##$**************$##",
"##$**==========**$##",
"##$**-=--------**$##",
"##&**************&##",
"##$**************$##",
"%%$$$$$$&$&$&$$$$$%%",
"####################",
"@@@@@@@@@@@@@@@@@@@@",
";;;;;;;;;;;;;;;;;;;;"};
