/* XPM */
static char * maximize_prelight_xpm[] = {
"20 22 57 1",
" 	c None",
".	c #79746F",
"+	c #D7D4CA",
"@	c #2B2B2B",
"#	c #3B3B3B",
"$	c #888888",
"%	c #878787",
"&	c #4E4E4E",
"*	c #4B4B4B",
"=	c #505050",
"-	c #565656",
";	c #5B5B5B",
">	c #606060",
",	c #666666",
"'	c #6B6B6B",
")	c #5A5A5A",
"!	c #515151",
"~	c #4C4C4C",
"{	c #575757",
"]	c #5E5E5E",
"^	c #707070",
"/	c #797979",
"(	c #808080",
"_	c #7F7F7F",
":	c #757575",
"<	c #6D6D6D",
"[	c #616161",
"}	c #525252",
"|	c #555555",
"1	c #FFFFFF",
"2	c #646464",
"3	c #656565",
"4	c #6F6F6F",
"5	c #6C6C6C",
"6	c #787878",
"7	c #626262",
"8	c #747474",
"9	c #5F5F5F",
"0	c #696969",
"a	c #818181",
"b	c #6E6E6E",
"c	c #777777",
"d	c #676767",
"e	c #858585",
"f	c #686868",
"g	c #868686",
"h	c #737373",
"i	c #6A6A6A",
"j	c #595959",
"k	c #636363",
"l	c #545454",
"m	c #4F4F4F",
"n	c #5D5D5D",
"o	c #767676",
"p	c #7B7B7B",
"q	c #7A7A7A",
"r	c #B4B5B1",
"....................",
"++++++++++++++++++++",
"@@@@@@@@@@@@@@@@@@@@",
"##$$%$$$$$$$%$$$$$##",
"&&$*=-;>,''',>)!~%&&",
"##$!{],^/((_:<[;}$##",
"##$|;11111111112)$##",
"##$)311111111114[$##",
"##$>51;[2,,2[;163$##",
"##$781930''0391ab$##",
"##$2c1[d5bb5d[1eb$##",
"##$2c17f5445f71g4$##",
"##$[h1[,i<<i,[1_5$##",
"##$]i1]2d00d2]1c2$##",
"##$jk1)97kk79)15]$##",
"##$l)1111111111k)$##",
"##%mlnk5oppqhi]j=$##",
"##$*mlj]kdddk]j!*$##",
"&&$$$$$$%%$$%$$$$$&&",
"####################",
"@@@@@@@@@@@@@@@@@@@@",
"rrrrrrrrrrrrrrrrrrrr"};
