/* XPM */
static char * maximize_pressed_xpm[] = {
"20 22 11 1",
" 	c None",
".	c #79746F",
"+	c #D7D4CA",
"@	c #2B2B2B",
"#	c #3B3B3B",
"$	c #939393",
"%	c #949494",
"&	c #4E4E4E",
"*	c #5B5B5B",
"=	c #D3D3D3",
"-	c #B4B5B1",
"....................",
"++++++++++++++++++++",
"@@@@@@@@@@@@@@@@@@@@",
"##$%$%%%%%%%%%%$%%##",
"&&$**************%&&",
"##%**************%##",
"##%**==========**$##",
"##$**==========**%##",
"##%**=********=**%##",
"##$**=********=**%##",
"##%**=********=**$##",
"##$**=********=**%##",
"##%**=********=**%##",
"##%**=********=**%##",
"##%**=********=**%##",
"##%**==========**$##",
"##%**************$##",
"##%**************%##",
"&&%%%$$$%%%%$%%%%%&&",
"####################",
"@@@@@@@@@@@@@@@@@@@@",
"--------------------"};
