/* XPM */
static char * title_1_active_xpm[] = {
"1 22 7 1",
" 	c None",
".	c #79746F",
"+	c #D7D4CA",
"@	c #2B2B2B",
"#	c #3B3B3B",
"$	c #4E4E4E",
"%	c #B4B5B1",
".",
"+",
"@",
"#",
"$",
"#",
"#",
"#",
"#",
"#",
"#",
"#",
"#",
"#",
"#",
"#",
"#",
"#",
"$",
"#",
"@",
"%"};
