/* XPM */
static char * title_4_active_xpm[] = {
"72 22 15 1",
" 	c None",
".	c #79746F",
"+	c #D7D4CA",
"@	c #2B2B2B",
"#	c #3B3B3B",
"$	c #4E4E4E",
"%	c #939393",
"&	c #929292",
"*	c #7E7E7E",
"=	c #6F6F6F",
"-	c #6E6E6E",
";	c #7F7F7F",
">	c #616161",
",	c #626262",
"'	c #B4B5B1",
"........................................................................",
"++++++++++++++++++++++++++++++++++++++++++++++++++++++++++++++++++++++++",
"@@@@@@@@@@@@@@@@@@@@@@@@@@@@@@@@@@@@@@@@@@@@@@@@@@@@@@@@@@@@@@@@@@@@@@@@",
"########################################################################",
"$$$$$$$$$$$$$$$$$$$$$$$$%&%&$****$$$$$$=---$$$$$$$$$$$$$$$$$$$$$$$$$$$$$",
"########################%%%%#****######----#############################",
"########################%&%%#****######=-=-#############################",
"########################%&&%#***;######=---#############################",
"########################################################################",
"########################****#%&&&#****######>>>,########################",
"########################***;#%&%%#**;*######,>>>########################",
"########################*;;*#%%%%#****######,>>>########################",
"########################*;**#&%%%#**;*######,,,>########################",
"########################################################################",
"#############################****######****#############################",
"#############################***;######***;#############################",
"#############################****######****#############################",
"#############################****######**;*#############################",
"$$$$$$$$$$$$$$$$$$$$$$$$$$$$$$$$$$$$$$$$$$$$$$$$$$$$$$$$$$$$$$$$$$$$$$$$",
"########################################################################",
"@@@@@@@@@@@@@@@@@@@@@@@@@@@@@@@@@@@@@@@@@@@@@@@@@@@@@@@@@@@@@@@@@@@@@@@@",
"''''''''''''''''''''''''''''''''''''''''''''''''''''''''''''''''''''''''"};
