/* XPM */
static char * top_left_active_xpm[] = {
"5 22 8 1",
" 	c None",
".	c #79746F",
"+	c #D7D4CA",
"@	c #2B2B2B",
"#	c #3B3B3B",
"$	c #4E4E4E",
"%	c #2D2D2D",
"&	c #B4B5B1",
".....",
".++++",
".+@@@",
".+@##",
".+@#$",
".+@#$",
".+@#$",
".+@#$",
".+@#$",
".+@#$",
".+@#$",
".+@#$",
".+@#$",
".+@#$",
".+@#$",
".+@#$",
".+@#$",
".+@#$",
".+@#$",
".+@##",
".+%@@",
".+%&&"};
