/* XPM */
static char * bottom_right_active_xpm[] = {
"19 22 12 1",
" 	c None",
".	c #19234D",
"+	c #92BFFF",
"@	c #618ECE",
"#	c #204D8D",
"$	c #6B6B6B",
"%	c #BDBDBD",
"&	c #D4D4D4",
"*	c #DFDFDF",
"=	c #EFEFEF",
"-	c #FDFDFD",
";	c #FFFFFF",
"...............+@#.",
"++++++++++++++++@#.",
"@@@@@@@@@@@@@@@@@#.",
"@@@@@@@@@@@@@@@@@#.",
"@@@@@@@@@@@@@@@@@#.",
"@@@@@@@@@@@@@$@@@#.",
"@@@@@@@@@@@@$$@@@#.",
"@@@@@@@@@@@$%$@@@#.",
"@@@@@@@@@@$%&$@@@#.",
"@@@@@@@@@$%&*$@@@#.",
"@@@@@@@@$%&*=$@@@#.",
"@@@@@@@$%&*=-$@@@#.",
"@@@@@@$%&*=-;$@@@#.",
"@@@@@$%&*=-;;$@@@#.",
"@@@@$%&*=-;;;$@@@#.",
"@@@$$$$$$$$$$$@@@#.",
"@@@@@@@@@@@@@@@@@#.",
"@@@@@@@@@@@@@@@@@#.",
"@@@@@@@@@@@@@@@@@#.",
"@@@@@@@@@@@@@@@@@#.",
"##################.",
"..................."};
