/* XPM */
static char * right_active_xpm[] = {
"5 64 5 1",
" 	c None",
".	c #19234D",
"+	c #92BFFF",
"@	c #618ECE",
"#	c #204D8D",
".+@#.",
".+@#.",
".+@#.",
".+@#.",
".+@#.",
".+@#.",
".+@#.",
".+@#.",
".+@#.",
".+@#.",
".+@#.",
".+@#.",
".+@#.",
".+@#.",
".+@#.",
".+@#.",
".+@#.",
".+@#.",
".+@#.",
".+@#.",
".+@#.",
".+@#.",
".+@#.",
".+@#.",
".+@#.",
".+@#.",
".+@#.",
".+@#.",
".+@#.",
".+@#.",
".+@#.",
".+@#.",
".+@#.",
".+@#.",
".+@#.",
".+@#.",
".+@#.",
".+@#.",
".+@#.",
".+@#.",
".+@#.",
".+@#.",
".+@#.",
".+@#.",
".+@#.",
".+@#.",
".+@#.",
".+@#.",
".+@#.",
".+@#.",
".+@#.",
".+@#.",
".+@#.",
".+@#.",
".+@#.",
".+@#.",
".+@#.",
".+@#.",
".+@#.",
".+@#.",
".+@#.",
".+@#.",
".+@#.",
".+@#."};
