/* XPM */
static char * title_1_active_xpm[] = {
"8 31 59 1",
" 	c None",
".	c #19234D",
"+	c #88A9E6",
"@	c #89A9E6",
"#	c #5F85C1",
"$	c #5F86C1",
"%	c #5E86C0",
"&	c #4D77B3",
"*	c #4D78B3",
"=	c #4D77B2",
"-	c #4D77B4",
";	c #4E78B5",
">	c #4E78B4",
",	c #507AB4",
"'	c #517BB5",
")	c #537DB8",
"!	c #527CB7",
"~	c #547EB9",
"{	c #547DB8",
"]	c #5580BA",
"^	c #5781BB",
"/	c #5681BB",
"(	c #5680BA",
"_	c #5984BE",
":	c #5883BD",
"<	c #5A85BF",
"[	c #5D88C1",
"}	c #5D88C2",
"|	c #5D87C1",
"1	c #5F8AC4",
"2	c #5E89C3",
"3	c #628CC6",
"4	c #618BC5",
"5	c #6791CB",
"6	c #6791CA",
"7	c #6A95CD",
"8	c #6994CC",
"9	c #709AD1",
"0	c #769ED5",
"a	c #759ED5",
"b	c #7BA3D9",
"c	c #82A8DC",
"d	c #87ADDF",
"e	c #8EB2E3",
"f	c #96B8E7",
"g	c #9DBEE9",
"h	c #9DBEEA",
"i	c #A6C4ED",
"j	c #ADCAF0",
"k	c #ADCBF0",
"l	c #ACCAF0",
"m	c #B4CFF2",
"n	c #B5CFF2",
"o	c #B5D0F2",
"p	c #BED6F4",
"q	c #BED6F5",
"r	c #8CB9F0",
"s	c #8BB8EF",
"t	c #4F6EAA",
"........",
"++++@@@@",
"#####$%%",
"&&&&&*==",
"-;;;>>>>",
",'''',,,",
"))))))!!",
"~~~~~~){",
"]^/^^(((",
"______::",
"<<<<<<__",
"[}}}}}||",
"11111122",
"33333344",
"55566555",
"77777788",
"99999999",
"0aaaaa00",
"bbbbbbbb",
"cccccccc",
"dddddddd",
"eeeeeeee",
"ffffffff",
"gghggghg",
"iiiiiiii",
"jjklkkkk",
"mmnmmnno",
"pppppppq",
"rrrrrrss",
"tttttttt",
"........"};
