/* XPM */
static char * top_right_active_xpm[] = {
"10 64 110 2",
"  	c None",
". 	c #19234D",
"+ 	c #88A9E6",
"@ 	c #7391C9",
"# 	c #5770A3",
"$ 	c #5F85C1",
"% 	c #5E85C0",
"& 	c #334E81",
"* 	c #4D77B3",
"= 	c #4C76B2",
"- 	c #4C77B2",
"; 	c #42659C",
"> 	c #4E78B5",
", 	c #4D77B4",
"' 	c #4E78B4",
") 	c #4F79B5",
"! 	c #4F7AB4",
"~ 	c #507AB4",
"{ 	c #517BB6",
"] 	c #517AB5",
"^ 	c #537DB7",
"/ 	c #537DB8",
"( 	c #527CB7",
"_ 	c #537CB7",
": 	c #5276B0",
"< 	c #547EB9",
"[ 	c #547DB8",
"} 	c #5171AB",
"| 	c #5580BA",
"1 	c #5680BA",
"2 	c #5070A8",
"3 	c #5983BE",
"4 	c #5882BD",
"5 	c #5883BD",
"6 	c #5984BE",
"7 	c #5882BC",
"8 	c #506EA8",
"9 	c #5A85BF",
"0 	c #5A83BD",
"a 	c #4F6BA5",
"b 	c #5D88C1",
"c 	c #5D87C0",
"d 	c #5D88C2",
"e 	c #5D87C1",
"f 	c #5C86C0",
"g 	c #4E6CA5",
"h 	c #5E89C3",
"i 	c #5F89C3",
"j 	c #5E87C1",
"k 	c #618BC5",
"l 	c #618CC5",
"m 	c #618CC6",
"n 	c #608AC3",
"o 	c #6691CA",
"p 	c #6690C9",
"q 	c #6791CA",
"r 	c #648CC6",
"s 	c #6A95CD",
"t 	c #6994CC",
"u 	c #6A94CD",
"v 	c #688FCA",
"w 	c #709AD1",
"x 	c #6F9AD1",
"y 	c #709AD2",
"z 	c #6B93CD",
"A 	c #759ED5",
"B 	c #6F98CE",
"C 	c #7BA3D9",
"D 	c #7BA2D9",
"E 	c #7499D1",
"F 	c #4E6CA6",
"G 	c #81A8DB",
"H 	c #82A8DB",
"I 	c #82A8DC",
"J 	c #82A8DD",
"K 	c #799ED5",
"L 	c #4F6CA6",
"M 	c #87ADDF",
"N 	c #86ADDF",
"O 	c #7DA1D6",
"P 	c #8EB2E3",
"Q 	c #8EB3E3",
"R 	c #83A6D8",
"S 	c #4E6CA7",
"T 	c #96B8E7",
"U 	c #87A9DA",
"V 	c #4F6CA8",
"W 	c #9DBEE9",
"X 	c #8DADDB",
"Y 	c #A6C4ED",
"Z 	c #93B2DE",
"` 	c #4F6DA8",
" .	c #ADCBF0",
"..	c #ADCAF0",
"+.	c #ACCAF0",
"@.	c #98B6E0",
"#.	c #506DA9",
"$.	c #B4CFF2",
"%.	c #B4D0F2",
"&.	c #9CB8E1",
"*.	c #BED6F4",
"=.	c #BED6F5",
"-.	c #A2BCE3",
";.	c #4F6DA9",
">.	c #8CB9F0",
",.	c #8BB8EF",
"'.	c #4F6EAA",
").	c #92BFFF",
"!.	c #618ECE",
"~.	c #204D8D",
". . . . . . . .     ",
"+ + + + + + @ # .   ",
"$ % % $ $ $ % $ & . ",
"* * = = = * - * ; . ",
"> > > , , ' ' ) ) . ",
"! ~ ~ ~ ~ ~ ~ { ] . ",
"^ / ( ( ( / ( _ : . ",
"< < / / / < / [ } . ",
"| | | | | | 1 1 2 . ",
"3 3 4 5 5 6 5 7 8 . ",
"9 9 6 6 6 9 6 0 a . ",
"b b c c c d e f g . ",
"h h h h h h i j a . ",
"k k k k k l m n a . ",
"o o p q q q q r g . ",
"s t t s s s u v a . ",
"w x w w x w y z a . ",
"A A A A A A A B g . ",
"C C D C C C C E F . ",
"G H H I I J J K L . ",
"M M M M N M M O L . ",
"P P P P P P Q R S . ",
"T T T T T T T U V . ",
"W W W W W W W X V . ",
"Y Y Y Y Y Y Y Z ` . ",
" ... . .+. . .@.#.. ",
"$.$.$.$.%.%.%.&.#.. ",
"*.*.*.*.*.=.=.-.;.. ",
">.>.,.,.,.>.,.>.;.. ",
"'.'.'.'.'.'.'.'.'.. ",
". . . . . . . . . . ",
"          . ).!.~.. ",
"          . ).!.~.. ",
"          . ).!.~.. ",
"          . ).!.~.. ",
"          . ).!.~.. ",
"          . ).!.~.. ",
"          . ).!.~.. ",
"          . ).!.~.. ",
"          . ).!.~.. ",
"          . ).!.~.. ",
"          . ).!.~.. ",
"          . ).!.~.. ",
"          . ).!.~.. ",
"          . ).!.~.. ",
"          . ).!.~.. ",
"          . ).!.~.. ",
"          . ).!.~.. ",
"          . ).!.~.. ",
"          . ).!.~.. ",
"          . ).!.~.. ",
"          . ).!.~.. ",
"          . ).!.~.. ",
"          . ).!.~.. ",
"          . ).!.~.. ",
"          . ).!.~.. ",
"          . ).!.~.. ",
"          . ).!.~.. ",
"          . ).!.~.. ",
"          . ).!.~.. ",
"          . ).!.~.. ",
"          . ).!.~.. ",
"          . ).!.~.. ",
"          . ).!.~.. "};
