/* XPM */
static char * top_left_active_xpm[] = {
"10 64 110 2",
"  	c None",
". 	c #19234D",
"+ 	c #5770A3",
"@ 	c #7391C9",
"# 	c #88A9E6",
"$ 	c #334E81",
"% 	c #5F85C1",
"& 	c #5E85C0",
"* 	c #42659C",
"= 	c #4D77B3",
"- 	c #4C77B2",
"; 	c #4C76B2",
"> 	c #4F79B5",
", 	c #4E78B4",
"' 	c #4D77B4",
") 	c #4E78B5",
"! 	c #517AB5",
"~ 	c #517BB6",
"{ 	c #507AB4",
"] 	c #4F7AB4",
"^ 	c #5276B0",
"/ 	c #537CB7",
"( 	c #527CB7",
"_ 	c #537DB8",
": 	c #537DB7",
"< 	c #5171AB",
"[ 	c #547DB8",
"} 	c #547EB9",
"| 	c #5070A8",
"1 	c #5680BA",
"2 	c #5580BA",
"3 	c #506EA8",
"4 	c #5882BC",
"5 	c #5883BD",
"6 	c #5984BE",
"7 	c #5882BD",
"8 	c #5983BE",
"9 	c #4F6BA5",
"0 	c #5A83BD",
"a 	c #5A85BF",
"b 	c #4E6CA5",
"c 	c #5C86C0",
"d 	c #5D87C1",
"e 	c #5D88C2",
"f 	c #5D87C0",
"g 	c #5D88C1",
"h 	c #5E87C1",
"i 	c #5F89C3",
"j 	c #5E89C3",
"k 	c #608AC3",
"l 	c #618CC6",
"m 	c #618CC5",
"n 	c #618BC5",
"o 	c #648CC6",
"p 	c #6791CA",
"q 	c #6690C9",
"r 	c #6691CA",
"s 	c #688FCA",
"t 	c #6A94CD",
"u 	c #6A95CD",
"v 	c #6994CC",
"w 	c #6B93CD",
"x 	c #709AD2",
"y 	c #709AD1",
"z 	c #6F9AD1",
"A 	c #6F98CE",
"B 	c #759ED5",
"C 	c #4E6CA6",
"D 	c #7499D1",
"E 	c #7BA3D9",
"F 	c #7BA2D9",
"G 	c #4F6CA6",
"H 	c #799ED5",
"I 	c #82A8DD",
"J 	c #82A8DC",
"K 	c #82A8DB",
"L 	c #81A8DB",
"M 	c #7DA1D6",
"N 	c #87ADDF",
"O 	c #86ADDF",
"P 	c #4E6CA7",
"Q 	c #83A6D8",
"R 	c #8EB3E3",
"S 	c #8EB2E3",
"T 	c #4F6CA8",
"U 	c #87A9DA",
"V 	c #96B8E7",
"W 	c #8DADDB",
"X 	c #9DBEE9",
"Y 	c #4F6DA8",
"Z 	c #93B2DE",
"` 	c #A6C4ED",
" .	c #506DA9",
"..	c #98B6E0",
"+.	c #ADCBF0",
"@.	c #ACCAF0",
"#.	c #ADCAF0",
"$.	c #9CB8E1",
"%.	c #B4D0F2",
"&.	c #B4CFF2",
"*.	c #4F6DA9",
"=.	c #A2BCE3",
"-.	c #BED6F5",
";.	c #BED6F4",
">.	c #8CB9F0",
",.	c #8BB8EF",
"'.	c #4F6EAA",
").	c #204D8D",
"!.	c #618ECE",
"~.	c #92BFFF",
"    . . . . . . . . ",
"  . + @ # # # # # # ",
". $ % & % % % & & % ",
". * = - = ; ; ; = = ",
". > > , , ' ' ) ) ) ",
". ! ~ { { { { { { ] ",
". ^ / ( _ ( ( ( _ : ",
". < [ _ } _ _ _ } } ",
". | 1 1 2 2 2 2 2 2 ",
". 3 4 5 6 5 5 7 8 8 ",
". 9 0 6 a 6 6 6 a a ",
". b c d e f f f g g ",
". 9 h i j j j j j j ",
". 9 k l m n n n n n ",
". b o p p p p q r r ",
". 9 s t u u u v v u ",
". 9 w x y z y y z y ",
". b A B B B B B B B ",
". C D E E E E F E E ",
". G H I I J J K K L ",
". G M N N O N N N N ",
". P Q R S S S S S S ",
". T U V V V V V V V ",
". T W X X X X X X X ",
". Y Z ` ` ` ` ` ` ` ",
".  ...+.+.@.+.+.#.+.",
".  .$.%.%.%.&.&.&.&.",
". *.=.-.-.;.;.;.;.;.",
". *.>.,.>.,.,.,.>.>.",
". '.'.'.'.'.'.'.'.'.",
". . . . . . . . . . ",
". ).!.~..           ",
". ).!.~..           ",
". ).!.~..           ",
". ).!.~..           ",
". ).!.~..           ",
". ).!.~..           ",
". ).!.~..           ",
". ).!.~..           ",
". ).!.~..           ",
". ).!.~..           ",
". ).!.~..           ",
". ).!.~..           ",
". ).!.~..           ",
". ).!.~..           ",
". ).!.~..           ",
". ).!.~..           ",
". ).!.~..           ",
". ).!.~..           ",
". ).!.~..           ",
". ).!.~..           ",
". ).!.~..           ",
". ).!.~..           ",
". ).!.~..           ",
". ).!.~..           ",
". ).!.~..           ",
". ).!.~..           ",
". ).!.~..           ",
". ).!.~..           ",
". ).!.~..           ",
". ).!.~..           ",
". ).!.~..           ",
". ).!.~..           ",
". ).!.~..           "};
