/* XPM */
static char * top_right_inactive_xpm[] = {
"10 64 111 2",
"  	c None",
". 	c #404245",
"+ 	c #404145",
"@ 	c #44484F",
"# 	c #484C56",
"$ 	c #C4C6CB",
"% 	c #B5B7BB",
"& 	c #9C9FA4",
"* 	c #434549",
"= 	c #B0B3B9",
"- 	c #B0B3B8",
"; 	c #A0A3A9",
"> 	c #73757A",
", 	c #474C56",
"' 	c #A2A5AA",
") 	c #A3A5AB",
"! 	c #7E8186",
"~ 	c #44474E",
"{ 	c #A3A6AB",
"] 	c #A4A6AC",
"^ 	c #85878D",
"/ 	c #3F4144",
"( 	c #A4A6AB",
"_ 	c #A4A7AC",
": 	c #84878C",
"< 	c #A5A7AC",
"[ 	c #A5A7AD",
"} 	c #A5A8AD",
"| 	c #3F4043",
"1 	c #A6A9AD",
"2 	c #A6A8AD",
"3 	c #A6A9AE",
"4 	c #A7A9AE",
"5 	c #84868B",
"6 	c #3E4043",
"7 	c #A8AAAE",
"8 	c #A7AAAE",
"9 	c #A7A9AD",
"0 	c #3E3F42",
"a 	c #AAACB0",
"b 	c #A8AAAF",
"c 	c #83858A",
"d 	c #ABADB1",
"e 	c #ABADB2",
"f 	c #84868A",
"g 	c #AEAFB3",
"h 	c #AEB0B4",
"i 	c #838589",
"j 	c #3E3F41",
"k 	c #AFB1B5",
"l 	c #ADAFB3",
"m 	c #848589",
"n 	c #3D3F41",
"o 	c #B1B2B6",
"p 	c #B1B3B6",
"q 	c #AEB0B3",
"r 	c #B3B5B8",
"s 	c #B3B5B9",
"t 	c #B4B5B9",
"u 	c #B4B6B9",
"v 	c #838588",
"w 	c #3D3E41",
"x 	c #B6B7BB",
"y 	c #B2B4B7",
"z 	c #B9BABD",
"A 	c #B9BABE",
"B 	c #848689",
"C 	c #BBBDC0",
"D 	c #BCBDC0",
"E 	c #B6B8BB",
"F 	c #BEC0C3",
"G 	c #B8BABD",
"H 	c #C2C3C6",
"I 	c #85878A",
"J 	c #3D3E40",
"K 	c #C6C8CB",
"L 	c #C7C8CB",
"M 	c #C0C1C4",
"N 	c #858689",
"O 	c #CACCCE",
"P 	c #C9CBCD",
"Q 	c #CACCCF",
"R 	c #C2C4C7",
"S 	c #CECFD2",
"T 	c #C6C7CA",
"U 	c #D3D4D7",
"V 	c #D3D4D6",
"W 	c #CACBCE",
"X 	c #86878A",
"Y 	c #D7D9DB",
"Z 	c #CDCFD2",
"` 	c #DCDEE0",
" .	c #D0D2D4",
"..	c #E1E2E5",
"+.	c #D5D6D9",
"@.	c #86888A",
"#.	c #D0D1D3",
"$.	c #87888A",
"%.	c #87888B",
"&.	c #3C3E43",
"*.	c #D7D9DE",
"=.	c #C1C3C8",
"-.	c #C1C3C7",
";.	c #3B3E42",
">.	c #D6D9DD",
",.	c #C0C3C7",
"'.	c #A7AAAF",
").	c #3B3D42",
"!.	c #D6D8DD",
"~.	c #C0C2C7",
"{.	c #D6D9DE",
". + + + + + @ #     ",
"$ $ $ $ $ $ % & *   ",
"= = - = = = = ; > , ",
"' ' ' ' ' ' ' ) ! ~ ",
"{ { { { { { ' ] ^ / ",
"{ ( ( { ( ] _ _ : / ",
"< [ [ < [ } } _ : | ",
"1 1 2 2 1 1 3 4 5 6 ",
"7 8 4 8 7 7 7 9 5 0 ",
"a a a a a a a b c 0 ",
"d d d d d d e d f 0 ",
"g g h g g h h d i j ",
"h h k k h k k l m n ",
"o o o o o o p q i n ",
"r r r r r s s k m n ",
"t t t t t t u p v w ",
"x x x x x x x y v w ",
"z z A A A A A t B w ",
"C C C C C C D E m w ",
"F F F F F F F G B w ",
"H H H H H H H D I J ",
"K K K K K L L M N J ",
"O O P O O O Q R I J ",
"S S S S S S S T N w ",
"U U U U V V U W X J ",
"Y Y Y Y Y Y Y Z X w ",
"` ` ` ` ` ` `  .X J ",
"..............+.@.J ",
"#.#.#.#.#.#.#.#.X w ",
"$.$.$.$.$.$.$.$.%.J ",
"J J J J J J J J J J ",
"          &.*.=.b &.",
"          &.*.-.8 ;.",
"          ;.>.,.8 ;.",
"          &.*.=.b &.",
"          &.*.=.b &.",
"          &.*.=.b &.",
"          &.*.=.b &.",
"          &.*.=.b &.",
"          &.*.=.b &.",
"          &.*.=.b &.",
"          &.*.=.b ;.",
"          &.*.=.b &.",
"          &.*.-.8 ;.",
"          ;.>.,.8 ;.",
"          &.*.=.b &.",
"          &.*.=.b &.",
"          &.*.=.b &.",
"          &.*.=.b &.",
"          &.*.=.b &.",
"          &.*.=.b &.",
"          &.*.=.b &.",
"          &.*.=.b ;.",
"          ;.>.,.8 ;.",
"          ;.>.,.8 ;.",
"          ;.>.,.8 ;.",
"          ;.>.,.'.;.",
"          ;.>.,.8 ).",
"          ;.>.,.8 ).",
"          ).!.~.4 ).",
"          ).!.~.4 ).",
"          ;.>.,.4 ).",
"          ;.>.,.4 ).",
"          ;.{.,.8 )."};
