<?xml version="1.0" encoding="UTF-8" standalone="no"?>
<svg
   width="48"
   height="48"
   viewBox="0 0 48 48"
   xml:space="preserve"
   id="svg2"
   sodipodi:version="0.32"
   inkscape:version="1.4.3 (0d15f75042, 2025-12-25)"
   sodipodi:docname="preferences-desktop-screensaver.svg"
   inkscape:output_extension="org.inkscape.output.svg.inkscape"
   version="1.1"
   xmlns:inkscape="http://www.inkscape.org/namespaces/inkscape"
   xmlns:sodipodi="http://sodipodi.sourceforge.net/DTD/sodipodi-0.dtd"
   xmlns:xlink="http://www.w3.org/1999/xlink"
   xmlns="http://www.w3.org/2000/svg"
   xmlns:svg="http://www.w3.org/2000/svg"
   xmlns:rdf="http://www.w3.org/1999/02/22-rdf-syntax-ns#"
   xmlns:cc="http://creativecommons.org/ns#"
   xmlns:dc="http://purl.org/dc/elements/1.1/"><metadata
   id="metadata42"><rdf:RDF><cc:Work
       rdf:about=""><dc:format>image/svg+xml</dc:format><dc:type
         rdf:resource="http://purl.org/dc/dcmitype/StillImage" /></cc:Work></rdf:RDF></metadata><defs
   id="defs40"><inkscape:perspective
   sodipodi:type="inkscape:persp3d"
   inkscape:vp_x="0 : 22.999999 : 1"
   inkscape:vp_y="0 : 1333.3333 : 0"
   inkscape:vp_z="83.333331 : 22.999999 : 1"
   inkscape:persp3d-origin="41.666665 : 9.1111096 : 1"
   id="perspective36" /><linearGradient
   y2="43.5"
   x2="73"
   y1="43.5"
   x1="27"
   gradientUnits="userSpaceOnUse"
   id="linearGradient1346"
   xlink:href="#linearGradient2035"
   inkscape:collect="always" /><linearGradient
   id="linearGradient2035"><stop
     style="stop-color:#faf7c3;stop-opacity:1;"
     offset="0"
     id="stop2037" /><stop
     id="stop2043"
     offset="0.62211984"
     style="stop-color:#faf7c3;stop-opacity:0.49803922;" /><stop
     style="stop-color:#faf7c3;stop-opacity:0;"
     offset="1"
     id="stop2039" /></linearGradient>
	
	
	
	
	
	
	

	
	
	
	
	
	
	

	
	
	
	
	
	
	
	
	
	
	
	
	
	
	
	
	
	
	
	
	
	
	
	
	
	
	
	
	
	
<inkscape:perspective
   id="perspective2424"
   inkscape:persp3d-origin="41.666665 : 9.1111096 : 1"
   inkscape:vp_z="83.333331 : 22.999999 : 1"
   inkscape:vp_y="0 : 1333.3333 : 0"
   inkscape:vp_x="0 : 22.999999 : 1"
   sodipodi:type="inkscape:persp3d" />
	
	
	
	
	
	
	
	
	
	
	
</defs><sodipodi:namedview
   inkscape:window-height="1137"
   inkscape:window-width="2194"
   inkscape:pageshadow="2"
   inkscape:pageopacity="0.0"
   borderopacity="1.0"
   bordercolor="#666666"
   pagecolor="#ffffff"
   id="base"
   showgrid="false"
   inkscape:zoom="8.48"
   inkscape:cx="-34.080189"
   inkscape:cy="21.992925"
   inkscape:window-x="0"
   inkscape:window-y="0"
   inkscape:current-layer="svg2"
   inkscape:window-maximized="1"
   inkscape:showpageshadow="2"
   inkscape:pagecheckerboard="0"
   inkscape:deskcolor="#d1d1d1"
   inkscape:document-units="pt" />

<g
   id="g14"><g
     transform="matrix(0.6675178,0,0,0.6675178,-12.664969,-1.2950543)"
     id="g5">
	<g
   id="Monitor Stand"
   style="clip-rule:nonzero;fill:#ffffff;fill-opacity:1;stroke:#000000;stroke-miterlimit:4">
		<path
   d="M 56.52,73.63 40.67,65.7 v -3.02 l 23.46,-11.62 16.64,8.02 -0.13,2.09 z"
   id="path1" />
	</g>
	<g
   id="Monitor Back"
   style="clip-rule:nonzero;fill:#ffffff;fill-opacity:1;stroke:#000000;stroke-miterlimit:4">
		<path
   d="M 71.67,42.5 38.33,62.85 25.03,42.56 25.01,12.51 45,2.5 71.56,9.22 Z"
   id="path2" />
	</g>
	<g
   id="Path_2-3"
   style="clip-rule:nonzero;fill:#ffffff;fill-opacity:1;stroke:#000000;stroke-miterlimit:4">
		<path
   d="m 45,69.16 -6.67,-3.33 v -40 L 78.33,5.84 85,9.17 v 40 z"
   id="path3" />
	</g>
	<g
   id="Path_7-6"
   style="clip-rule:nonzero;fill:none;fill-opacity:1;stroke:#000000;stroke-miterlimit:4">
		<path
   d="m 70.5,56.4 -1.83,3.74 -7,3.39 -4.5,-0.45"
   id="path4" />
	</g>
	<g
   id="Path_8-7"
   style="clip-rule:nonzero;fill:#98c4c0;fill-opacity:1;stroke:#000000;stroke-miterlimit:4">
		<path
   d="M 52.25,30.85 78.66,17.64 V 44.05 L 52.25,57.26 Z"
   id="path5" />
	</g>
</g><g
     id="g1"
     transform="matrix(0.62614827,0,0,0.62614827,14.677049,11.628038)"><g
       style="fill:#4d4d4d;fill-opacity:1;stroke:#000000;stroke-miterlimit:4"
       id="Screen"
       transform="scale(0.5)">
		<path
   id="path7"
   d="M 24.208308,74.432012 V 30.72158 l 0.365946,-5.101585 2.997958,-1.93111 46.94222,-23.76075086 4.811735,-2.49914244 0.381483,7.0825893 v 43.405547 l -0.0257,5.599398 -3.937813,1.738182 -46.647497,23.760751 -4.811735,2.539877 z"
   style="fill:#4d4d4d;stroke-width:1.01629"
   sodipodi:nodetypes="ccccccccccccc" />
	</g><g
       style="fill:#f8fc00;fill-opacity:1;fill-rule:nonzero;stroke:none;stroke-miterlimit:4"
       id="Path_1"
       transform="matrix(0.5978464,0,0,0.5817325,-4.8023713,-3.6963102)">
		<path
   id="path10"
   d="m 48.55,21.39 4.43,3.05 -4.43,2.39 -4.45,-3.04 z" />
	</g><g
       style="fill:#f80000;fill-opacity:1;fill-rule:nonzero;stroke:none;stroke-miterlimit:4"
       id="Path_2"
       transform="matrix(0.5978464,0,0,0.5817325,-4.8023713,-3.6963102)">
		<path
   id="path13"
   d="m 58.56,23.28 4.7,-1.83 -0.66,5.39 -4.7,1.84 z" />
	</g><g
       style="fill:#f8007c;fill-opacity:1;fill-rule:nonzero;stroke:none;stroke-miterlimit:4"
       id="Path_3"
       transform="matrix(0.5978464,0,0,0.5817325,-4.8023713,-3.6963102)">
		<path
   id="path16"
   d="m 62.91,29.66 h 5.06 l -2.59,4.78 h -5.05 z" />
	</g><g
       style="fill:#7c7ef8;fill-opacity:1;fill-rule:nonzero;stroke:none;stroke-miterlimit:4"
       id="Path_4"
       transform="matrix(0.5978464,0,0,0.5817325,-4.8023713,-3.6963102)">
		<path
   id="path19"
   d="M 60.27,38.73 65,37.2 l -0.66,5.33 -4.73,1.52 z" />
	</g><g
       style="fill:#007ef8;fill-opacity:1;fill-rule:nonzero;stroke:none;stroke-miterlimit:4"
       id="Path_5"
       transform="matrix(0.5978464,0,0,0.5817325,-4.8023713,-3.6963102)">
		<path
   id="path22"
   d="m 55.56,46.63 4.97,0.02 -1.76,4.87 -4.97,-0.03 z" />
	</g><g
       style="fill:#28a828;fill-opacity:1;fill-rule:nonzero;stroke:none;stroke-miterlimit:4"
       id="Path_6"
       transform="matrix(0.5978464,0,0,0.5817325,-4.8023713,-3.6963102)">
		<path
   id="path25"
   d="m 51.48,54.1 4.85,1.67 -2.78,4.02 -4.86,-1.65 z" />
	</g><g
       style="fill:#f80000;fill-opacity:1;fill-rule:nonzero;stroke:none;stroke-miterlimit:4"
       id="Path_7"
       transform="matrix(0.5978464,0,0,0.5817325,-4.8023713,-3.6963102)">
		<path
   id="path28"
   d="m 41.75,29.45 4.86,1.57 -3.72,3.76 -4.87,-1.57 z" />
	</g><g
       style="fill:#f8007c;fill-opacity:1;fill-rule:nonzero;stroke:none;stroke-miterlimit:4"
       id="Path_8"
       transform="matrix(0.5978464,0,0,0.5817325,-4.8023713,-3.6963102)">
		<path
   id="path31"
   d="m 41.6,37.8 4.95,0.84 -3.28,4.31 -4.95,-0.82 z" />
	</g><g
       style="fill:#7c7ef8;fill-opacity:1;fill-rule:nonzero;stroke:none;stroke-miterlimit:4"
       id="Path_9"
       transform="matrix(0.5978464,0,0,0.5817325,-4.8023713,-3.6963102)">
		<path
   id="path34"
   d="m 48,43.4 4.94,-0.29 -2.54,5.03 -4.94,0.3 z" />
	</g><g
       style="fill:#28a828;fill-opacity:1;fill-rule:nonzero;stroke:none;stroke-miterlimit:4"
       id="Path_10"
       transform="matrix(0.5978464,0,0,0.5817325,-4.8023713,-3.6963102)">
		<path
   id="path37"
   d="m 64.09,47.82 4.9,-0.67 -2.27,5.25 -4.9,0.67 z" />
	</g></g><path
     style="opacity:0;fill:#f5f5dc;stroke-width:0.117925;fill-opacity:1"
     d="M 8.4610849,33.111604 4.4221698,26.949737 V 17.130034 7.3103309 L 10.9375,4.055861 17.45283,0.80139099 25.707547,2.8901608 33.962264,4.9789308 23.261173,10.330863 12.560082,15.682795 12.530041,27.478133 12.5,39.273471 Z"
     id="path6" /><path
     style="opacity:0;fill:#f5f5dc;fill-opacity:1;stroke-width:0.117925"
     d="M 8.4610849,33.111604 4.4221698,26.949737 V 17.130034 7.3103309 L 10.9375,4.055861 17.45283,0.80139099 25.707547,2.8901608 33.962264,4.9789308 23.261173,10.330863 12.560082,15.682795 12.530041,27.478133 12.5,39.273471 Z"
     id="path8" /><path
     style="opacity:1;fill:#f5f5dc;fill-opacity:1;stroke-width:0.117925"
     d="M 15.300708,43.399841 13.266509,42.411136 V 29.312983 16.214831 L 26.444575,9.6258612 39.622642,3.036891 41.65684,4.0522419 43.691038,5.0675929 V 18.159042 31.250493 l -13.148726,6.574046 c -7.231798,3.615725 -13.161928,6.571788 -13.178065,6.569027 -0.01614,-0.0028 -0.94473,-0.449937 -2.063539,-0.993725 z m 16.102367,-10.590313 8.868151,-4.454621 v -9.254105 c 0,-5.089757 -0.0398,-9.2518318 -0.08844,-9.2490548 -0.04864,0.00278 -4.174528,2.0590858 -9.168632,4.5695758 l -9.080189,4.564526 -0.0302,9.287186 -0.0302,9.287187 0.330676,-0.148036 c 0.181872,-0.08142 4.321345,-2.152615 9.198828,-4.602658 z"
     id="path9" /><path
     style="opacity:1;fill:#f5f5dc;fill-opacity:1;stroke-width:0.117925"
     d="M 8.4610849,33.111604 4.4221698,26.949737 V 17.130034 7.3103309 L 10.9375,4.055861 17.45283,0.80139099 25.707547,2.8901608 33.962264,4.9789308 23.261173,10.330863 12.560082,15.682795 12.530041,27.478133 12.5,39.273471 Z"
     id="path11" /><path
     style="opacity:1;fill:#f5f5dc;fill-opacity:1;stroke-width:0.117925"
     d="m 22.021193,45.894708 -2.860883,-1.439318 3.273619,-1.630319 3.273618,-1.630319 0.999265,0.12786 c 1.821352,0.233049 1.782817,0.242075 4.400736,-1.030834 l 2.383018,-1.158694 0.589623,-1.212269 c 0.56972,-1.171351 0.611644,-1.223409 1.242053,-1.542327 l 0.65243,-0.330058 2.387557,1.151778 c 1.313155,0.633478 2.418915,1.183138 2.457244,1.221466 0.03833,0.03833 0.03532,0.252873 -0.0067,0.476766 -0.07605,0.405366 -0.109132,0.423998 -7.862293,4.427669 -4.282259,2.211324 -7.849488,4.017738 -7.927174,4.014253 -0.07769,-0.0035 -1.428646,-0.65403 -3.002131,-1.445654 z"
     id="path12" /><path
     style="opacity:1;fill:#f5f5dc;fill-opacity:1;stroke-width:0.117925"
     d="m 27.653302,40.633899 -0.648585,-0.07058 3.213443,-1.620522 c 1.767394,-0.891287 3.213444,-1.595219 3.213444,-1.564294 0,0.03093 -0.119399,0.304025 -0.26533,0.606887 -0.262995,0.545809 -0.285463,0.560371 -2.552265,1.654098 -1.257814,0.606892 -2.292602,1.094791 -2.299528,1.084219 -0.0069,-0.01057 -0.304457,-0.05098 -0.661179,-0.0898 z"
     id="path14" /></g></svg>
