/* XPM */
static char * close_active_xpm[] = {
"14 23 71 1",
" 	c None",
".	c #B78200",
"+	c #FFFF3F",
"@	c #FEFE3E",
"#	c #FDF93B",
"$	c #FDF637",
"%	c #FBF134",
"&	c #FAEE30",
"*	c #F9E92D",
"=	c #F8E629",
"-	c #F7E226",
";	c #F6DE22",
">	c #FFFD3D",
",	c #FDF93A",
"'	c #FCF537",
")	c #FBF233",
"!	c #F8EA2D",
"~	c #F8E529",
"{	c #F6E226",
"]	c #F6DD22",
"^	c #F5DA1F",
"/	c #FAED2F",
"(	c #F9E92C",
"_	c #F6E126",
":	c #F4DA1F",
"<	c #F3D51C",
"[	c #FCF536",
"}	c #FCF134",
"|	c #FAED30",
"1	c #F7E629",
"2	c #F6E225",
"3	c #F5DD22",
"4	c #F3D119",
"5	c #FBF033",
"6	c #F7E529",
"7	c #F7E126",
"8	c #F2D118",
"9	c #F1CE15",
"0	c #FAEC2F",
"a	c #F5D91E",
"b	c #F4D51B",
"c	c #F1CD14",
"d	c #F0C911",
"e	c #F8E528",
"f	c #F6E025",
"g	c #F4D91F",
"h	c #F3D51B",
"i	c #EFC50E",
"j	c #F8E429",
"k	c #F6E125",
"l	c #F6DC21",
"m	c #F4D81F",
"n	c #F3D41B",
"o	c #F1D117",
"p	c #EEC50D",
"q	c #EDC10A",
"r	c #F5DD21",
"s	c #F4D91E",
"t	c #F2D117",
"u	c #F0CD14",
"v	c #F0C811",
"w	c #EDBD07",
"x	c #F5DC21",
"y	c #F4D81E",
"z	c #F3D41A",
"A	c #F1CC14",
"B	c #EFC911",
"C	c #EFC50D",
"D	c #EEC10A",
"E	c #ECBC07",
"F	c #EBB903",
"              ",
"              ",
"              ",
"              ",
"..............",
".+++++++++++++",
".++@#$%&*=-;.+",
".+>,')&!~{]^.+",
".+,'%/(~_;:<.+",
".+[}|(123:<4.+",
".+5/(67]:<89.+",
".+0(~_]ab8cd.+",
".+(ef3gh8cdi.+",
".+jklmnocdpq.+",
".+frsntuviqw.+",
".+xyztABCDEF.+",
".+...........+",
".+++++++++++++",
"              ",
"              ",
"              ",
"              ",
"              "};
