/* XPM */
static char * close_pressed_xpm[] = {
"14 23 79 1",
" 	c None",
".	c #B78200",
"+	c #E9B500",
"@	c #EBB702",
"#	c #ECBB05",
"$	c #ECBE08",
"%	c #EDC10B",
"&	c #EFC50D",
"*	c #F0C810",
"=	c #F0CB13",
"-	c #F1CE15",
";	c #F2D118",
">	c #F3D51B",
",	c #F3D81E",
"'	c #FFFF3F",
")	c #EBB802",
"!	c #ECBB06",
"~	c #EDBF08",
"{	c #EDC20A",
"]	c #EFC40D",
"^	c #EFC810",
"/	c #F1CB12",
"(	c #F1CE16",
"_	c #F4D71D",
":	c #F5DB20",
"<	c #EDBE08",
"[	c #EEC20A",
"}	c #EEC40D",
"|	c #F2CF15",
"1	c #F3D219",
"2	c #F4D81E",
"3	c #F5DB21",
"4	c #F5DE23",
"5	c #EEC50D",
"6	c #F1CB13",
"7	c #F2D218",
"8	c #F5DF23",
"9	c #F6E125",
"0	c #EEC10B",
"a	c #EEC50E",
"b	c #F2D119",
"c	c #F3D41B",
"d	c #F6DE24",
"e	c #F7E126",
"f	c #F8E428",
"g	c #EFC811",
"h	c #F2D219",
"i	c #F4DB21",
"j	c #F6DF23",
"k	c #F8E529",
"l	c #F8E82B",
"m	c #F1CC13",
"n	c #F1CF16",
"o	c #F4D81D",
"p	c #F5DE24",
"q	c #F6E226",
"r	c #F9EB2E",
"s	c #FAEF31",
"t	c #F7E529",
"u	c #F8E82C",
"v	c #FAEE31",
"w	c #FBF233",
"x	c #F5DC21",
"y	c #F7E226",
"z	c #F9E82B",
"A	c #FAEB2E",
"B	c #FCF234",
"C	c #FCF537",
"D	c #F3D61B",
"E	c #FAEC2F",
"F	c #FCF536",
"G	c #FDF839",
"H	c #F4D91E",
"I	c #F6DF24",
"J	c #F7E227",
"K	c #F9E82C",
"L	c #FBEE32",
"M	c #FBF134",
"N	c #FEFB3C",
"              ",
"              ",
"              ",
"              ",
"..............",
".+@#$%&*=-;>,'",
".)!~{]^/(;>_:'",
".#<[}^=|1>234'",
".~%5^6(7>_:89'",
".0a^=-bc2:def'",
".ag6(h>2ijekl'",
".*mn7>o3pqklr'",
".6(7c23jqklrs'",
".-7>23dqturvw'",
".7>2xdytzAsBC'",
".D2x8qtuEvBFG'",
".H3IJtKrLMFGN'",
".'''''''''''''",
"              ",
"              ",
"              ",
"              ",
"              "};
