/* XPM */
static char * title_4_active_xpm[] = {
"16 23 9 1",
" 	c None",
".	c #989898",
"+	c #FFFF50",
"@	c #606060",
"#	c #FFCA00",
"$	c #AF7B00",
"%	c #FFFFFF",
"&	c #D8D8D8",
"*	c #888888",
"................",
"+++++++++++++++@",
"##############$@",
"##############$@",
"##############$@",
"##############$@",
"##############$@",
"##############$@",
"##############$@",
"##############$@",
"##############$@",
"##############$@",
"##############$@",
"##############$@",
"##############$@",
"##############$@",
"##############$@",
"##############$@",
"##############$@",
"##############$@",
"%%%%%%%%%%%%%%%%",
"&&&&&&&&&&&&&&&&",
"****************"};
