<?xml version="1.0" encoding="UTF-8" standalone="no"?>
<svg
   width="16"
   height="16"
   viewBox="0 0 16 16"
   xml:space="preserve"
   id="svg2"
   sodipodi:version="0.32"
   inkscape:version="1.4.3 (0d15f75042, 2025-12-25)"
   sodipodi:docname="preferences-desktop-accessibility.svg"
   inkscape:output_extension="org.inkscape.output.svg.inkscape"
   version="1.1"
   xmlns:inkscape="http://www.inkscape.org/namespaces/inkscape"
   xmlns:sodipodi="http://sodipodi.sourceforge.net/DTD/sodipodi-0.dtd"
   xmlns="http://www.w3.org/2000/svg"
   xmlns:svg="http://www.w3.org/2000/svg"
   xmlns:rdf="http://www.w3.org/1999/02/22-rdf-syntax-ns#"
   xmlns:cc="http://creativecommons.org/ns#"
   xmlns:dc="http://purl.org/dc/elements/1.1/"><metadata
   id="metadata45"><rdf:RDF><cc:Work
       rdf:about=""><dc:format>image/svg+xml</dc:format><dc:type
         rdf:resource="http://purl.org/dc/dcmitype/StillImage" /></cc:Work></rdf:RDF></metadata><defs
   id="defs43"><inkscape:perspective
     sodipodi:type="inkscape:persp3d"
     inkscape:vp_x="0 : -9.000001 : 1"
     inkscape:vp_y="0 : 1333.3333 : 0"
     inkscape:vp_z="83.333331 : -9.000001 : 1"
     inkscape:persp3d-origin="41.666665 : -22.88889 : 1"
     id="perspective47" /><inkscape:perspective
     id="perspective2435"
     inkscape:persp3d-origin="41.666665 : -22.88889 : 1"
     inkscape:vp_z="83.333331 : -9.000001 : 1"
     inkscape:vp_y="0 : 1333.3333 : 0"
     inkscape:vp_x="0 : -9.000001 : 1"
     sodipodi:type="inkscape:persp3d" /></defs><sodipodi:namedview
   inkscape:window-height="788"
   inkscape:window-width="1233"
   inkscape:pageshadow="2"
   inkscape:pageopacity="0.0"
   guidetolerance="10.0"
   gridtolerance="10.0"
   objecttolerance="10.0"
   borderopacity="1.0"
   bordercolor="#666666"
   pagecolor="#ffffff"
   id="base"
   showgrid="false"
   inkscape:zoom="7.392"
   inkscape:cx="31.182359"
   inkscape:cy="31.25"
   inkscape:window-x="0"
   inkscape:window-y="0"
   inkscape:current-layer="svg2"
   inkscape:showpageshadow="2"
   inkscape:pagecheckerboard="0"
   inkscape:deskcolor="#d1d1d1"
   inkscape:document-units="pt"
   inkscape:window-maximized="0" />
<g
   id="g1"
   transform="matrix(0.37223691,0,0,0.37223691,-0.95342831,0.0027287)"
   style="stroke-width:1.34323058;stroke-dasharray:none"><g
     transform="matrix(0.5,0,0,0.5,0.1082251,0.2164502)"
     id="g4"
     style="stroke-width:2.68646116;stroke-dasharray:none">
	<g
   id="Path_4"
   style="fill:#3838dc;stroke:#000000;stroke-miterlimit:4;stroke-width:2.68646116;stroke-dasharray:none">
		<path
   d="m 23.21,47.84 6.49,-7.11 10.16,-5.46 5.99,1.38 4.16,3.3 v 10.12 l -3.61,8.68 -6.54,6.9 -10.16,5.46 -5.67,-0.63 -4.48,-4.05 V 56.31 Z"
   id="path7"
   style="stroke-width:2.68646116;stroke-dasharray:none" />
	</g>
	<g
   id="g9"
   style="fill:#ffffff;fill-opacity:1;fill-rule:nonzero;stroke:none;stroke-miterlimit:4;stroke-width:2.68646116;stroke-dasharray:none">
		<path
   d="m 26.5,48.73 4.76,-5.21 7.45,-4 4.39,1.01 3.05,2.42 v 7.42 l -2.65,6.36 -4.79,5.06 -7.45,4 -4.16,-0.46 -3.28,-2.97 v -7.42 z"
   id="path11"
   style="stroke-width:2.68646116;stroke-dasharray:none" />
	</g>
	<g
   id="Path_2"
   style="fill:#ffffff;fill-opacity:1;stroke:#0000f8;stroke-miterlimit:4;stroke-width:2.68646116;stroke-dasharray:none">
		<path
   d="m 27.17,55.28 25,-12.5 20,10 -25,12.5 z"
   id="path14"
   style="stroke-width:2.68646116;stroke-dasharray:none" />
	</g>
	<g
   id="Keyboard"
   style="fill:#ffffff;fill-opacity:1;stroke:#000000;stroke-miterlimit:4;stroke-width:2.68646116;stroke-dasharray:none">
		<path
   d="m 67.55,51.06 1.4,0.53 1.4,-0.32 9.35,-5.16 0.86,-0.75 0.32,-1.08 -0.43,-1.5 -1.07,-0.97 -24.83,-13.33 -1.72,-0.43 -1.62,0.64 -1.39,1.29 -5.85,6.94 z"
   id="path17"
   style="stroke-width:2.68646116;stroke-dasharray:none" />
	</g>
	<g
   id="Keyboard Edge"
   style="fill:none;fill-opacity:1;stroke:#000000;stroke-miterlimit:4;stroke-width:2.68646116;stroke-dasharray:none">
		<path
   d="m 77.34,43.85 -8.07,6.67 -0.21,0.54 0.54,0.43"
   id="path20"
   style="stroke-width:2.68646116;stroke-dasharray:none" />
	</g>
	<g
   id="User Torso"
   style="fill:#ffffff;fill-opacity:1;stroke:#000000;stroke-miterlimit:4;stroke-width:2.68646116;stroke-dasharray:none">
		<path
   d="m 56.48,52.99 4.56,-0.24 2.87,-3.11 2.52,-10.3 -0.36,-5.15 -3.83,-0.72 -2.88,5.04 -0.84,-3.6 -2.39,-5.14 -4.19,-3.12 -8.98,-3.59 -4.19,-0.36 -3.71,2.51 -2.27,5.99 0.12,6.11 2.75,4.3 z"
   id="path23"
   style="stroke-width:2.68646116;stroke-dasharray:none" />
	</g>
	<g
   id="User Arm"
   style="fill:none;fill-opacity:1;stroke:#000000;stroke-miterlimit:4;stroke-width:2.68646116;stroke-dasharray:none">
		<path
   d="M 60.43,40.68 59.44,36.72"
   id="path26"
   style="stroke-width:2.68646116;stroke-dasharray:none" />
	</g>
	<g
   id="User Head"
   style="fill:#ffffff;fill-opacity:1;stroke:#000000;stroke-miterlimit:4;stroke-width:2.68646116;stroke-dasharray:none">
		<path
   d="M 47.99,19.59 51.2,16 52.2,9.6 50.38,2.83 46.6,0.4 42.01,0.43 38.41,5.22 37.6,11 l 1.2,5.4 3.21,3.19 z"
   id="path29"
   style="stroke-width:2.68646116;stroke-dasharray:none" />
	</g>
	<g
   id="Path_10"
   style="fill:#3838dc;fill-opacity:1;stroke:#000000;stroke-miterlimit:4;stroke-width:2.68646116;stroke-dasharray:none">
		<path
   d="m 27.17,25.28 3.11,-1.65 19.6,9.8 -0.02,25.44 -2.69,6.41 -20,-10 z"
   id="path32"
   style="stroke-width:2.68646116;stroke-dasharray:none" />
	</g>
	<g
   id="g34"
   style="fill:#3838dc;fill-opacity:1;stroke:#000000;stroke-miterlimit:4;stroke-width:2.68646116;stroke-dasharray:none">
		<path
   d="m 47.79,61.14 6.49,-7.11 10.16,-5.46 5.99,1.38 4.16,3.3 v 10.12 l -3.61,8.68 -6.54,6.9 -10.16,5.46 -5.67,-0.63 -4.48,-4.05 V 69.61 Z"
   id="path36"
   style="stroke-width:2.68646116;stroke-dasharray:none" />
	</g>
	<g
   id="g38"
   style="fill:#ffffff;fill-opacity:1;fill-rule:nonzero;stroke:none;stroke-miterlimit:4;stroke-width:2.68646116;stroke-dasharray:none">
		<path
   d="m 51.08,62.03 4.76,-5.21 7.45,-4 4.39,1.01 3.05,2.42 v 7.42 l -2.65,6.36 -4.79,5.06 -7.45,4 -4.16,-0.46 -3.28,-2.97 v -7.42 z"
   id="path40"
   style="stroke-width:2.68646116;stroke-dasharray:none" />
	</g>
</g></g>
</svg>
