<?xml version="1.0" encoding="UTF-8" standalone="no"?>
<svg
   width="48"
   height="48"
   viewBox="0 0 48 48"
   xml:space="preserve"
   version="1.1"
   id="svg43"
   sodipodi:docname="aw.device.VTR.svg"
   inkscape:version="1.4.3 (0d15f75042, 2025-12-25)"
   xmlns:inkscape="http://www.inkscape.org/namespaces/inkscape"
   xmlns:sodipodi="http://sodipodi.sourceforge.net/DTD/sodipodi-0.dtd"
   xmlns="http://www.w3.org/2000/svg"
   xmlns:svg="http://www.w3.org/2000/svg"><defs
   id="defs43">
	
	
	
	
	
	
	
	
	
	
	
	
	
	
	
	
	
	
	
	
	
	
	
	
	
	
	
	
	
	
	
	
	
	
	
	
	
	
	
	
	
	
	
</defs><sodipodi:namedview
   id="namedview43"
   pagecolor="#ffffff"
   bordercolor="#000000"
   borderopacity="0.25"
   inkscape:showpageshadow="2"
   inkscape:pageopacity="0.0"
   inkscape:pagecheckerboard="0"
   inkscape:deskcolor="#d1d1d1"
   inkscape:document-units="pt"
   inkscape:zoom="11.625"
   inkscape:cx="33.290323"
   inkscape:cy="25.849462"
   inkscape:window-width="1920"
   inkscape:window-height="987"
   inkscape:window-x="0"
   inkscape:window-y="0"
   inkscape:window-maximized="1"
   inkscape:current-layer="svg43" />

<g
   id="g50"
   transform="translate(-30,-0.90322581)"><g
     id="g47"
     transform="translate(8.838709,9.0322581)"><g
       id="Path_16"
       style="clip-rule:nonzero;fill:#ffffff;fill-opacity:1;stroke:#000000;stroke-miterlimit:4"
       transform="scale(0.5)">
		<path
   d="M 32.5,48.75 35,50 20,57.5 17.5,56.25 Z"
   id="path25" />
	</g><g
       id="g46"><g
         id="Path_15"
         style="clip-rule:nonzero;fill:#ffffff;fill-opacity:1;stroke:#000000;stroke-miterlimit:4"
         transform="scale(0.5)">
		<path
   d="M 17.5,56.25 20,57.5 v 15 l -2.5,-1.25 z"
   id="path24" />
	</g><g
         id="Path_17"
         style="clip-rule:nonzero;fill:#000000;fill-opacity:1;stroke:#000000;stroke-miterlimit:4"
         transform="scale(0.5)">
		<path
   d="m 35,65 -15,7.5 v -15 L 35,50 Z"
   id="path26" />
	</g><g
         id="Path_20"
         style="clip-rule:nonzero;fill:#f8fcf8;fill-opacity:1;stroke:#f8fcf8;stroke-miterlimit:4"
         transform="scale(0.5)">
		<path
   d="m 32.5,53.75 -5,7.5 5,2.5 z"
   id="path29" />
	</g><g
         id="Path_21"
         style="clip-rule:nonzero;fill:#f8fcf8;fill-opacity:1;stroke:#f8fcf8;stroke-miterlimit:4"
         transform="scale(0.5)">
		<path
   d="m 27.5,56.25 -5,7.5 5,2.5 z"
   id="path30" />
	</g></g></g><path
     style="fill:#868686;fill-opacity:1;stroke:#c0c0c0;stroke-width:0.00800003"
     d="m 18.177419,44.627892 -0.33871,-0.170708 v -3.406011 c 0,-1.873307 0.01548,-3.406012 0.0344,-3.406012 0.01892,0 0.178599,0.07307 0.354839,0.162377 l 0.320436,0.162377 v 3.418269 c 0,1.880047 -0.0073,3.416501 -0.01613,3.414342 -0.0089,-0.0022 -0.168548,-0.08074 -0.354839,-0.174634 z"
     id="path49" /></g><g
   id="g51"
   transform="translate(15.612903,2.2580646)"><g
     id="g45"
     transform="translate(22.967742,-3.0967742)"><g
       id="Path_6"
       style="clip-rule:nonzero;fill:#ffffff;fill-opacity:1;stroke:#000000;stroke-miterlimit:4"
       transform="scale(0.5)">
		<path
   d="M 37.5,66.25 40,67.5 v 15 l -2.5,-1.25 z"
   id="path15" />
	</g><g
       id="Path_7"
       style="clip-rule:nonzero;fill:#ffffff;fill-opacity:1;stroke:#000000;stroke-miterlimit:4"
       transform="scale(0.5)">
		<path
   d="M 52.5,58.75 55,60 40,67.5 37.5,66.25 Z"
   id="path16" />
	</g><g
       id="Path_8"
       style="clip-rule:nonzero;fill:#000000;fill-opacity:1;stroke:#000000;stroke-miterlimit:4"
       transform="scale(0.5)">
		<path
   d="m 55,75 -15,7.5 v -15 L 55,60 Z"
   id="path17" />
	</g><g
       id="Path_19"
       style="clip-rule:nonzero;fill:#00fc00;fill-opacity:1;fill-rule:nonzero;stroke:none;stroke-miterlimit:4"
       transform="scale(0.5)">
		<path
   d="m 42.5,68.75 h 10 l -10,10 z"
   id="path28" />
	</g></g><path
     style="fill:#868686;fill-opacity:1;stroke:#c0c0c0;stroke-width:0.0106667"
     d="m 56.365591,49.97284 -0.408602,-0.212696 v -4.556557 -4.556556 l 0.473119,0.232039 0.473118,0.232038 v 4.54122 c 0,2.497671 -0.02903,4.539418 -0.06452,4.537215 -0.03548,-0.0022 -0.248387,-0.09972 -0.473119,-0.216703 z"
     id="path50"
     transform="scale(0.75)" /></g><g
   id="g56"
   transform="matrix(0.95021117,0,0,0.95021117,1.092072,0.01706786)"><g
     id="Path_12"
     style="clip-rule:nonzero;fill:#ffffff;fill-opacity:1;stroke:#000000;stroke-miterlimit:4"
     transform="matrix(1.9713051,0,0,1.9713051,-66.528402,-74.387736)">
		<path
   d="M 37.5,46.25 40,47.5 v 15 l -2.5,-1.25 z"
   id="path21" />
	</g><g
     id="Path_14"
     style="clip-rule:nonzero;fill:#000000;fill-opacity:1;stroke:#000000;stroke-miterlimit:4"
     transform="matrix(1.8613482,0.02150538,0,1.9644472,-60.670502,-74.769804)">
		<path
   d="m 55,55 -15,7.5 v -15 L 55,40 Z"
   id="path23" />
	</g><g
     id="Path_22"
     style="clip-rule:nonzero;fill:#f8fcf8;fill-opacity:1;stroke:#f8fcf8;stroke-miterlimit:4"
     transform="matrix(1.8653912,0,0,1.8653912,-61.72276,-68.972754)">
		<path
   d="m 42.5,48.75 5,2.5 -5,7.5 z"
   id="path31" />
	</g><g
     id="Path_23"
     style="clip-rule:nonzero;fill:#f8fcf8;fill-opacity:1;stroke:#f8fcf8;stroke-miterlimit:4"
     transform="matrix(1.8653912,0,0,1.8653912,-61.72276,-68.972754)">
		<path
   d="m 47.5,46.25 5,2.5 -5,7.5 z"
   id="path32" />
	</g><g
     id="Path_13"
     style="clip-rule:nonzero;fill:#ffffff;fill-opacity:1;stroke:#000000;stroke-miterlimit:4"
     transform="matrix(1.8653912,0,0,1.8653912,-61.482066,-70.898319)">
		<path
   d="M 52.5,38.75 55,40 40,47.5 37.5,46.25 Z"
   id="path22" />
	</g><path
     style="fill:#868686;fill-opacity:1;stroke:#c0c0c0;stroke-width:0.0405318"
     d="M 9.4302722,46.716508 7.6185848,46.02387 V 31.18558 16.347295 l 2.0977469,0.755624 2.0977423,0.755628 v 14.788345 c 0,8.133589 -0.128722,14.782477 -0.286075,14.775303 -0.157318,-0.0072 -1.101314,-0.324736 -2.0977458,-0.705687 z"
     id="path51" /></g><g
   id="g53"
   transform="translate(14.516129,3.2258065)"><g
     id="g44"
     transform="translate(33.806452,-23.225806)"><g
       id="Path_9"
       style="clip-rule:nonzero;fill:#ffffff;fill-opacity:1;stroke:#000000;stroke-miterlimit:4"
       transform="scale(0.5)">
		<path
   d="M 17.5,76.25 20,77.5 v 15 l -2.5,-1.25 z"
   id="path18" />
	</g><g
       id="Path_10"
       style="clip-rule:nonzero;fill:#ffffff;fill-opacity:1;stroke:#000000;stroke-miterlimit:4"
       transform="scale(0.5)">
		<path
   d="M 32.5,68.75 35,70 20,77.5 17.5,76.25 Z"
   id="path19" />
	</g><g
       id="Path_11"
       style="clip-rule:nonzero;fill:#000000;fill-opacity:1;stroke:#000000;stroke-miterlimit:4"
       transform="scale(0.5)">
		<path
   d="m 35,85 -15,7.5 v -15 L 35,70 Z"
   id="path20" />
	</g><g
       id="Path_18"
       style="clip-rule:nonzero;fill:#f80000;fill-opacity:1;fill-rule:nonzero;stroke:none;stroke-miterlimit:4"
       transform="scale(0.5)">
		<path
   d="m 22.5,78.75 10,-5 v 10 l -10,5 z"
   id="path27" />
	</g></g><path
     style="fill:#868686;fill-opacity:1;stroke:#c0c0c0;stroke-width:0.0106667"
     d="m 57.526882,29.826437 -0.451613,-0.22761 v -4.541349 c 0,-2.497742 0.02064,-4.541349 0.04587,-4.541349 0.02523,0 0.238132,0.09743 0.473119,0.216503 l 0.427247,0.216503 v 4.55769 c 0,2.50673 -0.0097,4.555336 -0.0215,4.552457 -0.01183,-0.0029 -0.224731,-0.107659 -0.473118,-0.232845 z"
     id="path52"
     transform="scale(0.75)" /></g><g
   id="g55"
   transform="translate(-14.580645,6.4516129)"><g
     id="Path_24"
     style="clip-rule:nonzero;fill:#000000;fill-opacity:1;stroke:#000000;stroke-miterlimit:4"
     transform="matrix(0.5,0,0,0.5,-16.258065,-0.12903226)">
		<path
   d="M 55,35 20,52.5 V 30 L 55,12.5 Z"
   id="path33" />
	</g><g
     id="Path_25"
     style="clip-rule:nonzero;fill:#ffffff;fill-opacity:1;stroke:#000000;stroke-miterlimit:4"
     transform="matrix(0.5,0,0,0.5,-16.258065,-0.12903226)">
		<path
   d="M 52.5,11.25 55,12.5 20,30 17.5,28.75 Z"
   id="path34" />
	</g><g
     id="Path_26"
     style="clip-rule:nonzero;fill:#ffffff;fill-opacity:1;stroke:#000000;stroke-miterlimit:4"
     transform="matrix(0.5,0,0,0.5,-16.258065,-0.12903226)">
		<path
   d="M 17.5,28.75 20,30 v 22.5 l -2.5,-1.25 z"
   id="path35" />
	</g><g
     id="Path_27"
     style="clip-rule:nonzero;fill:#f80000;fill-opacity:1;stroke:#f80000;stroke-miterlimit:4"
     transform="matrix(0.5,0,0,0.5,-16.258065,-0.12903226)">
		<path
   d="M 26.25,39.37 32.5,36.25 V 27.5 l -8.75,4.37 v 15 l 2.5,-1.25 V 33.12 L 30,31.25 V 35 l -3.75,1.87 z"
   id="path36" />
	</g><g
     id="Path_28"
     style="clip-rule:nonzero;fill:#f80000;fill-opacity:1;stroke:#f80000;stroke-miterlimit:4"
     transform="matrix(0.5,0,0,0.5,-16.258065,-0.12903226)">
		<path
   d="M 26.25,38.12 30,41.25 v 2.5 L 32.5,42.5 V 40 l -3.75,-3.13 z"
   id="path37" />
	</g><g
     id="Path_29"
     style="clip-rule:nonzero;fill:#f80000;fill-opacity:1;stroke:#f80000;stroke-miterlimit:4"
     transform="matrix(0.5,0,0,0.5,-16.258065,-0.12903226)">
		<path
   d="M 42.5,22.5 35,26.25 v 15 l 8.75,-4.38 v -2.5 L 37.5,37.5 v -10 l 5,-2.5 z"
   id="path38" />
	</g><g
     id="Path_30"
     style="clip-rule:nonzero;fill:#f80000;fill-opacity:1;stroke:#f80000;stroke-miterlimit:4"
     transform="matrix(0.5,0,0,0.5,-16.258065,-0.12903226)">
		<path
   d="m 35,35 6.25,-3.13 v -2.5 L 35,32.5 Z"
   id="path39" />
	</g><g
     id="Path_31"
     style="clip-rule:nonzero;fill:#f80000;fill-opacity:1;stroke:#f80000;stroke-miterlimit:4"
     transform="matrix(0.5,0,0,0.5,-16.258065,-0.12903226)">
		<path
   d="M 52.5,17.5 V 20 l -3.75,1.87 v 10 L 52.5,30 v 2.5 l -6.25,3.12 v -15 z"
   id="path40" />
	</g><path
     style="fill:#868686;fill-opacity:1;stroke:#c0c0c0;stroke-width:0.0106667"
     d="m -9.2258065,33.948986 -0.4516129,-0.221127 v -7.035973 c 0,-4.813007 0.028261,-7.035972 0.089448,-7.035972 0.1539684,0 0.7772017,0.346754 0.8186841,0.455499 0.021744,0.057 0.029536,3.243529 0.017314,7.081171 l -0.022221,6.97753 z"
     id="path53"
     transform="scale(0.75)" /></g></svg>
