/* XPM */
static char * shade_active_xpm[] = {
"14 25 17 1",
" 	c None",
".	c #6B6B6B",
"+	c #E8E8E8",
"@	c #D7D7D7",
"#	c #E5E5E5",
"$	c #E4E4E4",
"%	c #F3F3F3",
"&	c #F5F5F5",
"*	c #F2F2F2",
"=	c #F1F1F1",
"-	c #E0E0E0",
";	c #D4D4D4",
">	c #E1E1E1",
",	c #EDEDED",
"'	c #FDFDFD",
")	c #FBFBFB",
"!	c #FFFFFF",
"              ",
"              ",
"              ",
"              ",
"              ",
"              ",
" .........    ",
" .+++++++.    ",
" .+@@@@@+.    ",
" .+####$+.    ",
" .+%......... ",
" .+&.***=$**. ",
" .++.=---;-*. ",
" ....$>>>>,*. ",
"    .*'''')*. ",
"    .*!!!!!*. ",
"    .*******. ",
"    ......... ",
"              ",
"              ",
"              ",
"              ",
"              ",
"              ",
"              "};
