/* XPM */
static char * bottom_active_xpm[] = {
"128 4 3 1",
" 	c None",
".	c #989898",
"+	c #E1E1E1",
"................................................................................................................................",
"++++++++++++++++++++++++++++++++++++++++++++++++++++++++++++++++++++++++++++++++++++++++++++++++++++++++++++++++++++++++++++++++",
"++++++++++++++++++++++++++++++++++++++++++++++++++++++++++++++++++++++++++++++++++++++++++++++++++++++++++++++++++++++++++++++++",
"................................................................................................................................"};
