/* XPM */
static char * bottom_right_active_xpm[] = {
"25 25 3 1",
" 	c None",
".	c #989898",
"+	c #E1E1E1",
"                     ....",
"                     .++.",
"                     .++.",
"                     .++.",
"                     .++.",
"                     .++.",
"                     .++.",
"                     .++.",
"                     .++.",
"                     .++.",
"                     .++.",
"                     .++.",
"                     .++.",
"                     .++.",
"                     .++.",
"                     .++.",
"                     .++.",
"                     .++.",
"                     .++.",
"                     .++.",
"                     .++.",
"......................++.",
".+++++++++++++++++++++++.",
".+++++++++++++++++++++++.",
"........................."};
