/* XPM */
static char * bottom_left_inactive_xpm[] = {
"25 25 3 1",
" 	c None",
".	c #989898",
"+	c #E1E1E1",
".++.                     ",
".++.                     ",
".++.                     ",
".++.                     ",
".++.                     ",
".++.                     ",
".++.                     ",
".++.                     ",
".++.                     ",
".++.                     ",
".++.                     ",
".++.                     ",
".++.                     ",
".++.                     ",
".++.                     ",
".++.                     ",
".++.                     ",
".++.                     ",
".++.                     ",
".++.                     ",
".++.                     ",
".++......................",
".++++++++++++++++++++++++",
".++++++++++++++++++++++++",
"........................."};
