/* XPM */
static char * close_pressed_xpm[] = {
"15 13 122 2",
"  	c None",
". 	c #451202",
"+ 	c #441202",
"@ 	c #431202",
"# 	c #431102",
"$ 	c #411102",
"% 	c #3F1002",
"& 	c #3D1002",
"* 	c #401102",
"= 	c #461202",
"- 	c #4D1403",
"; 	c #531603",
"> 	c #561603",
", 	c #672612",
"' 	c #682612",
") 	c #692712",
"! 	c #632511",
"~ 	c #622411",
"{ 	c #6D2813",
"] 	c #7B2E16",
"^ 	c #873218",
"/ 	c #581703",
"( 	c #3E1002",
"_ 	c #642511",
": 	c #551A08",
"< 	c #561B09",
"[ 	c #581B09",
"} 	c #591C09",
"| 	c #5C1C09",
"1 	c #68200A",
"2 	c #591703",
"3 	c #541A08",
"4 	c #A6887F",
"5 	c #A3837A",
"6 	c #9F7F75",
"7 	c #9F7C71",
"8 	c #9C776D",
"9 	c #977267",
"0 	c #946F63",
"a 	c #5F1E0A",
"b 	c #631F0A",
"c 	c #7D2E16",
"d 	c #541603",
"e 	c #A3857C",
"f 	c #521908",
"g 	c #4F1908",
"h 	c #916A5F",
"i 	c #5E1D09",
"j 	c #651F0A",
"k 	c #772C15",
"l 	c #501503",
"m 	c #4E1808",
"n 	c #9A7F77",
"o 	c #451507",
"p 	c #8F756D",
"q 	c #8C7168",
"r 	c #896D64",
"s 	c #421406",
"t 	c #87665B",
"u 	c #511908",
"v 	c #621E0A",
"w 	c #7A2D15",
"x 	c #521503",
"y 	c #5E2310",
"z 	c #3F1306",
"A 	c #947C74",
"B 	c #411406",
"C 	c #8D726A",
"D 	c #613A2F",
"E 	c #856960",
"F 	c #7D5F57",
"G 	c #732B14",
"H 	c #4F1503",
"I 	c #3B0F02",
"J 	c #4F1D0E",
"K 	c #401406",
"L 	c #907770",
"M 	c #8A6F66",
"N 	c #876B62",
"O 	c #82665D",
"P 	c #3C1205",
"Q 	c #7A5D53",
"R 	c #471607",
"S 	c #592110",
"T 	c #300B00",
"U 	c #4A1A0B",
"V 	c #3E1205",
"W 	c #3B1105",
"X 	c #8B736B",
"Y 	c #3D1205",
"Z 	c #3F1205",
"` 	c #3A1104",
" .	c #765950",
"..	c #3F1305",
"+.	c #421305",
"@.	c #4F1C0C",
"#.	c #370D00",
"$.	c #2D0A00",
"%.	c #47190B",
"&.	c #8A7069",
"*.	c #886D65",
"=.	c #84675F",
"-.	c #81635B",
";.	c #7A5E56",
">.	c #785A51",
",.	c #74554C",
"'.	c #340C00",
").	c #2C0A00",
"!.	c #46190B",
"~.	c #431405",
"{.	c #501D0C",
"].	c #320C00",
"^.	c #2F0C01",
"/.	c #491A0B",
"(.	c #4D1C0C",
"_.	c #4E1C0C",
":.	c #300C01",
"<.	c #300D01",
"[.	c #310D01",
"}.	c #320D01",
"|.	c #340D02",
"1.	c #330D02",
". + @ # $ $ $ # % & * = - ; > ",
"# , , , ' ) ) ) ! ~ ' { ] ^ / ",
"( _ : : < [ [ } : < < | 1 ^ 2 ",
"( _ : 3 4 5 6 7 8 9 0 a b c d ",
"% _ 3 3 e f 3 3 f g h i j k l ",
"$ , 3 m n o p q r s t u v w x ",
"* y o z A B C D E B F s 3 G H ",
"I J B K L z M N O P Q s R S = ",
"T U V W X Y Y Z P `  ...+.@.#.",
"$.%.W P &.*.=.-.;.>.,.Z +.@.'.",
").!.P P P P Z ..V V Y ..~.{.].",
"^./././././.U (.U %.U _._.(.T ",
":.:.:.:.:.<.[.}.:.^.:.|.1.1.1."};
