/* XPM */
static char * close_active_xpm[] = {
"15 13 119 2",
"  	c None",
". 	c #671B04",
"+ 	c #661B04",
"@ 	c #661B03",
"# 	c #651B03",
"$ 	c #641A03",
"% 	c #631A03",
"& 	c #611903",
"* 	c #681B04",
"= 	c #6D1D04",
"- 	c #711E04",
"; 	c #731E04",
"> 	c #9F3B1C",
", 	c #A03B1C",
"' 	c #A13C1C",
") 	c #9C3A1B",
"! 	c #9B3A1B",
"~ 	c #A43D1D",
"{ 	c #AE411F",
"] 	c #B64420",
"^ 	c #741F04",
"/ 	c #621A03",
"( 	c #9D3A1C",
"_ 	c #862A0E",
": 	c #872A0E",
"< 	c #882A0E",
"[ 	c #892B0E",
"} 	c #8B2B0E",
"| 	c #942E0F",
"1 	c #751F04",
"2 	c #85290D",
"3 	c #FAF6F5",
"4 	c #F5EFEC",
"5 	c #F0E5E2",
"6 	c #ECDEDA",
"7 	c #E8D6D1",
"8 	c #E3CEC8",
"9 	c #DFC6BE",
"0 	c #8D2C0E",
"a 	c #902D0F",
"b 	c #AF411F",
"c 	c #721E04",
"d 	c #84290D",
"e 	c #F7F1EF",
"f 	c #83290D",
"g 	c #81280D",
"h 	c #DBC0B8",
"i 	c #8C2C0E",
"j 	c #912D0F",
"k 	c #AB401E",
"l 	c #6F1D04",
"m 	c #80280D",
"n 	c #F3EBE9",
"o 	c #78250C",
"p 	c #E7DAD6",
"q 	c #E2D1CC",
"r 	c #DDC9C3",
"s 	c #76250C",
"t 	c #D4B9B1",
"u 	c #82290D",
"v 	c #8F2D0F",
"w 	c #AD401F",
"x 	c #701D04",
"y 	c #98391B",
"z 	c #73240C",
"A 	c #EEE5E2",
"B 	c #74240C",
"C 	c #E3D4CF",
"D 	c #A26B5B",
"E 	c #D9C3BD",
"F 	c #CEB2AA",
"G 	c #A83F1E",
"H 	c #6E1D04",
"I 	c #601903",
"J 	c #8B3419",
"K 	c #EADFDB",
"L 	c #DFCEC8",
"M 	c #DAC6BF",
"N 	c #D4BDB5",
"O 	c #70220A",
"P 	c #C9ABA2",
"Q 	c #7A260C",
"R 	c #94371A",
"S 	c #531400",
"T 	c #842F15",
"U 	c #6F2109",
"V 	c #6D2009",
"W 	c #E5D7D3",
"X 	c #702109",
"Y 	c #6E2009",
"Z 	c #6B2009",
"` 	c #C5A59C",
" .	c #712109",
"..	c #732209",
"+.	c #883116",
"@.	c #591500",
"#.	c #511300",
"$.	c #812E14",
"%.	c #E2D2CD",
"&.	c #DDCAC5",
"*.	c #D7C1BA",
"=.	c #D2B9B1",
"-.	c #CCB1A9",
";.	c #C6A79E",
">.	c #C09F94",
",.	c #571500",
"'.	c #501300",
").	c #802E14",
"!.	c #893116",
"~.	c #551400",
"{.	c #551603",
"].	c #832F15",
"^.	c #873015",
"/.	c #883115",
"(.	c #561603",
"_.	c #561703",
":.	c #571703",
"<.	c #581703",
"[.	c #591703",
". + @ # $ $ $ # % & % * = - ; ",
"# > > > , ' ' ' ) ! , ~ { ] ^ ",
"/ ( _ _ : : < [ _ : : } | ] 1 ",
"/ ( _ 2 3 4 5 6 7 8 9 0 a b c ",
"% ( 2 d e f d 2 f g h i j k l ",
"$ > d m n o p q r s t u v w x ",
"% y o z A B C D E B F s d G H ",
"I J B B K z L M N O P s Q R * ",
"S T U V W U U X Y Z `  ...+.@.",
"#.$.V Y %.&.*.=.-.;.>.X ..+.,.",
"'.).Y Y Y Y X  .U U U  ...!.~.",
"{.].].].].].T ^.T $.T /./.^.S ",
"(.(.(.(.(._.:.<.(.{.(.[.[.<.[."};
