/* XPM */
static char * hide_inactive_xpm[] = {
"15 13 83 1",
" 	c None",
".	c #353535",
"+	c #343434",
"@	c #333333",
"#	c #323232",
"$	c #363636",
"%	c #383838",
"&	c #3A3A3A",
"*	c #3B3B3B",
"=	c #5D5D5D",
"-	c #5E5E5E",
";	c #5C5C5C",
">	c #5B5B5B",
",	c #606060",
"'	c #666666",
")	c #6B6B6B",
"!	c #3C3C3C",
"~	c #4A4A4A",
"{	c #4B4B4B",
"]	c #4C4C4C",
"^	c #515151",
"/	c #494949",
"(	c #DADADA",
"_	c #D4D4D4",
":	c #CCCCCC",
"<	c #C6C6C6",
"[	c #C0C0C0",
"}	c #B8B8B8",
"|	c #B0B0B0",
"1	c #4E4E4E",
"2	c #505050",
"3	c #676767",
"4	c #939393",
"5	c #909090",
"6	c #8D8D8D",
"7	c #898989",
"8	c #858585",
"9	c #818181",
"0	c #B6B6B6",
"a	c #4D4D4D",
"b	c #656565",
"c	c #464646",
"d	c #8C8C8C",
"e	c #888888",
"f	c #848484",
"g	c #808080",
"h	c #484848",
"i	c #4F4F4F",
"j	c #595959",
"k	c #424242",
"l	c #3F3F3F",
"m	c #404040",
"n	c #414141",
"o	c #BBBBBB",
"p	c #636363",
"q	c #393939",
"r	c #313131",
"s	c #525252",
"t	c #E8E8E8",
"u	c #E0E0E0",
"v	c #D9D9D9",
"w	c #D2D2D2",
"x	c #3E3E3E",
"y	c #828282",
"z	c #434343",
"A	c #575757",
"B	c #2A2A2A",
"C	c #FEFEFE",
"D	c #C2C2C2",
"E	c #BEBEBE",
"F	c #F7F7F7",
"G	c #838383",
"H	c #C5C5C5",
"I	c #3D3D3D",
"J	c #2C2C2C",
"K	c #282828",
"L	c #F0F0F0",
"M	c #E1E1E1",
"N	c #878787",
"O	c #CBCBCB",
"P	c #2B2B2B",
"Q	c #2D2D2D",
"R	c #2E2E2E",
"...+++++@#@$%&*",
"+===----;>-,')!",
"@;~~~{{{~~~]^)!",
"@;~/(_:<[}|123*",
"@;//4567890a2b&",
"+=/c5defgg}hi'&",
"@jklmmnnm9on/pq",
"rsmmtuvwxy[nzA$",
"B]!*CDEF*GHIxiJ",
"K{**FLtM*NOIxiP",
"K~****II!!!Ix2B",
"J]]]]]]1]{]111B",
"JJJJJQQQJJJRRRR"};
