/* XPM */
static char * maximize_pressed_xpm[] = {
"15 13 127 2",
"  	c None",
". 	c #234502",
"+ 	c #224402",
"@ 	c #224302",
"# 	c #214302",
"$ 	c #214102",
"% 	c #203F02",
"& 	c #1F3D02",
"* 	c #204002",
"= 	c #234602",
"- 	c #274D03",
"; 	c #2A5303",
"> 	c #2B5603",
", 	c #4A6711",
"' 	c #4B6811",
") 	c #4C6911",
"! 	c #476310",
"~ 	c #476210",
"{ 	c #4E6D12",
"] 	c #597B15",
"^ 	c #618717",
"/ 	c #2C5803",
"( 	c #1F3E02",
"_ 	c #486411",
": 	c #2E5508",
"< 	c #2F5609",
"[ 	c #305809",
"} 	c #315909",
"| 	c #325C09",
"1 	c #39680A",
"2 	c #2D5903",
"3 	c #2E5408",
"4 	c #92A67F",
"5 	c #8EA37A",
"6 	c #8A9F75",
"7 	c #889F71",
"8 	c #567638",
"9 	c #7B9463",
"0 	c #345F0A",
"a 	c #36630A",
"b 	c #5A7D15",
"c 	c #2A5403",
"d 	c #8FA37C",
"e 	c #5C7940",
"f 	c #5B783D",
"g 	c #849A6D",
"h 	c #2D5208",
"i 	c #527036",
"j 	c #77915F",
"k 	c #335E09",
"l 	c #37650A",
"m 	c #567814",
"n 	c #285003",
"o 	c #2A4E08",
"p 	c #899A77",
"q 	c #546D3D",
"r 	c #516839",
"s 	c #7A8C68",
"t 	c #234106",
"u 	c #4B6432",
"v 	c #71875B",
"w 	c #2C5108",
"x 	c #35620A",
"y 	c #587B14",
"z 	c #295203",
"A 	c #445E10",
"B 	c #254507",
"C 	c #223F06",
"D 	c #849474",
"E 	c #80916F",
"F 	c #7C8D6A",
"G 	c #788A65",
"H 	c #234006",
"I 	c #486130",
"J 	c #697D57",
"K 	c #244206",
"L 	c #537413",
"M 	c #284F03",
"N 	c #1E3B02",
"O 	c #394F0D",
"P 	c #223E06",
"Q 	c #213E05",
"R 	c #455C2F",
"S 	c #667A53",
"T 	c #274707",
"U 	c #405A0F",
"V 	c #173000",
"W 	c #354A0B",
"X 	c #213D05",
"Y 	c #1F3B05",
"Z 	c #4D6338",
"` 	c #4C6337",
" .	c #496134",
"..	c #496032",
"+.	c #43592C",
"@.	c #637650",
"#.	c #213F05",
"$.	c #234105",
"%.	c #394F0C",
"&.	c #1A3600",
"*.	c #152D00",
"=.	c #33470B",
"-.	c #203C05",
";.	c #798A69",
">.	c #768765",
",.	c #71835F",
"'.	c #6D805B",
").	c #677A56",
"!.	c #647851",
"~.	c #5F744C",
"{.	c #193300",
"].	c #152C00",
"^.	c #32460B",
"/.	c #203D05",
"(.	c #234205",
"_.	c #3A500C",
":.	c #183100",
"<.	c #182F01",
"[.	c #34490B",
"}.	c #384E0C",
"|.	c #384F0C",
"1.	c #183001",
"2.	c #193101",
"3.	c #193201",
"4.	c #172F01",
"5.	c #1A3402",
"6.	c #1A3302",
". + @ # $ $ $ # % & * = - ; > ",
"# , , , ' ) ) ) ! ~ ' { ] ^ / ",
"( _ : : < [ [ } : < < | 1 ^ 2 ",
"( _ : 3 4 5 6 7 [ 8 9 0 a b c ",
"% _ 3 3 d e f g h i j k l m n ",
"$ , 3 o p q r s t u v w x y z ",
"* A B C D E F G H I J K 3 L M ",
"N O t H P C H H Q R S K T U = ",
"V W X Y Z `  ...R +.@.#.$.%.&.",
"*.=.Y -.;.>.,.'.).!.~.Q $.%.{.",
"].^.-.-.-.-.Q #.X X /.#.(._.:.",
"<.[.[.[.[.[.W }.W =.W |.|.}.V ",
"1.1.1.1.1.1.2.3.1.4.1.5.6.6.6."};
