/* XPM */
static char * maximize_active_xpm[] = {
"15 13 85 1",
" 	c None",
".	c #353535",
"+	c #343434",
"@	c #333333",
"#	c #323232",
"$	c #363636",
"%	c #383838",
"&	c #3A3A3A",
"*	c #3B3B3B",
"=	c #5D5D5D",
"-	c #5E5E5E",
";	c #5C5C5C",
">	c #5B5B5B",
",	c #606060",
"'	c #666666",
")	c #6B6B6B",
"!	c #3C3C3C",
"~	c #4A4A4A",
"{	c #4B4B4B",
"]	c #4C4C4C",
"^	c #515151",
"/	c #494949",
"(	c #F7F7F7",
"_	c #F1F1F1",
":	c #E9E9E9",
"<	c #E3E3E3",
"[	c #909090",
"}	c #CECECE",
"|	c #4E4E4E",
"1	c #505050",
"2	c #676767",
"3	c #F3F3F3",
"4	c #9A9A9A",
"5	c #979797",
"6	c #DEDEDE",
"7	c #484848",
"8	c #8B8B8B",
"9	c #C9C9C9",
"0	c #4D4D4D",
"a	c #656565",
"b	c #464646",
"c	c #EEEEEE",
"d	c #949494",
"e	c #8F8F8F",
"f	c #D7D7D7",
"g	c #404040",
"h	c #858585",
"i	c #C2C2C2",
"j	c #4F4F4F",
"k	c #595959",
"l	c #424242",
"m	c #3F3F3F",
"n	c #E8E8E8",
"o	c #E1E1E1",
"p	c #D9D9D9",
"q	c #D3D3D3",
"r	c #818181",
"s	c #BBBBBB",
"t	c #414141",
"u	c #636363",
"v	c #393939",
"w	c #313131",
"x	c #525252",
"y	c #3E3E3E",
"z	c #7D7D7D",
"A	c #B6B6B6",
"B	c #434343",
"C	c #575757",
"D	c #2A2A2A",
"E	c #898989",
"F	c #828282",
"G	c #787878",
"H	c #B0B0B0",
"I	c #3D3D3D",
"J	c #2C2C2C",
"K	c #282828",
"L	c #D8D8D8",
"M	c #D1D1D1",
"N	c #C8C8C8",
"O	c #BABABA",
"P	c #B2B2B2",
"Q	c #AAAAAA",
"R	c #2B2B2B",
"S	c #2D2D2D",
"T	c #2E2E2E",
"...+++++@#@$%&*",
"+===----;>-,')!",
"@;~~~{{{~~~]^)!",
"@;~/(_:<{[}|12*",
"@;//345678901a&",
"+=/bcdefghi7j'&",
"@klmnopqgrst/uv",
"wxggmmgmyzAtBC$",
"D]!*8EhFzGHIyjJ",
"K{**LMNiOPQIyjR",
"K~****II!!!Iy1D",
"J]]]]]]|]{]|||D",
"JJJJJSSSJJJTTTT"};
