/* XPM */
static char * maximize_prelight_xpm[] = {
"15 13 48 1",
" 	c None",
".	c #4E9A06",
"+	c #B2F72A",
"@	c #73D216",
"#	c #F9FDF5",
"$	c #F4FBED",
"%	c #EEF9E3",
"&	c #E9F8DB",
"*	c #A9E370",
"=	c #D9F3C0",
"-	c #F6FCF0",
";	c #B2E67F",
">	c #AFE57A",
",	c #E5F6D4",
"'	c #A7E26C",
")	c #D5F1BA",
"!	c #F2FAE9",
"~	c #AFE57B",
"{	c #ADE476",
"]	c #E1F5CE",
"^	c #A5E26A",
"/	c #D1F0B4",
"(	c #E9F7DA",
"_	c #E3F6D1",
":	c #DEF4C9",
"<	c #A3E166",
"[	c #CEEFAD",
"}	c #70CE14",
"|	c #6FCE13",
"1	c #9FDE61",
"2	c #C8ECA6",
"3	c #469001",
"4	c #AAED25",
"5	c #6BC811",
"6	c #A7DE73",
"7	c #A5DD6F",
"8	c #A2DC6A",
"9	c #9FDB65",
"0	c #9CDA61",
"a	c #9AD95C",
"b	c #C3E99F",
"c	c #E1F4CF",
"d	c #DCF2C7",
"e	c #D5EFBC",
"f	c #D0EDB4",
"g	c #CBEBAB",
"h	c #C4E9A1",
"i	c #BFE798",
"...............",
".+++++++++++++.",
".+@@@@@@@@@@@+.",
".+@@#$%&@*=@@+.",
".+@@-;>,@')@@+.",
".+@@!~{]@^/@@+.",
".+@@%(_:@<[@@+.",
".+@@@@@}|12@@+.",
"345567890ab5543",
"3455cdefghi5543",
"345555555555543",
".44444444444443",
"..............."};
