/* XPM */
static char * maximize_inactive_xpm[] = {
"15 13 117 2",
"  	c None",
". 	c #26321B",
"+ 	c #26311B",
"@ 	c #25301B",
"# 	c #252F1B",
"$ 	c #232D1A",
"% 	c #242E1A",
"& 	c #27331C",
"* 	c #2A381E",
"= 	c #2D3C1E",
"- 	c #2E3E1F",
"; 	c #475034",
"> 	c #485135",
", 	c #444D33",
"' 	c #4A5436",
") 	c #535F3B",
"! 	c #59673E",
"~ 	c #2E3F1F",
"{ 	c #454E34",
"] 	c #334027",
"^ 	c #344028",
"/ 	c #354228",
"( 	c #364329",
"_ 	c #374529",
": 	c #3D4D2C",
"< 	c #2F4020",
"[ 	c #F8F8F8",
"} 	c #F2F2F1",
"| 	c #EAEBE9",
"1 	c #E4E5E3",
"2 	c #8A9184",
"3 	c #CFD1CD",
"4 	c #39472A",
"5 	c #3B4A2B",
"6 	c #54603B",
"7 	c #2D3D1F",
"8 	c #333F27",
"9 	c #F4F4F4",
"0 	c #979C92",
"a 	c #92978D",
"b 	c #DFE1DE",
"c 	c #323E27",
"d 	c #858B80",
"e 	c #C9CCC7",
"f 	c #38462A",
"g 	c #3B4B2B",
"h 	c #505C39",
"i 	c #2B3A1E",
"j 	c #303B26",
"k 	c #EEEFEE",
"l 	c #8F938B",
"m 	c #8A8E86",
"n 	c #D7D8D6",
"o 	c #293221",
"p 	c #7E8279",
"q 	c #C3C5C0",
"r 	c #323D26",
"s 	c #3A492B",
"t 	c #525F3A",
"u 	c #2C3A1E",
"v 	c #424A32",
"w 	c #2B3523",
"x 	c #293021",
"y 	c #E9E9E8",
"z 	c #E1E1E0",
"A 	c #DADAD9",
"B 	c #D3D4D1",
"C 	c #2A3122",
"D 	c #797E75",
"E 	c #BBBCB9",
"F 	c #2A3322",
"G 	c #4E5938",
"H 	c #2B381D",
"I 	c #222B19",
"J 	c #393F2D",
"K 	c #282F20",
"L 	c #757A71",
"M 	c #B4B6B2",
"N 	c #2D3724",
"O 	c #3F4630",
"P 	c #1B2215",
"Q 	c #353B29",
"R 	c #272F20",
"S 	c #262E1F",
"T 	c #878A84",
"U 	c #838780",
"V 	c #7F837B",
"W 	c #7B7F77",
"X 	c #767A72",
"Y 	c #71756D",
"Z 	c #B0B2AD",
"` 	c #273020",
" .	c #293120",
"..	c #383F2B",
"+.	c #1E2716",
"@.	c #1A2114",
"#.	c #333828",
"$.	c #272E1F",
"%.	c #D8D9D8",
"&.	c #D1D3D0",
"*.	c #C9CAC7",
"=.	c #C1C3C0",
"-.	c #B9BBB8",
";.	c #B1B3AF",
">.	c #A8ABA6",
",.	c #1D2516",
"'.	c #1A2014",
").	c #393F2B",
"!.	c #1C2415",
"~.	c #1C2316",
"{.	c #343A29",
"].	c #373D2A",
"^.	c #373E2B",
"/.	c #1D2417",
"(.	c #1E2517",
"_.	c #1F2718",
":.	c #1E2617",
". + @ @ # # # @ $ $ % & * = - ",
"@ ; ; ; ; > > > , , ; ' ) ! ~ ",
"$ { ] ] ^ / / ( ] ^ ^ _ : ! < ",
"$ { ] ] [ } | 1 / 2 3 4 5 6 7 ",
"$ { ] 8 9 0 a b c d e f g h i ",
"# ; 8 j k l m n o p q r s t u ",
"% v w x y z A B C D E F 8 G H ",
"I J o C x x C o K L M F N O & ",
"P Q R S T U V W X Y Z `  ...+.",
"@.#.S $.%.&.*.=.-.;.>.`  ...,.",
"'.#.$.$.$.$.` ` R R $.` o ).!.",
"~.{.{.{.{.{.Q ].Q #.Q ^.^.].P ",
"/././././././.(./.~./._.:.(.:."};
