/* XPM */
static char * right_inactive_xpm[] = {
"4 128 3 1",
" 	c None",
".	c #989898",
"+	c #E1E1E1",
".++.",
".++.",
".++.",
".++.",
".++.",
".++.",
".++.",
".++.",
".++.",
".++.",
".++.",
".++.",
".++.",
".++.",
".++.",
".++.",
".++.",
".++.",
".++.",
".++.",
".++.",
".++.",
".++.",
".++.",
".++.",
".++.",
".++.",
".++.",
".++.",
".++.",
".++.",
".++.",
".++.",
".++.",
".++.",
".++.",
".++.",
".++.",
".++.",
".++.",
".++.",
".++.",
".++.",
".++.",
".++.",
".++.",
".++.",
".++.",
".++.",
".++.",
".++.",
".++.",
".++.",
".++.",
".++.",
".++.",
".++.",
".++.",
".++.",
".++.",
".++.",
".++.",
".++.",
".++.",
".++.",
".++.",
".++.",
".++.",
".++.",
".++.",
".++.",
".++.",
".++.",
".++.",
".++.",
".++.",
".++.",
".++.",
".++.",
".++.",
".++.",
".++.",
".++.",
".++.",
".++.",
".++.",
".++.",
".++.",
".++.",
".++.",
".++.",
".++.",
".++.",
".++.",
".++.",
".++.",
".++.",
".++.",
".++.",
".++.",
".++.",
".++.",
".++.",
".++.",
".++.",
".++.",
".++.",
".++.",
".++.",
".++.",
".++.",
".++.",
".++.",
".++.",
".++.",
".++.",
".++.",
".++.",
".++.",
".++.",
".++.",
".++.",
".++.",
".++.",
".++.",
".++.",
".++.",
".++."};
