/* XPM */
static char * title_2_active_xpm[] = {
"5 23 3 1",
" 	c None",
".	c #989898",
"+	c #E1E1E1",
".....",
"+++++",
"+++++",
"+++++",
"+++++",
"+++++",
"+++++",
"+++++",
"+++++",
"+++++",
"+++++",
"+++++",
"+++++",
"+++++",
"+++++",
"+++++",
"+++++",
"+++++",
"+++++",
"+++++",
"+++++",
"+++++",
"....."};
