/* XPM */
static char * top_left_inactive_xpm[] = {
"25 44 3 1",
" 	c None",
".	c #989898",
"+	c #E1E1E1",
".........................",
".++++++++++++++++++++++++",
".++++++++++++++++++++++++",
".++++++++++++++++++++++++",
".++++++++++++++++++++++++",
".++++++++++++++++++++++++",
".++++++++++++++++++++++++",
".++++++++++++++++++++++++",
".++++++++++++++++++++++++",
".++++++++++++++++++++++++",
".++++++++++++++++++++++++",
".++++++++++++++++++++++++",
".++++++++++++++++++++++++",
".++++++++++++++++++++++++",
".++++++++++++++++++++++++",
".++++++++++++++++++++++++",
".++++++++++++++++++++++++",
".++++++++++++++++++++++++",
".++++++++++++++++++++++++",
".++++++++++++++++++++++++",
".++++++++++++++++++++++++",
".++++++++++++++++++++++++",
".++......................",
".++.                     ",
".++.                     ",
".++.                     ",
".++.                     ",
".++.                     ",
".++.                     ",
".++.                     ",
".++.                     ",
".++.                     ",
".++.                     ",
".++.                     ",
".++.                     ",
".++.                     ",
".++.                     ",
".++.                     ",
".++.                     ",
".++.                     ",
".++.                     ",
".++.                     ",
".++.                     ",
".++.                     "};
