/* XPM */
static char * top_left_inactive_xpm[] = {
"8 36 7 1",
" 	c #CBCBCB",
".	c #E1E1E1",
"+	c #DFDFDF",
"@	c #DDDDDD",
"#	c #DADADA",
"$	c #D7D7D7",
"%	c #D5D5D5",
"        ",
" .......",
" .......",
" .......",
" .......",
" .......",
" .......",
" .......",
" .......",
" .......",
" .......",
" .......",
" .......",
" .......",
" .......",
" .......",
" .......",
" .......",
" .......",
" .......",
" .......",
" .......",
" .......",
" .......",
" .......",
" .......",
" .......",
" .......",
" .......",
" .......",
" .......",
" ......+",
" ......@",
" ......#",
" ......$",
" ......%"};
