/* XPM */
static char * close_pressed_xpm[] = {
"14 31 13 1",
" 	c None",
".	c #566161",
"+	c #8D9292",
"@	c #6F7877",
"#	c #D5D5D5",
"$	c #787E7E",
"%	c #B5B8B8",
"&	c #828787",
"*	c #C4C6C6",
"=	c #939898",
"-	c #E0E0E0",
";	c #DFDFDF",
">	c #DDDDDD",
"              ",
"              ",
"              ",
"              ",
"              ",
"              ",
"              ",
"              ",
"              ",
"              ",
"              ",
"              ",
"   ........   ",
"   .++++++.   ",
"   .+@@@@#.   ",
"   .+$%%%#.   ",
"   .+&***#.   ",
"   .+=-;>#.   ",
"   .+#####.   ",
"   ........   ",
"              ",
"              ",
"              ",
"              ",
"              ",
"              ",
"              ",
"              ",
"              ",
"              ",
"              "};
