/* XPM */
static char * stick_pressed_xpm[] = {
"14 25 15 1",
" 	c None",
".	c #5E5E5E",
"+	c #929292",
"@	c #5C5C5C",
"#	c #D5D5D5",
"$	c #767676",
"%	c #ADADAD",
"&	c #7D7D7D",
"*	c #B7B7B7",
"=	c #878787",
"-	c #C6C6C6",
";	c #8F8F8F",
">	c #D1D1D1",
",	c #9A9A9A",
"'	c #E1E1E1",
"              ",
"              ",
"              ",
"              ",
"              ",
"              ",
"              ",
"  ..........  ",
"  .++++++++.  ",
"  .+@@@@@@#.  ",
"  .+$$..%%#.  ",
"  .+&.$$.*#.  ",
"  .+=.=-.-#.  ",
"  .+;>..>>#.  ",
"  .+,'''''#.  ",
"  .+#######.  ",
"  ..........  ",
"              ",
"              ",
"              ",
"              ",
"              ",
"              ",
"              ",
"              "};
