<?xml version="1.0" encoding="UTF-8" standalone="no"?>
<svg
   width="48"
   height="48"
   viewBox="0 0 48 48"
   xml:space="preserve"
   version="1.1"
   id="svg53"
   sodipodi:docname="multimedia-player.svg"
   inkscape:version="1.4.3 (0d15f75042, 2025-12-25)"
   xmlns:inkscape="http://www.inkscape.org/namespaces/inkscape"
   xmlns:sodipodi="http://sodipodi.sourceforge.net/DTD/sodipodi-0.dtd"
   xmlns="http://www.w3.org/2000/svg"
   xmlns:svg="http://www.w3.org/2000/svg"><defs
   id="defs53" /><sodipodi:namedview
   id="namedview53"
   pagecolor="#ffffff"
   bordercolor="#000000"
   borderopacity="0.25"
   inkscape:showpageshadow="2"
   inkscape:pageopacity="0.0"
   inkscape:pagecheckerboard="0"
   inkscape:deskcolor="#d1d1d1"
   inkscape:document-units="pt"
   inkscape:zoom="13.995"
   inkscape:cx="33.297606"
   inkscape:cy="33.333333"
   inkscape:window-width="2194"
   inkscape:window-height="1145"
   inkscape:window-x="0"
   inkscape:window-y="0"
   inkscape:window-maximized="1"
   inkscape:current-layer="svg53" />
<g
   transform="matrix(0.54026989,0,0,0.54026989,-5.0270799,-6.1706118)"
   id="g53">
	<g
   id="Icon Shadow - Closed"
   style="clip-rule:nonzero;fill:#000000;fill-opacity:1;fill-rule:nonzero;stroke:none;stroke-miterlimit:4">
		<path
   d="M 50,100 10,80 50,60 90,80 Z"
   id="path1" />
	</g>
	<g
   id="Icon - Closed"
   style="clip-rule:nonzero;fill:#ffffff;fill-opacity:1;stroke:#000000;stroke-miterlimit:4">
		<path
   d="M 50,90 18,74 15.66,72.57 14,71 12,68.97 10.74,66.51 10,64 V 60 L 50,40 v 4 l 1,3 1.34,2.25 1.2,1.48 1.46,1.27 3,2 32,16 z"
   id="path2" />
	</g>
	<g
   id="Path_0"
   style="clip-rule:nonzero;fill:#a4a8a4;fill-opacity:1;fill-rule:nonzero;stroke:none;stroke-miterlimit:4">
		<path
   d="M 58.08,11.84 22.31,29.72 34.23,35.68 70,17.8 Z"
   id="path3" />
	</g>
	<g
   id="Path_1"
   style="clip-rule:nonzero;fill:#505450;fill-opacity:1;fill-rule:nonzero;stroke:none;stroke-miterlimit:4">
		<path
   d="m 35.88,71.15 31.26,-16.27 0.3,5.93 -30.82,15.41 z"
   id="path4" />
	</g>
	<g
   id="Path_2"
   style="clip-rule:nonzero;fill:#505450;fill-opacity:1;fill-rule:nonzero;stroke:none;stroke-miterlimit:4">
		<path
   d="M 67.14,22.69 66.8,61.13 70,59.53 V 21.15 Z"
   id="path5" />
	</g>
	<g
   id="Path_3"
   style="clip-rule:nonzero;fill:#505450;fill-opacity:1;fill-rule:nonzero;stroke:none;stroke-miterlimit:4">
		<path
   d="m 34.23,38.03 3.3,-2.4 0.24,40.01 -3.54,1.77 z"
   id="path6" />
	</g>
	<g
   id="Path_4"
   style="clip-rule:nonzero;fill:#505450;fill-opacity:1;fill-rule:nonzero;stroke:none;stroke-miterlimit:4">
		<path
   d="m 34.23,35.68 v 3.96 L 70,22 v -4.2 z"
   id="path7" />
	</g>
	<g
   id="Path_5"
   style="clip-rule:nonzero;fill:#7c7e7c;fill-opacity:1;fill-rule:nonzero;stroke:none;stroke-miterlimit:4">
		<path
   d="m 22.31,29.72 v 41.73 l 11.92,5.96 V 35.68 Z"
   id="path8" />
	</g>
	<g
   id="Path_6"
   style="clip-rule:nonzero;fill:#b4b6dc;fill-opacity:1;fill-rule:nonzero;stroke:none;stroke-miterlimit:4">
		<path
   d="M 37.57,37.95 67.14,22.69 67.22,56.52 37.57,70.38 Z"
   id="path9" />
	</g>
	<g
   id="Path_7"
   style="clip-rule:nonzero;fill:#7070c0;fill-opacity:1;stroke:#000000;stroke-miterlimit:4">
		<path
   d="M 37.57,37.95 V 70.38 L 67.22,56.52 67.14,22.69 Z"
   id="path10" />
	</g>
	<g
   id="Path_8"
   style="clip-rule:nonzero;fill:none;fill-opacity:1;stroke:#000000;stroke-miterlimit:4">
		<path
   d="M 70,17.8 V 59.53 L 34.23,77.41 V 35.68 Z"
   id="path11" />
	</g>
	<g
   id="Path_9"
   style="clip-rule:nonzero;fill:none;fill-opacity:1;stroke:#000000;stroke-miterlimit:4">
		<path
   d="M 34.23,77.41 22.31,71.45 V 29.72 L 58.08,11.84 70,17.8"
   id="path12" />
	</g>
	<g
   id="g13"
   style="clip-rule:nonzero;fill:#505450;fill-opacity:1;fill-rule:nonzero;stroke:none;stroke-miterlimit:4">
		<path
   d="m 78.4,48.91 0.03,14.87 2.36,-0.84 -0.2,-14.89 z"
   id="path13" />
	</g>
	<g
   id="g14"
   style="clip-rule:nonzero;fill:#505450;fill-opacity:1;fill-rule:nonzero;stroke:none;stroke-miterlimit:4">
		<path
   d="m 85.17,62.36 -7.19,3.81 0.67,2.68 7.4,-3.79 z"
   id="path14" />
	</g>
	<g
   id="g15"
   style="clip-rule:nonzero;fill:#505450;fill-opacity:1;stroke:#505450;stroke-miterlimit:4">
		<path
   d="m 89.96,60.72 0.12,3.01 5,0.23 v -2.8 z"
   id="path15" />
	</g>
	<g
   id="g16"
   style="clip-rule:nonzero;fill:#505450;fill-opacity:1;stroke:#505450;stroke-miterlimit:4">
		<path
   d="m 85.17,62.36 4.79,-1.64 0.58,3.22 -4.49,1.12 z"
   id="path16" />
	</g>
	<g
   id="g17"
   style="clip-rule:nonzero;fill:#505450;fill-opacity:1;stroke:#505450;stroke-miterlimit:4">
		<path
   d="m 86.69,76.33 -0.31,3.14 8.31,-4.12 -0.05,-3.12 z"
   id="path17" />
	</g>
	<g
   id="g18"
   style="clip-rule:nonzero;fill:#505450;fill-opacity:1;stroke:#505450;stroke-miterlimit:4">
		<path
   d="m 86.79,60.81 -0.1,15.52 2.14,-1.18 v -6.38 -8.58 z"
   id="path18" />
	</g>
	<g
   id="g19"
   style="clip-rule:nonzero;fill:#505450;fill-opacity:1;stroke:#505450;stroke-miterlimit:4">
		<path
   d="m 92.01,43.16 0.06,15.43 2.51,0.58 0.01,-14.47 z"
   id="path19" />
	</g>
	<g
   id="g20"
   style="clip-rule:nonzero;fill:#505450;fill-opacity:1;stroke:#505450;stroke-miterlimit:4">
		<path
   d="m 89.39,41.79 h 2.95 l 2.25,1.04 v 2.49 L 89.13,44.4 Z"
   id="path20" />
	</g>
	<g
   id="g21"
   style="clip-rule:nonzero;fill:#505450;fill-opacity:1;stroke:#505450;stroke-miterlimit:4">
		<path
   d="m 85.71,42.48 0.9,2.51 2.52,-0.59 0.26,-2.61 z"
   id="path21" />
	</g>
	<g
   id="g22"
   style="clip-rule:nonzero;fill:#505450;fill-opacity:1;stroke:#505450;stroke-miterlimit:4">
		<path
   d="m 53.76,78.61 0.32,-3.17 0.3,-0.16 11.13,-5.79 7.92,-3.75 5.04,-2.39 -0.32,3.15 -23.52,12 z"
   id="path22" />
	</g>
	<g
   id="g23"
   style="clip-rule:nonzero;fill:#505450;fill-opacity:1;stroke:#505450;stroke-miterlimit:4">
		<path
   d="m 51.28,75.81 4.13,-0.35 0.85,2.21 -5.28,2 z"
   id="path23" />
	</g>
	<g
   id="g24"
   style="clip-rule:nonzero;fill:#505450;fill-opacity:1;stroke:#505450;stroke-miterlimit:4">
		<path
   d="m 48.25,74.25 0.46,4.49 2.27,0.93 0.3,-3.86 z"
   id="path24" />
	</g>
	<g
   id="Path_10"
   style="clip-rule:nonzero;fill:#505450;fill-opacity:1;stroke:#505450;stroke-miterlimit:4">
		<path
   d="m 53.13,56.59 -1.49,0.42 -0.17,2.94 h 1.61 l 0.66,-0.17 10.06,-3.91 14.6,-6.96 2.19,-0.86 6.02,-3.06 -0.9,-2.51 z"
   id="path25" />
	</g>
	<g
   id="Path_11"
   style="clip-rule:nonzero;fill:#505450;fill-opacity:1;stroke:#505450;stroke-miterlimit:4">
		<path
   d="m 47.27,56.71 v 22.21 l 2.56,0.27 1.81,-22.18 z"
   id="path26" />
	</g>
	<g
   id="Path_12"
   style="clip-rule:nonzero;fill:#505450;fill-opacity:1;stroke:#505450;stroke-miterlimit:4">
		<path
   d="m 55.48,54.09 0.05,2.89 2.31,0.21 0.16,-2.92 z"
   id="path27" />
	</g>
	<g
   id="Path_13"
   style="clip-rule:nonzero;fill:#505450;fill-opacity:1;stroke:#505450;stroke-miterlimit:4">
		<path
   d="M 59.57,57.51 63.04,71 65.37,69.84 65.42,54.49 Z"
   id="path28" />
	</g>
	<g
   id="g29"
   style="clip-rule:nonzero;fill:#98c4c0;fill-opacity:1;stroke:#000000;stroke-miterlimit:4">
		<path
   d="m 55.03,59.5 -1.95,0.45 h -1.61 l -2.3,-0.21 v 14.99 l 2.11,1.08 2.8,-0.37 9.13,-4.73 V 55.86 Z"
   id="path29" />
	</g>
	<g
   id="g30"
   style="clip-rule:nonzero;fill:#98c4c0;fill-opacity:1;stroke:#000000;stroke-miterlimit:4">
		<path
   d="m 65.42,54.49 0.09,15 12.96,-6.14 -0.07,-14.44 z"
   id="path30" />
	</g>
	<g
   id="g31"
   style="clip-rule:nonzero;fill:#98c4c0;fill-opacity:1;stroke:#000000;stroke-miterlimit:4">
		<path
   d="m 90.46,44.62 -5.21,0.86 -4.66,2.57 v 14.12 l 5,-2.66 3.87,-1.14 2.61,0.22 0.05,-13.7 z"
   id="path31" />
	</g>
	<g
   id="g32"
   style="clip-rule:nonzero;fill:none;fill-opacity:1;stroke:#000000;stroke-miterlimit:4">
		<path
   d="m 47.27,56.71 v 22.21 l 3.71,0.75 3.65,-1.17 31.37,-16.01 4.04,-0.91 4.54,0.03 0.01,-18.78 -1.38,-0.87 -1.91,-0.37 -1.91,0.2 -4.17,0.78 -30.77,13.66 -2.81,0.78 z"
   id="path32" />
	</g>
	<g
   id="Path_19"
   style="clip-rule:nonzero;fill:#505450;fill-opacity:1;stroke:#505450;stroke-miterlimit:4">
		<path
   d="m 56.33,57.05 h 1.52 l 1.6,0.14 1.94,-0.58 1.18,-0.52 -4.62,-0.83 2.06,-0.09 z"
   id="path33" />
	</g>
	<g
   id="g34"
   style="clip-rule:nonzero;fill:none;fill-opacity:1;stroke:#000000;stroke-miterlimit:4">
		<path
   d="m 63.11,55.98 -1.72,0.77 -1.94,0.44 h -1.61 l -1.51,-0.14"
   id="path34" />
	</g>
	<g
   id="g35"
   style="clip-rule:nonzero;fill:#ffffff;fill-opacity:1;stroke:#000000;stroke-miterlimit:4">
		<path
   d="m 42.29,40.43 v 30.7 L 67.09,59.21 V 28.34 Z"
   id="path35" />
	</g>
	<g
   id="g36"
   style="clip-rule:nonzero;fill:#883888;fill-opacity:1;stroke:#883888;stroke-miterlimit:4">
		<path
   d="m 45.5,54.75 v 0 l -0.34,-2.8 1.11,-3.2 -0.19,-1.85 0.38,-2.68 -2.47,-1.96 5.53,15.7 0.77,2.87 3.62,2.66 -9.92,4.83 V 42.26 Z"
   id="path36" />
	</g>
	<g
   id="g37"
   style="clip-rule:nonzero;fill:none;fill-opacity:1;stroke:#000000;stroke-miterlimit:4">
		<path
   d="m 53.53,40.3 -4.21,2.14"
   id="path37" />
	</g>
	<g
   id="g38"
   style="clip-rule:nonzero;fill:none;fill-opacity:1;stroke:#000000;stroke-miterlimit:4">
		<path
   d="m 62.12,36.73 -4.39,2.14"
   id="path38" />
	</g>
	<g
   id="g39"
   style="clip-rule:nonzero;fill:none;fill-opacity:1;stroke:#0000f8;stroke-miterlimit:4">
		<path
   d="m 50.47,45.65 4.02,-1.96"
   id="path39" />
	</g>
	<g
   id="g40"
   style="clip-rule:nonzero;fill:none;fill-opacity:1;stroke:#0000f8;stroke-miterlimit:4">
		<path
   d="M 62.12,40.12 58.31,41.9"
   id="path40" />
	</g>
	<g
   id="g41"
   style="clip-rule:nonzero;fill:none;fill-opacity:1;stroke:#7070c0;stroke-miterlimit:4">
		<path
   d="M 54.49,46.01 51.8,47.08"
   id="path41" />
	</g>
	<g
   id="g42"
   style="clip-rule:nonzero;fill:none;fill-opacity:1;stroke:#7070c0;stroke-miterlimit:4">
		<path
   d="m 62.12,42.26 -2.87,1.25"
   id="path42" />
	</g>
	<g
   id="g43"
   style="clip-rule:nonzero;fill:none;fill-opacity:1;stroke:#505450;stroke-miterlimit:4">
		<path
   d="M 60.09,45.92 56.4,47.27"
   id="path43" />
	</g>
	<g
   id="g44"
   style="clip-rule:nonzero;fill:none;fill-opacity:1;stroke:#f80000;stroke-miterlimit:4">
		<path
   d="m 59.71,50.71 -3.9,1.75"
   id="path44" />
	</g>
	<g
   id="Path_14"
   style="clip-rule:nonzero;fill:none;fill-opacity:1;stroke:#7070c0;stroke-miterlimit:4">
		<path
   d="m 60.67,53.42 -3.3,1.33"
   id="path45" />
	</g>
	<g
   id="Path_15"
   style="clip-rule:nonzero;fill:none;fill-opacity:1;stroke:#7070c0;stroke-miterlimit:4">
		<path
   d="m 63.97,55.32 -8.93,4.6"
   id="path46" />
	</g>
	<g
   id="Path_21"
   style="clip-rule:nonzero;fill:none;fill-opacity:1;stroke:#f80000;stroke-miterlimit:4">
		<path
   d="m 61.83,50.52 -3.88,1.74"
   id="path47" />
	</g>
	<g
   id="g48"
   style="clip-rule:nonzero;fill:#c07070;fill-opacity:1;stroke:#000000;stroke-miterlimit:4">
		<path
   d="m 94.23,53.08 2.4,6.3 0.18,8.71 -2.13,10.24 -3.93,6.82 -7.3,3.76 -5.68,-1.48 -2.36,-8.41 v -8.57 l 2.05,-8.56 4.7,-5.76 6.91,-4.46 z"
   id="path48" />
	</g>
	<g
   id="Path_17"
   style="clip-rule:nonzero;fill:none;fill-opacity:1;stroke:#000000;stroke-miterlimit:4">
		<path
   d="M 86.02,76.86 86.07,59.41"
   id="path49" />
	</g>
	<g
   id="g50"
   style="clip-rule:nonzero;fill:#000000;fill-opacity:1;stroke:#000000;stroke-miterlimit:4">
		<path
   d="m 86.07,78.55 v 0 l -0.72,1.53 -0.94,1.24 -2.18,0.4 -0.86,-1.41 0.68,-2.64 1.54,-1.15 2.35,-0.29 v 0 z"
   id="path50" />
	</g>
	<g
   id="g51"
   style="clip-rule:nonzero;fill:#000000;fill-opacity:1;stroke:#000000;stroke-miterlimit:4">
		<path
   d="m 86.07,61.16 3.19,3.24 0.14,-0.15 0.76,1.18 0.9,-0.73 -1.25,-2.19 -3.6,-3.06 z"
   id="path51" />
	</g>
	<g
   id="g52"
   style="clip-rule:nonzero;fill:#000000;fill-opacity:1;stroke:#000000;stroke-miterlimit:4">
		<path
   d="m 90.4,71.68 0.77,-6.29 0.17,1.18 -0.28,-1.87 -0.9,0.73 z"
   id="path52" />
	</g>
</g>
</svg>
